<svg id="svg" version="1.1" width="400" height="369.2307692307693" xmlns="http://www.w3.org/2000/svg" xmlns:xlink="http://www.w3.org/1999/xlink" style="display: block;"><g id="svgg"><path id="path0" d="M76.270 18.471 C 71.495 18.619,67.903 18.920,66.113 19.321 C 62.255 20.185,60.131 20.587,56.588 21.125 C 52.997 21.670,52.114 22.353,51.833 24.802 C 51.732 25.685,51.515 26.824,51.352 27.331 C 51.189 27.839,50.836 29.003,50.568 29.917 C 50.073 31.605,49.111 33.571,48.286 34.582 C 47.102 36.032,44.927 38.042,44.541 38.042 C 44.305 38.042,43.817 38.540,43.458 39.149 C 42.822 40.225,40.946 42.144,39.225 43.478 C 38.758 43.840,38.228 44.718,38.048 45.429 C 37.868 46.140,37.299 48.218,36.785 50.046 L 35.849 53.370 35.838 176.919 L 35.826 300.467 36.779 303.788 C 37.303 305.615,37.869 307.769,38.037 308.576 C 38.205 309.382,38.561 310.114,38.829 310.204 C 39.252 310.345,40.121 311.195,44.066 315.328 C 44.503 315.785,45.081 316.159,45.352 316.159 C 47.125 316.159,52.790 323.915,53.430 327.220 C 53.743 328.838,55.663 330.774,57.287 331.110 C 58.500 331.361,59.804 331.757,66.482 333.907 C 71.320 335.464,74.955 335.549,136.248 335.549 L 192.533 335.549 193.774 333.210 L 195.014 330.870 195.014 277.052 L 195.014 223.234 193.613 221.866 L 192.213 220.499 176.826 220.499 C 158.588 220.499,156.189 220.110,152.663 216.585 C 149.063 212.984,148.767 210.911,148.931 190.489 C 149.070 173.211,149.086 172.983,150.584 167.128 C 152.632 159.120,157.704 153.494,163.719 152.557 C 165.188 152.328,167.470 151.958,168.790 151.734 C 170.111 151.509,175.993 151.225,181.863 151.102 L 192.535 150.877 193.720 148.641 L 194.904 146.404 195.114 133.867 C 195.471 112.532,197.551 104.635,203.776 100.987 C 205.740 99.836,207.943 97.756,207.937 97.058 C 207.921 94.948,211.411 87.730,213.518 85.515 C 214.290 84.704,215.016 83.661,215.133 83.197 C 215.571 81.450,219.109 77.923,221.791 76.558 C 222.807 76.042,223.721 75.498,223.823 75.349 C 224.545 74.296,230.343 72.369,236.011 71.299 C 240.239 70.500,242.064 69.602,243.023 67.847 C 244.379 65.364,247.772 62.302,250.855 60.778 L 253.623 59.410 261.530 59.031 C 270.693 58.592,289.755 58.843,293.259 59.447 C 294.580 59.675,296.657 60.028,297.876 60.231 C 304.794 61.382,310.048 68.206,311.792 78.301 C 312.532 82.590,312.616 115.618,311.894 118.498 C 310.757 123.030,308.183 125.799,303.970 127.019 C 303.056 127.284,301.927 127.650,301.460 127.832 C 300.993 128.014,293.570 128.163,284.963 128.163 L 269.315 128.163 266.984 129.398 C 264.683 130.618,264.648 130.660,264.148 132.814 C 262.804 138.602,262.339 140.002,260.351 144.253 C 259.342 146.411,259.321 146.381,263.066 148.211 C 269.159 151.190,268.006 150.987,279.963 151.187 C 285.956 151.287,291.939 151.556,293.259 151.784 C 294.580 152.011,296.657 152.364,297.876 152.567 C 304.794 153.718,310.048 160.542,311.792 170.637 C 312.532 174.926,312.616 207.954,311.894 210.834 C 310.844 215.021,308.135 218.164,304.709 219.169 C 304.201 219.319,303.204 219.629,302.493 219.859 C 301.658 220.130,295.379 220.361,284.765 220.513 C 268.819 220.740,267.222 220.856,263.158 222.081 C 262.142 222.387,260.854 222.741,260.294 222.868 L 259.277 223.099 259.371 277.089 L 259.464 331.080 262.806 332.761 C 269.408 336.081,266.035 335.777,294.427 335.607 C 309.468 335.517,320.787 335.296,322.438 335.061 C 323.961 334.844,326.620 334.552,328.347 334.411 C 330.074 334.271,331.653 334.038,331.856 333.894 C 332.059 333.750,333.056 333.415,334.072 333.149 C 335.088 332.882,336.085 332.552,336.288 332.413 C 336.491 332.275,337.580 331.880,338.708 331.536 C 339.929 331.163,340.974 330.579,341.293 330.090 C 341.934 329.109,345.717 325.392,346.076 325.392 C 346.215 325.392,346.515 324.769,346.743 324.007 C 346.972 323.244,347.746 321.645,348.464 320.453 C 349.182 319.261,349.769 318.215,349.769 318.130 C 349.769 318.045,350.093 317.627,350.489 317.202 C 350.886 316.776,351.479 315.828,351.807 315.093 C 353.051 312.314,353.283 311.868,354.336 310.249 C 355.931 307.796,357.459 306.288,359.787 304.870 C 362.600 303.156,363.266 301.080,363.690 292.705 C 364.189 282.835,364.064 66.185,363.555 59.464 C 363.047 52.765,362.054 48.950,360.730 48.618 C 359.739 48.370,357.682 46.495,356.217 44.506 C 355.619 43.693,355.045 42.946,354.942 42.844 C 354.517 42.423,353.093 39.411,353.093 38.931 C 353.093 38.645,352.942 38.412,352.757 38.412 C 351.761 38.412,347.083 29.756,346.647 27.106 C 346.298 24.981,344.321 23.183,341.644 22.554 C 340.526 22.292,337.867 21.488,335.734 20.768 C 328.253 18.241,336.197 18.388,203.509 18.311 C 137.590 18.273,80.332 18.345,76.270 18.471 " stroke="none" fill="#ffffff" fill-rule="evenodd"></path><path id="path1" d="M0.000 184.672 L 0.000 369.344 200.000 369.344 L 400.000 369.344 400.000 184.672 L 400.000 0.000 371.006 0.000 L 342.013 0.000 342.013 3.887 L 342.013 7.775 343.029 8.157 C 343.587 8.368,344.527 8.779,345.117 9.072 C 345.707 9.364,346.704 9.609,347.333 9.616 C 354.192 9.695,358.471 13.447,359.746 20.499 C 360.394 24.084,361.099 24.980,363.528 25.307 C 364.594 25.450,365.633 25.687,365.836 25.834 C 366.039 25.980,366.787 26.329,367.498 26.610 C 368.209 26.890,368.957 27.252,369.160 27.414 C 369.363 27.576,370.011 28.071,370.600 28.514 C 372.868 30.218,374.207 34.564,374.959 42.659 C 375.668 50.300,375.662 300.245,374.952 309.141 C 373.926 322.005,372.131 325.417,365.072 327.921 C 363.840 328.359,362.582 328.717,362.277 328.717 C 361.162 328.717,360.072 330.569,359.597 333.272 C 358.332 340.463,355.859 342.653,347.234 344.218 C 345.941 344.453,344.612 344.789,344.279 344.966 C 343.947 345.143,342.900 345.497,341.953 345.753 C 340.395 346.174,340.123 346.420,339.084 348.354 C 336.744 352.715,332.169 355.803,326.316 356.975 C 324.691 357.300,322.447 357.765,321.330 358.008 C 318.218 358.683,263.465 358.626,257.987 357.941 C 246.585 356.515,243.664 353.343,241.109 339.612 C 240.362 335.597,240.407 221.087,241.156 218.467 C 243.500 210.276,245.862 209.611,274.608 209.041 C 284.765 208.840,293.823 208.517,294.737 208.324 C 295.651 208.131,297.271 207.966,298.338 207.957 L 300.277 207.941 300.277 192.286 L 300.277 176.632 298.153 176.391 C 296.985 176.258,294.783 175.914,293.259 175.626 C 284.971 174.059,284.064 173.980,272.207 173.788 C 246.926 173.380,244.215 171.736,241.112 154.940 C 240.517 151.718,240.546 137.058,241.156 132.595 C 242.466 123.004,245.562 119.755,254.848 118.226 C 260.821 117.243,264.084 117.027,278.116 116.691 C 286.343 116.494,293.823 116.176,294.737 115.985 C 295.651 115.793,297.271 115.630,298.338 115.621 L 300.277 115.605 300.277 99.944 L 300.277 84.283 297.969 84.030 C 296.699 83.891,294.580 83.559,293.259 83.292 C 284.058 81.432,284.967 81.480,267.573 81.912 C 258.644 82.134,250.757 82.400,250.046 82.504 C 249.335 82.608,246.510 82.881,243.767 83.110 C 237.217 83.657,236.536 83.956,236.194 86.436 C 236.050 87.483,235.702 88.782,235.420 89.322 C 235.138 89.863,234.907 90.528,234.905 90.802 C 234.903 91.276,233.691 93.201,232.884 94.012 C 231.572 95.330,228.554 96.611,224.662 97.503 C 221.979 98.118,221.313 99.269,220.884 104.035 C 220.273 110.825,219.213 115.877,217.896 118.278 C 217.702 118.630,217.544 119.170,217.544 119.478 C 217.544 119.785,217.378 120.037,217.175 120.037 C 216.971 120.037,216.805 120.293,216.805 120.607 C 216.805 121.716,213.006 125.045,210.256 126.345 C 206.645 128.053,206.558 128.365,206.298 140.536 C 205.653 170.751,203.892 173.520,185.042 173.967 C 179.658 174.095,174.423 174.388,173.407 174.619 C 170.149 175.358,165.716 176.134,163.343 176.380 L 161.034 176.619 161.034 192.280 L 161.034 207.941 163.015 207.941 C 164.105 207.941,165.891 208.116,166.986 208.330 C 168.080 208.543,174.958 208.868,182.271 209.051 C 203.270 209.575,204.427 210.185,206.105 221.607 C 206.624 225.144,206.343 333.183,205.802 338.135 C 204.297 351.883,202.912 354.928,197.050 357.373 L 194.470 358.449 135.924 358.449 C 74.023 358.449,72.308 358.406,67.093 356.751 C 62.998 355.450,59.939 352.628,58.134 348.487 C 56.936 345.736,55.988 345.234,50.046 344.199 C 43.540 343.065,40.866 340.157,39.717 332.964 C 39.251 330.048,38.897 329.745,35.432 329.285 C 26.593 328.111,25.115 323.976,23.616 296.214 C 23.059 285.899,23.363 58.098,23.944 51.154 C 25.103 37.285,25.402 34.496,25.844 33.426 C 26.012 33.019,26.349 32.105,26.593 31.394 C 27.591 28.489,29.307 26.223,30.510 26.223 C 30.793 26.223,31.025 26.057,31.025 25.854 C 31.025 25.651,31.348 25.485,31.742 25.485 C 32.136 25.485,32.550 25.337,32.662 25.156 C 32.773 24.976,33.448 24.726,34.161 24.602 C 34.874 24.478,36.073 24.271,36.825 24.143 C 38.590 23.841,39.151 23.250,39.151 21.688 C 39.151 20.993,39.297 19.942,39.477 19.353 C 39.656 18.764,40.023 17.535,40.293 16.620 C 41.631 12.075,44.162 10.349,51.154 9.217 C 52.779 8.953,54.649 8.515,55.309 8.242 L 56.510 7.746 56.510 3.873 L 56.510 0.000 28.255 0.000 L 0.000 0.000 0.000 184.672 " stroke="none" fill="#00adcc" fill-rule="evenodd"></path><path id="path2" d="M56.510 3.873 L 56.510 7.746 55.309 8.242 C 54.649 8.515,52.779 8.953,51.154 9.217 C 44.162 10.349,41.631 12.075,40.293 16.620 C 40.023 17.535,39.656 18.764,39.477 19.353 C 39.297 19.942,39.151 20.993,39.151 21.688 C 39.151 23.250,38.590 23.841,36.825 24.143 C 36.073 24.271,34.874 24.478,34.161 24.602 C 33.448 24.726,32.773 24.976,32.662 25.156 C 32.550 25.337,32.136 25.485,31.742 25.485 C 31.348 25.485,31.025 25.651,31.025 25.854 C 31.025 26.057,30.793 26.223,30.510 26.223 C 29.307 26.223,27.591 28.489,26.593 31.394 C 26.349 32.105,26.012 33.019,25.844 33.426 C 25.402 34.496,25.103 37.285,23.944 51.154 C 23.363 58.098,23.059 285.899,23.616 296.214 C 25.115 323.976,26.593 328.111,35.432 329.285 C 38.897 329.745,39.251 330.048,39.717 332.964 C 40.866 340.157,43.540 343.065,50.046 344.199 C 55.988 345.234,56.936 345.736,58.134 348.487 C 59.939 352.628,62.998 355.450,67.093 356.751 C 72.308 358.406,74.023 358.449,135.924 358.449 L 194.470 358.449 197.050 357.373 C 202.912 354.928,204.297 351.883,205.802 338.135 C 206.343 333.183,206.624 225.144,206.105 221.607 C 204.427 210.185,203.270 209.575,182.271 209.051 C 174.958 208.868,168.080 208.543,166.986 208.330 C 165.891 208.116,164.105 207.941,163.015 207.941 L 161.034 207.941 161.034 192.280 L 161.034 176.619 163.343 176.380 C 165.716 176.134,170.149 175.358,173.407 174.619 C 174.423 174.388,179.658 174.095,185.042 173.967 C 203.892 173.520,205.653 170.751,206.298 140.536 C 206.558 128.365,206.645 128.053,210.256 126.345 C 213.006 125.045,216.805 121.716,216.805 120.607 C 216.805 120.293,216.971 120.037,217.175 120.037 C 217.378 120.037,217.544 119.785,217.544 119.478 C 217.544 119.170,217.702 118.630,217.896 118.278 C 219.213 115.877,220.273 110.825,220.884 104.035 C 221.313 99.269,221.979 98.118,224.662 97.503 C 228.554 96.611,231.572 95.330,232.884 94.012 C 233.691 93.201,234.903 91.276,234.905 90.802 C 234.907 90.528,235.138 89.863,235.420 89.322 C 235.702 88.782,236.050 87.483,236.194 86.436 C 236.536 83.956,237.217 83.657,243.767 83.110 C 246.510 82.881,249.335 82.608,250.046 82.504 C 250.757 82.400,258.644 82.134,267.573 81.912 C 284.967 81.480,284.058 81.432,293.259 83.292 C 294.580 83.559,296.699 83.891,297.969 84.030 L 300.277 84.283 300.277 99.944 L 300.277 115.605 298.338 115.621 C 297.271 115.630,295.651 115.793,294.737 115.985 C 293.823 116.176,286.343 116.494,278.116 116.691 C 264.084 117.027,260.821 117.243,254.848 118.226 C 245.562 119.755,242.466 123.004,241.156 132.595 C 240.546 137.058,240.517 151.718,241.112 154.940 C 244.215 171.736,246.926 173.380,272.207 173.788 C 284.064 173.980,284.971 174.059,293.259 175.626 C 294.783 175.914,296.985 176.258,298.153 176.391 L 300.277 176.632 300.277 192.286 L 300.277 207.941 298.338 207.957 C 297.271 207.966,295.651 208.131,294.737 208.324 C 293.823 208.517,284.765 208.840,274.608 209.041 C 245.862 209.611,243.500 210.276,241.156 218.467 C 240.407 221.087,240.362 335.597,241.109 339.612 C 243.664 353.343,246.585 356.515,257.987 357.941 C 263.465 358.626,318.218 358.683,321.330 358.008 C 322.447 357.765,324.691 357.300,326.316 356.975 C 332.169 355.803,336.744 352.715,339.084 348.354 C 340.123 346.420,340.395 346.174,341.953 345.753 C 342.900 345.497,343.947 345.143,344.279 344.966 C 344.612 344.789,345.941 344.453,347.234 344.218 C 355.859 342.653,358.332 340.463,359.597 333.272 C 360.072 330.569,361.162 328.717,362.277 328.717 C 362.582 328.717,363.840 328.359,365.072 327.921 C 372.131 325.417,373.926 322.005,374.952 309.141 C 375.662 300.245,375.668 50.300,374.959 42.659 C 374.207 34.564,372.868 30.218,370.600 28.514 C 370.011 28.071,369.363 27.576,369.160 27.414 C 368.957 27.252,368.209 26.890,367.498 26.610 C 366.787 26.329,366.039 25.980,365.836 25.834 C 365.633 25.687,364.594 25.450,363.528 25.307 C 361.099 24.980,360.394 24.084,359.746 20.499 C 358.471 13.447,354.192 9.695,347.333 9.616 C 346.704 9.609,345.707 9.364,345.117 9.072 C 344.527 8.779,343.587 8.368,343.029 8.157 L 342.013 7.775 342.013 3.887 L 342.013 0.000 336.657 0.000 L 331.302 0.000 331.302 3.892 L 331.302 7.785 335.530 9.802 C 337.856 10.911,339.983 11.819,340.258 11.819 C 340.532 11.819,340.915 11.961,341.108 12.135 C 341.301 12.309,342.373 12.740,343.490 13.094 C 348.114 14.558,350.879 16.297,352.911 19.021 C 353.517 19.834,354.099 20.582,354.204 20.683 C 354.310 20.785,354.807 21.699,355.309 22.715 C 355.812 23.730,356.308 24.645,356.412 24.746 C 356.517 24.848,357.241 25.880,358.022 27.039 C 359.553 29.314,361.555 31.270,364.238 33.110 C 366.230 34.476,367.896 36.761,368.777 39.335 C 369.381 41.101,369.598 42.096,370.471 47.091 C 370.684 48.310,371.039 50.305,371.260 51.524 C 371.822 54.623,372.119 283.627,371.575 294.737 C 371.361 299.104,370.935 303.758,370.628 305.078 C 370.321 306.399,369.925 308.144,369.747 308.957 C 368.569 314.348,367.334 316.474,362.777 320.951 C 360.394 323.292,358.154 325.623,357.799 326.131 C 356.907 327.406,354.571 331.350,354.571 331.580 C 354.571 331.965,351.840 335.567,351.204 336.019 C 350.841 336.278,350.328 336.701,350.064 336.961 C 349.242 337.769,345.600 339.653,343.860 340.170 C 342.946 340.442,342.040 340.801,341.847 340.969 C 341.654 341.137,341.202 341.274,340.844 341.274 C 340.217 341.274,337.456 342.088,335.919 342.726 C 335.512 342.895,333.435 343.571,331.302 344.229 C 329.169 344.887,327.091 345.552,326.685 345.706 C 324.206 346.649,322.807 347.336,322.807 347.609 C 322.807 347.781,322.558 347.922,322.253 347.922 C 321.948 347.922,321.699 348.048,321.699 348.202 C 321.699 348.476,320.930 348.842,318.375 349.781 C 317.664 350.043,316.924 350.396,316.731 350.567 C 316.538 350.738,305.549 350.877,292.310 350.877 L 268.239 350.877 264.775 349.991 C 261.008 349.026,256.053 347.439,254.294 346.632 C 251.482 345.344,248.342 340.547,246.280 334.395 L 245.429 331.856 245.429 277.193 L 245.429 222.530 246.683 220.683 C 249.795 216.097,252.287 214.753,259.280 213.886 C 267.357 212.884,269.733 212.742,278.511 212.729 C 283.677 212.722,290.643 212.563,293.990 212.376 L 300.076 212.036 302.194 209.896 L 304.313 207.756 304.326 192.516 C 304.334 184.134,304.193 176.987,304.014 176.634 C 303.834 176.281,303.463 175.494,303.189 174.885 C 302.051 172.356,300.154 169.882,299.204 169.688 C 298.677 169.581,297.664 169.342,296.953 169.159 C 296.242 168.976,295.162 168.727,294.552 168.608 C 292.942 168.291,288.527 167.252,286.057 166.608 C 285.245 166.396,280.903 166.219,276.409 166.214 C 267.193 166.204,260.920 164.997,254.294 161.960 C 249.159 159.607,244.577 148.594,245.993 142.013 C 246.739 138.545,247.160 136.842,247.453 136.103 C 247.614 135.697,247.961 134.617,248.223 133.703 C 249.798 128.217,254.410 124.555,263.158 121.843 C 266.958 120.664,269.719 120.406,278.670 120.393 C 283.749 120.386,290.643 120.227,293.990 120.040 L 300.076 119.700 302.194 117.560 L 304.313 115.420 304.326 100.180 C 304.334 91.797,304.193 84.651,304.014 84.298 C 303.834 83.945,303.463 83.158,303.189 82.548 C 302.051 80.020,300.154 77.546,299.204 77.352 C 298.677 77.244,297.664 77.006,296.953 76.823 C 296.242 76.639,295.162 76.391,294.552 76.271 C 292.942 75.955,288.527 74.915,286.057 74.272 C 284.223 73.793,271.154 73.780,265.928 74.250 C 263.795 74.443,260.637 74.696,258.910 74.813 C 255.601 75.037,252.328 75.620,251.708 76.096 C 250.876 76.734,247.195 77.717,240.923 78.975 C 237.599 79.642,236.818 79.958,234.275 81.663 C 231.261 83.684,230.984 83.947,228.628 87.044 C 227.829 88.095,226.111 89.714,224.810 90.642 C 219.889 94.154,217.279 97.886,215.491 103.970 C 215.133 105.189,214.714 106.436,214.561 106.741 C 214.407 107.045,214.028 107.876,213.718 108.587 C 212.957 110.331,212.194 111.333,209.735 113.818 C 207.849 115.723,206.464 117.763,206.464 118.634 C 206.464 118.816,206.131 119.653,205.725 120.493 C 205.319 121.334,204.986 122.217,204.986 122.456 C 204.986 122.694,204.556 124.200,204.030 125.803 C 203.157 128.466,203.046 129.522,202.737 138.081 C 202.223 152.371,200.098 159.129,194.388 164.635 L 192.760 166.205 184.721 166.205 C 178.942 166.205,176.168 166.350,174.859 166.722 C 173.857 167.007,171.376 167.604,169.344 168.049 C 167.313 168.494,165.269 169.009,164.803 169.194 C 164.336 169.378,163.487 169.529,162.917 169.529 C 161.595 169.529,160.268 171.055,158.592 174.505 L 157.341 177.080 157.341 192.469 L 157.341 207.859 159.293 209.874 C 161.747 212.408,161.056 212.311,178.578 212.586 C 187.262 212.722,192.648 212.951,193.352 213.215 C 196.775 214.497,199.926 217.355,201.489 220.594 L 202.401 222.484 202.395 277.354 C 202.390 331.028,202.373 332.290,201.649 335.180 C 200.035 341.620,197.751 346.064,194.388 349.307 L 192.760 350.877 138.114 350.877 L 83.469 350.877 79.869 349.920 C 76.134 348.927,71.273 347.400,69.991 346.817 C 69.584 346.633,67.673 345.752,65.743 344.860 C 63.813 343.969,60.988 342.780,59.464 342.219 C 57.941 341.658,56.406 341.050,56.053 340.867 C 55.700 340.685,55.241 340.536,55.033 340.536 C 54.463 340.536,51.223 338.971,50.666 338.427 C 50.398 338.165,50.051 337.950,49.896 337.950 C 49.301 337.950,46.088 334.438,45.366 332.998 C 43.592 329.459,40.708 326.204,37.343 323.942 C 32.555 320.722,30.264 317.502,29.497 312.914 C 28.676 308.000,28.510 306.930,28.025 303.416 C 27.295 298.119,27.264 56.337,27.993 50.970 C 28.462 47.515,28.744 45.649,29.485 41.092 C 30.189 36.765,33.702 31.634,37.131 29.925 C 39.591 28.698,42.029 25.507,44.454 20.340 C 45.844 17.378,51.005 13.532,54.651 12.742 C 55.355 12.589,56.186 12.338,56.498 12.184 C 56.809 12.031,57.479 11.739,57.987 11.535 C 60.532 10.517,63.132 9.306,64.540 8.485 L 66.107 7.572 66.110 3.786 L 66.113 0.000 61.311 0.000 L 56.510 0.000 56.510 3.873 " stroke="none" fill="#30bcd6" fill-rule="evenodd"></path><path id="path3" d="M66.110 3.786 L 66.107 7.572 64.540 8.485 C 63.132 9.306,60.532 10.517,57.987 11.535 C 57.479 11.739,56.809 12.031,56.498 12.184 C 56.186 12.338,55.355 12.589,54.651 12.742 C 51.005 13.532,45.844 17.378,44.454 20.340 C 42.029 25.507,39.591 28.698,37.131 29.925 C 33.702 31.634,30.189 36.765,29.485 41.092 C 28.744 45.649,28.462 47.515,27.993 50.970 C 27.264 56.337,27.295 298.119,28.025 303.416 C 28.510 306.930,28.676 308.000,29.497 312.914 C 30.264 317.502,32.555 320.722,37.343 323.942 C 40.708 326.204,43.592 329.459,45.366 332.998 C 46.088 334.438,49.301 337.950,49.896 337.950 C 50.051 337.950,50.398 338.165,50.666 338.427 C 51.223 338.971,54.463 340.536,55.033 340.536 C 55.241 340.536,55.700 340.685,56.053 340.867 C 56.406 341.050,57.941 341.658,59.464 342.219 C 60.988 342.780,63.813 343.969,65.743 344.860 C 67.673 345.752,69.584 346.633,69.991 346.817 C 71.273 347.400,76.134 348.927,79.869 349.920 L 83.469 350.877 138.114 350.877 L 192.760 350.877 194.388 349.307 C 197.751 346.064,200.035 341.620,201.649 335.180 C 202.373 332.290,202.390 331.028,202.395 277.354 L 202.401 222.484 201.489 220.594 C 199.926 217.355,196.775 214.497,193.352 213.215 C 192.648 212.951,187.262 212.722,178.578 212.586 C 161.056 212.311,161.747 212.408,159.293 209.874 L 157.341 207.859 157.341 192.469 L 157.341 177.080 158.592 174.505 C 160.268 171.055,161.595 169.529,162.917 169.529 C 163.487 169.529,164.336 169.378,164.803 169.194 C 165.269 169.009,167.313 168.494,169.344 168.049 C 171.376 167.604,173.857 167.007,174.859 166.722 C 176.168 166.350,178.942 166.205,184.721 166.205 L 192.760 166.205 194.388 164.635 C 200.098 159.129,202.223 152.371,202.737 138.081 C 203.046 129.522,203.157 128.466,204.030 125.803 C 204.556 124.200,204.986 122.694,204.986 122.456 C 204.986 122.217,205.319 121.334,205.725 120.493 C 206.131 119.653,206.464 118.816,206.464 118.634 C 206.464 117.763,207.849 115.723,209.735 113.818 C 212.194 111.333,212.957 110.331,213.718 108.587 C 214.028 107.876,214.407 107.045,214.561 106.741 C 214.714 106.436,215.133 105.189,215.491 103.970 C 217.279 97.886,219.889 94.154,224.810 90.642 C 226.111 89.714,227.829 88.095,228.628 87.044 C 230.984 83.947,231.261 83.684,234.275 81.663 C 236.818 79.958,237.599 79.642,240.923 78.975 C 247.195 77.717,250.876 76.734,251.708 76.096 C 252.328 75.620,255.601 75.037,258.910 74.813 C 260.637 74.696,263.795 74.443,265.928 74.250 C 271.150 73.780,284.221 73.793,286.057 74.271 C 286.870 74.482,288.283 74.827,289.197 75.037 C 290.111 75.247,291.440 75.561,292.151 75.735 C 292.862 75.909,293.943 76.150,294.552 76.271 C 295.162 76.391,296.242 76.639,296.953 76.823 C 297.664 77.006,298.677 77.244,299.204 77.352 C 300.154 77.546,302.051 80.020,303.189 82.548 C 303.463 83.158,303.834 83.945,304.014 84.298 C 304.193 84.651,304.334 91.797,304.326 100.180 L 304.313 115.420 302.194 117.560 L 300.076 119.700 293.990 120.040 C 290.643 120.227,283.749 120.386,278.670 120.393 C 269.719 120.406,266.958 120.664,263.158 121.843 C 254.410 124.555,249.798 128.217,248.223 133.703 C 247.961 134.617,247.614 135.697,247.453 136.103 C 247.160 136.842,246.739 138.545,245.993 142.013 C 244.577 148.594,249.159 159.607,254.294 161.960 C 260.920 164.997,267.193 166.204,276.409 166.214 C 280.903 166.219,285.245 166.396,286.057 166.607 C 286.870 166.818,288.283 167.163,289.197 167.373 C 290.111 167.583,291.440 167.897,292.151 168.071 C 292.862 168.246,293.943 168.486,294.552 168.607 C 295.162 168.727,296.242 168.976,296.953 169.159 C 297.664 169.342,298.677 169.581,299.204 169.688 C 300.154 169.882,302.051 172.356,303.189 174.885 C 303.463 175.494,303.834 176.281,304.014 176.634 C 304.193 176.987,304.334 184.134,304.326 192.516 L 304.313 207.756 302.194 209.896 L 300.076 212.036 293.990 212.376 C 290.643 212.563,283.677 212.722,278.511 212.729 C 269.733 212.742,267.357 212.884,259.280 213.886 C 252.287 214.753,249.795 216.097,246.683 220.683 L 245.429 222.530 245.429 277.193 L 245.429 331.856 246.280 334.395 C 248.342 340.547,251.482 345.344,254.294 346.632 C 256.053 347.439,261.008 349.026,264.775 349.991 L 268.239 350.877 292.310 350.877 C 305.549 350.877,316.538 350.738,316.731 350.567 C 316.924 350.396,317.664 350.043,318.375 349.781 C 320.930 348.842,321.699 348.476,321.699 348.202 C 321.699 348.048,321.948 347.922,322.253 347.922 C 322.558 347.922,322.807 347.781,322.807 347.609 C 322.807 347.336,324.206 346.649,326.685 345.706 C 327.091 345.552,329.169 344.887,331.302 344.229 C 333.435 343.571,335.512 342.895,335.919 342.726 C 337.456 342.088,340.217 341.274,340.844 341.274 C 341.202 341.274,341.654 341.137,341.847 340.969 C 342.040 340.801,342.946 340.442,343.860 340.170 C 345.600 339.653,349.242 337.769,350.064 336.961 C 350.328 336.701,350.841 336.278,351.204 336.019 C 351.840 335.567,354.571 331.965,354.571 331.580 C 354.571 331.350,356.907 327.406,357.799 326.131 C 358.154 325.623,360.394 323.292,362.777 320.951 C 367.334 316.474,368.569 314.348,369.747 308.957 C 369.925 308.144,370.321 306.399,370.628 305.078 C 370.935 303.758,371.361 299.104,371.575 294.737 C 372.119 283.627,371.822 54.623,371.260 51.524 C 371.039 50.305,370.684 48.310,370.471 47.091 C 369.598 42.096,369.381 41.101,368.777 39.335 C 367.896 36.761,366.230 34.476,364.238 33.110 C 361.555 31.270,359.553 29.314,358.022 27.039 C 357.241 25.880,356.517 24.848,356.412 24.746 C 356.308 24.645,355.812 23.730,355.309 22.715 C 354.807 21.699,354.310 20.785,354.204 20.683 C 354.099 20.582,353.517 19.834,352.911 19.021 C 350.879 16.297,348.114 14.558,343.490 13.094 C 342.373 12.740,341.301 12.309,341.108 12.135 C 340.915 11.961,340.532 11.819,340.258 11.819 C 339.983 11.819,337.856 10.911,335.530 9.802 L 331.302 7.785 331.302 3.892 L 331.302 0.000 198.707 0.000 L 66.113 0.000 66.110 3.786 M316.272 10.686 C 320.129 11.545,325.801 12.520,328.163 12.731 C 329.584 12.858,331.413 13.269,332.225 13.645 C 335.701 15.254,337.233 15.882,337.688 15.882 C 337.954 15.882,338.330 16.022,338.523 16.193 C 338.911 16.537,343.377 17.953,345.224 18.318 C 346.930 18.655,350.015 21.861,351.410 24.746 C 354.174 30.465,356.433 33.386,360.910 37.032 C 362.588 38.398,363.840 40.819,365.255 45.429 C 365.473 46.140,365.996 47.802,366.416 49.123 C 367.993 54.077,368.052 58.694,368.052 177.285 C 368.052 298.731,368.038 299.689,366.198 304.524 C 365.657 305.946,365.087 307.525,364.930 308.033 C 364.220 310.338,361.926 313.933,359.557 316.454 C 358.135 317.966,356.799 319.392,356.589 319.621 C 356.379 319.850,355.631 320.866,354.927 321.879 C 354.223 322.892,353.476 323.906,353.267 324.132 C 353.057 324.359,352.162 325.980,351.276 327.734 C 348.422 333.391,345.020 335.525,334.441 338.295 C 333.832 338.454,332.690 338.857,331.903 339.191 C 331.117 339.524,330.056 339.797,329.545 339.797 C 329.035 339.797,328.017 339.962,327.282 340.165 C 326.547 340.367,324.118 340.966,321.884 341.495 C 319.649 342.024,317.588 342.648,317.302 342.882 C 316.924 343.191,310.245 343.306,292.556 343.306 L 268.329 343.306 264.904 342.119 C 261.449 340.921,260.823 340.669,256.975 338.924 C 254.817 337.946,252.632 336.181,252.632 335.417 C 252.632 335.185,252.505 334.995,252.349 334.995 C 250.581 334.995,250.607 335.798,250.504 277.452 L 250.408 223.049 251.989 221.376 C 253.693 219.572,254.791 219.164,260.942 218.049 C 262.567 217.754,264.728 217.337,265.743 217.122 C 266.761 216.906,274.811 216.621,283.671 216.487 L 299.751 216.244 301.654 215.023 C 304.361 213.286,305.547 212.117,307.068 209.688 L 308.403 207.557 308.403 192.482 C 308.403 176.453,308.273 175.135,306.361 171.688 C 306.062 171.149,305.817 170.514,305.817 170.277 C 305.817 169.869,304.115 167.221,302.879 165.707 C 300.862 163.235,299.970 162.684,296.893 162.011 C 293.973 161.373,290.723 160.424,288.273 159.494 C 287.621 159.246,283.293 158.976,277.747 158.836 C 266.860 158.561,266.118 158.397,256.975 154.252 C 254.817 153.274,252.632 151.509,252.632 150.745 C 252.632 150.513,252.506 150.323,252.352 150.323 C 252.078 150.323,251.576 149.327,250.798 147.240 C 249.875 144.762,255.428 131.478,258.172 129.602 C 258.883 129.115,259.699 128.495,259.985 128.223 C 260.837 127.413,266.109 125.155,268.698 124.490 C 269.553 124.271,276.403 124.070,284.958 124.013 L 299.740 123.915 301.648 122.691 C 304.361 120.950,305.546 119.782,307.068 117.352 L 308.403 115.221 308.403 100.146 C 308.403 84.117,308.273 82.799,306.361 79.352 C 306.062 78.813,305.817 78.178,305.817 77.941 C 305.817 77.533,304.115 74.885,302.879 73.371 C 300.862 70.899,299.970 70.348,296.893 69.675 C 295.199 69.305,292.899 68.707,291.782 68.346 C 286.511 66.642,286.745 66.667,276.085 66.667 C 269.635 66.667,264.770 66.836,263.158 67.115 C 261.736 67.362,258.996 67.766,257.070 68.012 C 255.143 68.259,253.398 68.600,253.192 68.771 C 252.985 68.942,252.318 69.494,251.708 69.998 C 251.099 70.501,250.309 70.913,249.954 70.914 C 249.598 70.914,249.307 71.040,249.307 71.193 C 249.307 71.347,248.767 71.691,248.107 71.958 C 247.447 72.226,246.159 72.754,245.245 73.133 C 244.331 73.511,242.585 74.103,241.367 74.447 C 237.212 75.622,235.827 76.126,233.056 77.474 C 231.533 78.215,230.203 78.913,230.102 79.024 C 230.000 79.135,229.202 79.712,228.328 80.305 C 227.454 80.898,226.211 82.061,225.565 82.889 C 224.223 84.611,222.394 86.427,222.001 86.427 C 221.537 86.427,216.460 91.680,216.233 92.393 C 216.114 92.768,215.894 93.075,215.744 93.075 C 215.479 93.075,214.648 94.670,211.095 102.006 C 209.961 104.347,208.563 106.490,207.048 108.211 C 201.358 114.677,199.506 121.508,199.086 137.581 C 198.953 142.659,198.669 147.313,198.453 147.922 C 197.942 149.369,194.970 155.625,194.680 155.863 C 194.557 155.965,194.001 156.658,193.445 157.404 L 192.435 158.760 183.475 158.918 C 174.934 159.069,174.368 159.123,171.376 160.091 C 169.649 160.649,166.670 161.488,164.756 161.956 C 159.735 163.182,157.464 165.739,154.255 173.777 C 153.033 176.836,152.864 206.621,154.055 209.049 C 155.029 211.037,158.908 214.958,159.900 214.958 C 160.083 214.958,160.296 215.143,160.371 215.369 C 160.612 216.093,166.069 216.396,179.250 216.416 L 192.111 216.436 193.655 217.509 C 195.347 218.684,197.044 220.413,198.279 222.218 L 199.077 223.383 199.073 276.881 C 199.069 321.163,198.981 330.665,198.562 332.041 C 198.047 333.727,195.091 340.197,194.680 340.536 C 194.557 340.637,193.991 341.343,193.423 342.105 L 192.391 343.490 138.947 343.483 C 105.668 343.478,84.667 343.338,83.287 343.112 C 82.068 342.912,80.240 342.579,79.224 342.373 C 78.209 342.166,75.549 341.766,73.315 341.485 C 70.702 341.155,68.396 340.615,66.851 339.970 C 63.428 338.539,63.268 338.477,60.203 337.388 C 58.680 336.846,56.634 336.182,55.658 335.912 C 53.255 335.247,48.753 331.422,48.753 330.046 C 48.753 329.724,46.250 325.792,45.672 325.208 C 45.437 324.970,44.633 324.096,43.886 323.265 C 43.139 322.435,41.560 321.137,40.377 320.381 C 35.576 317.312,34.447 315.322,33.056 307.479 C 32.732 305.651,32.270 303.657,32.030 303.047 C 31.468 301.624,31.186 68.067,31.734 57.802 C 32.114 50.679,32.365 48.881,33.824 42.844 C 34.993 38.009,36.939 35.145,40.202 33.454 C 42.252 32.392,44.466 29.390,47.169 24.007 C 49.046 20.270,52.212 17.395,55.088 16.816 C 58.692 16.090,63.527 14.446,68.144 12.376 C 68.753 12.102,71.413 11.690,74.054 11.459 C 76.694 11.229,80.102 10.906,81.625 10.743 C 85.612 10.316,314.359 10.261,316.272 10.686 " stroke="none" fill="#81d1e4" fill-rule="evenodd"></path><path id="path4" d="M81.625 10.743 C 80.102 10.906,76.694 11.229,74.054 11.459 C 71.413 11.690,68.753 12.102,68.144 12.376 C 63.527 14.446,58.692 16.090,55.088 16.816 C 52.212 17.395,49.046 20.270,47.169 24.007 C 44.466 29.390,42.252 32.392,40.202 33.454 C 36.939 35.145,34.993 38.009,33.824 42.844 C 32.365 48.881,32.114 50.679,31.734 57.802 C 31.186 68.067,31.468 301.624,32.030 303.047 C 32.270 303.657,32.732 305.651,33.056 307.479 C 34.447 315.322,35.576 317.312,40.377 320.381 C 41.560 321.137,43.139 322.435,43.886 323.265 C 44.633 324.096,45.437 324.970,45.672 325.208 C 46.250 325.792,48.753 329.724,48.753 330.046 C 48.753 331.422,53.255 335.247,55.658 335.912 C 56.634 336.182,58.680 336.846,60.203 337.388 C 63.268 338.477,63.428 338.539,66.851 339.970 C 68.396 340.615,70.702 341.155,73.315 341.485 C 75.549 341.766,78.209 342.166,79.224 342.373 C 80.240 342.579,82.068 342.912,83.287 343.112 C 84.667 343.338,105.668 343.478,138.947 343.483 L 192.391 343.490 193.423 342.105 C 193.991 341.343,194.557 340.637,194.680 340.536 C 195.091 340.197,198.047 333.727,198.562 332.041 C 198.981 330.665,199.069 321.163,199.073 276.881 L 199.077 223.383 198.279 222.218 C 197.044 220.413,195.347 218.684,193.655 217.509 L 192.111 216.436 179.250 216.416 C 166.069 216.396,160.612 216.093,160.371 215.369 C 160.296 215.143,160.083 214.958,159.900 214.958 C 158.908 214.958,155.029 211.037,154.055 209.049 C 152.864 206.621,153.033 176.836,154.255 173.777 C 157.464 165.739,159.735 163.182,164.756 161.956 C 166.670 161.488,169.649 160.649,171.376 160.091 C 174.368 159.123,174.934 159.069,183.475 158.918 L 192.435 158.760 193.445 157.404 C 194.001 156.658,194.557 155.965,194.680 155.863 C 194.970 155.625,197.942 149.369,198.453 147.922 C 198.669 147.313,198.953 142.659,199.086 137.581 C 199.506 121.508,201.358 114.677,207.048 108.211 C 208.563 106.490,209.961 104.347,211.095 102.006 C 214.648 94.670,215.479 93.075,215.744 93.075 C 215.894 93.075,216.114 92.768,216.233 92.393 C 216.460 91.680,221.537 86.427,222.001 86.427 C 222.394 86.427,224.223 84.611,225.565 82.889 C 226.211 82.061,227.454 80.898,228.328 80.305 C 229.202 79.712,230.000 79.135,230.102 79.024 C 230.203 78.913,231.533 78.215,233.056 77.474 C 235.827 76.126,237.212 75.622,241.367 74.447 C 242.585 74.103,244.331 73.511,245.245 73.133 C 246.159 72.754,247.447 72.226,248.107 71.958 C 248.767 71.691,249.307 71.347,249.307 71.193 C 249.307 71.040,249.598 70.914,249.954 70.914 C 250.309 70.913,251.099 70.501,251.708 69.998 C 252.318 69.494,252.985 68.942,253.192 68.771 C 253.398 68.600,255.143 68.259,257.070 68.012 C 258.996 67.766,261.736 67.362,263.158 67.115 C 264.770 66.836,269.635 66.667,276.085 66.667 C 286.745 66.667,286.511 66.642,291.782 68.346 C 292.899 68.707,295.199 69.305,296.893 69.675 C 299.970 70.348,300.862 70.899,302.879 73.371 C 304.115 74.885,305.817 77.533,305.817 77.941 C 305.817 78.178,306.062 78.813,306.361 79.352 C 308.273 82.799,308.403 84.117,308.403 100.146 L 308.403 115.221 307.068 117.352 C 305.546 119.782,304.361 120.950,301.648 122.691 L 299.740 123.915 284.958 124.013 C 276.403 124.070,269.553 124.271,268.698 124.490 C 266.109 125.155,260.837 127.413,259.985 128.223 C 259.699 128.495,258.883 129.115,258.172 129.602 C 255.428 131.478,249.875 144.762,250.798 147.240 C 251.576 149.327,252.078 150.323,252.352 150.323 C 252.506 150.323,252.632 150.513,252.632 150.745 C 252.632 151.509,254.817 153.274,256.975 154.252 C 266.118 158.397,266.860 158.561,277.747 158.836 C 283.293 158.976,287.621 159.246,288.273 159.494 C 290.723 160.424,293.973 161.373,296.893 162.011 C 299.970 162.684,300.862 163.235,302.879 165.707 C 304.115 167.221,305.817 169.869,305.817 170.277 C 305.817 170.514,306.062 171.149,306.361 171.688 C 308.273 175.135,308.403 176.453,308.403 192.482 L 308.403 207.557 307.068 209.688 C 305.547 212.117,304.361 213.286,301.654 215.023 L 299.751 216.244 283.671 216.487 C 274.811 216.621,266.761 216.906,265.743 217.122 C 264.728 217.337,262.567 217.754,260.942 218.049 C 254.791 219.164,253.693 219.572,251.989 221.376 L 250.408 223.049 250.504 277.452 C 250.607 335.798,250.581 334.995,252.349 334.995 C 252.505 334.995,252.632 335.185,252.632 335.417 C 252.632 336.181,254.817 337.946,256.975 338.924 C 260.823 340.669,261.449 340.921,264.904 342.119 L 268.329 343.306 292.556 343.306 C 310.245 343.306,316.924 343.191,317.302 342.882 C 317.588 342.648,319.649 342.024,321.884 341.495 C 324.118 340.966,326.547 340.367,327.282 340.165 C 328.017 339.962,329.035 339.797,329.545 339.797 C 330.056 339.797,331.117 339.524,331.903 339.191 C 332.690 338.857,333.832 338.454,334.441 338.295 C 345.020 335.525,348.422 333.391,351.276 327.734 C 352.162 325.980,353.057 324.359,353.267 324.132 C 353.476 323.906,354.223 322.892,354.927 321.879 C 355.631 320.866,356.379 319.850,356.589 319.621 C 356.799 319.392,358.135 317.966,359.557 316.454 C 361.926 313.933,364.220 310.338,364.930 308.033 C 365.087 307.525,365.657 305.946,366.198 304.524 C 368.038 299.689,368.052 298.731,368.052 177.285 C 368.052 58.694,367.993 54.077,366.416 49.123 C 365.996 47.802,365.473 46.140,365.255 45.429 C 363.840 40.819,362.588 38.398,360.910 37.032 C 356.433 33.386,354.174 30.465,351.410 24.746 C 350.015 21.861,346.930 18.655,345.224 18.318 C 343.377 17.953,338.911 16.537,338.523 16.193 C 338.330 16.022,337.954 15.882,337.688 15.882 C 337.233 15.882,335.701 15.254,332.225 13.645 C 331.413 13.269,329.584 12.858,328.163 12.731 C 325.801 12.520,320.129 11.545,316.272 10.686 C 314.359 10.261,85.612 10.316,81.625 10.743 M327.608 18.919 C 330.271 19.257,333.303 19.947,335.734 20.768 C 337.867 21.488,340.526 22.292,341.644 22.554 C 344.321 23.183,346.298 24.981,346.647 27.106 C 347.083 29.756,351.761 38.412,352.757 38.412 C 352.942 38.412,353.093 38.645,353.093 38.931 C 353.093 39.411,354.517 42.423,354.942 42.844 C 355.045 42.946,355.619 43.693,356.217 44.506 C 357.682 46.495,359.739 48.370,360.730 48.618 C 362.054 48.950,363.047 52.765,363.555 59.464 C 364.064 66.185,364.189 282.835,363.690 292.705 C 363.266 301.080,362.600 303.156,359.787 304.870 C 357.459 306.288,355.931 307.796,354.336 310.249 C 353.283 311.868,353.051 312.314,351.807 315.093 C 351.479 315.828,350.886 316.776,350.489 317.202 C 350.093 317.627,349.769 318.045,349.769 318.130 C 349.769 318.215,349.182 319.261,348.464 320.453 C 347.746 321.645,346.972 323.244,346.743 324.007 C 346.515 324.769,346.215 325.392,346.076 325.392 C 345.717 325.392,341.934 329.109,341.293 330.090 C 340.974 330.579,339.929 331.163,338.708 331.536 C 337.580 331.880,336.491 332.275,336.288 332.413 C 336.085 332.552,335.088 332.882,334.072 333.149 C 333.056 333.415,332.059 333.750,331.856 333.894 C 331.653 334.038,330.074 334.271,328.347 334.411 C 326.620 334.552,323.961 334.844,322.438 335.061 C 320.787 335.296,309.468 335.517,294.427 335.607 C 266.035 335.777,269.408 336.081,262.806 332.761 L 259.464 331.080 259.371 277.089 L 259.277 223.099 260.294 222.868 C 260.854 222.741,262.142 222.387,263.158 222.081 C 267.222 220.856,268.819 220.740,284.765 220.513 C 295.379 220.361,301.658 220.130,302.493 219.859 C 303.204 219.629,304.201 219.319,304.709 219.169 C 308.135 218.164,310.844 215.021,311.894 210.834 C 312.616 207.954,312.532 174.926,311.792 170.637 C 310.048 160.542,304.794 153.718,297.876 152.567 C 296.657 152.364,294.580 152.011,293.259 151.784 C 291.939 151.556,285.956 151.287,279.963 151.187 C 268.006 150.987,269.159 151.190,263.066 148.211 C 259.321 146.381,259.342 146.411,260.351 144.253 C 262.339 140.002,262.804 138.602,264.148 132.814 C 264.648 130.660,264.683 130.618,266.984 129.398 L 269.315 128.163 284.963 128.163 C 293.570 128.163,300.993 128.014,301.460 127.832 C 301.927 127.650,303.056 127.284,303.970 127.019 C 308.183 125.799,310.757 123.030,311.894 118.498 C 312.616 115.618,312.532 82.590,311.792 78.301 C 310.048 68.206,304.794 61.382,297.876 60.231 C 296.657 60.028,294.580 59.675,293.259 59.447 C 289.755 58.843,270.693 58.592,261.530 59.031 L 253.623 59.410 250.855 60.778 C 247.772 62.302,244.379 65.364,243.023 67.847 C 242.064 69.602,240.239 70.500,236.011 71.299 C 230.343 72.369,224.545 74.296,223.823 75.349 C 223.721 75.498,222.807 76.042,221.791 76.558 C 219.109 77.923,215.571 81.450,215.133 83.197 C 215.016 83.661,214.290 84.704,213.518 85.515 C 211.411 87.730,207.921 94.948,207.937 97.058 C 207.943 97.756,205.740 99.836,203.776 100.987 C 197.551 104.635,195.471 112.532,195.114 133.867 L 194.904 146.404 193.720 148.641 L 192.535 150.877 181.863 151.102 C 175.993 151.225,170.111 151.509,168.790 151.734 C 167.470 151.958,165.188 152.328,163.719 152.557 C 157.704 153.494,152.632 159.120,150.584 167.128 C 149.086 172.983,149.070 173.211,148.931 190.489 C 148.767 210.911,149.063 212.984,152.663 216.585 C 156.189 220.110,158.588 220.499,176.826 220.499 L 192.213 220.499 193.613 221.866 L 195.014 223.234 195.014 277.052 L 195.014 330.870 193.774 333.210 L 192.533 335.549 136.248 335.549 C 74.955 335.549,71.320 335.464,66.482 333.907 C 59.804 331.757,58.500 331.361,57.287 331.110 C 55.663 330.774,53.743 328.838,53.430 327.220 C 52.790 323.915,47.125 316.159,45.352 316.159 C 45.081 316.159,44.503 315.785,44.066 315.328 C 40.121 311.195,39.252 310.345,38.829 310.204 C 38.561 310.114,38.205 309.382,38.037 308.576 C 37.869 307.769,37.303 305.615,36.779 303.788 L 35.826 300.467 35.838 176.919 L 35.849 53.370 36.785 50.046 C 37.299 48.218,37.868 46.140,38.048 45.429 C 38.228 44.718,38.758 43.840,39.225 43.478 C 40.946 42.144,42.822 40.225,43.458 39.149 C 43.817 38.540,44.305 38.042,44.541 38.042 C 44.927 38.042,47.102 36.032,48.286 34.582 C 49.111 33.571,50.073 31.605,50.568 29.917 C 50.836 29.003,51.189 27.839,51.352 27.331 C 51.515 26.824,51.732 25.685,51.833 24.802 C 52.114 22.353,52.997 21.670,56.588 21.125 C 60.131 20.587,62.255 20.185,66.113 19.321 C 70.697 18.294,78.336 18.238,203.509 18.311 C 306.022 18.371,323.975 18.459,327.608 18.919 " stroke="none" fill="#aee2ee" fill-rule="evenodd"></path></g></svg>