<svg id="svg" version="1.1" width="400" height="400" xmlns="http://www.w3.org/2000/svg" xmlns:xlink="http://www.w3.org/1999/xlink" style="display: block;"><g id="svgg"><path id="path0" d="M285.000 22.675 C 284.340 22.716,280.200 22.948,275.800 23.191 C 271.400 23.434,266.360 23.803,264.600 24.012 C 262.840 24.220,259.291 24.593,256.713 24.842 C 251.225 25.370,251.151 25.413,250.003 28.800 C 249.148 31.324,246.876 35.600,246.391 35.600 C 246.259 35.600,245.785 35.941,245.338 36.357 C 243.771 37.818,238.300 40.000,236.208 40.000 C 234.133 40.000,229.839 43.379,229.218 45.501 C 227.942 49.860,224.593 53.301,219.800 55.178 C 217.090 56.240,213.149 59.733,212.368 61.767 C 211.202 64.802,210.623 66.000,210.323 66.000 C 210.145 66.000,210.000 66.256,210.000 66.568 C 210.000 68.184,203.602 72.800,201.363 72.800 C 200.179 72.800,194.995 78.456,194.398 80.400 C 193.059 84.751,189.855 87.978,184.786 90.079 C 183.584 90.577,182.150 91.519,181.600 92.172 C 181.050 92.825,180.195 93.765,179.700 94.261 C 177.748 96.218,180.697 104.473,183.959 106.188 C 185.446 106.969,187.622 109.096,189.182 111.294 C 190.240 112.784,190.833 113.239,191.963 113.427 C 192.753 113.559,193.940 113.822,194.600 114.010 C 197.930 114.963,215.626 114.656,217.577 113.613 C 218.108 113.328,218.426 112.603,218.591 111.299 C 219.133 106.999,220.647 102.986,222.505 100.924 C 224.120 99.132,230.264 96.800,233.371 96.800 C 235.066 96.800,235.370 96.379,235.975 93.200 C 237.632 84.501,242.373 79.612,249.166 79.598 C 252.324 79.591,252.983 79.035,253.786 75.704 C 254.197 73.997,254.684 72.429,254.867 72.220 C 255.050 72.011,255.200 71.548,255.200 71.192 C 255.200 67.955,262.170 64.274,269.600 63.586 C 276.686 62.930,303.251 62.622,306.057 63.163 C 315.124 64.912,317.312 66.767,319.079 74.200 C 319.870 77.530,320.032 119.042,319.283 126.400 C 318.057 138.435,315.206 142.513,306.688 144.416 C 303.233 145.188,301.686 146.920,300.632 151.200 C 299.070 157.540,294.000 162.000,288.355 162.000 C 286.622 162.000,284.165 164.980,283.573 167.800 C 282.253 174.081,279.131 177.302,272.716 178.999 C 268.997 179.983,267.058 181.549,266.370 184.124 C 264.879 189.701,263.445 192.497,261.383 193.848 C 259.841 194.858,254.808 196.800,253.732 196.800 C 251.483 196.800,248.781 199.226,248.077 201.879 C 244.878 213.929,242.597 214.402,187.800 214.395 C 162.870 214.392,158.150 214.548,150.637 215.624 C 147.798 216.030,146.611 216.814,147.040 218.000 C 147.159 218.330,147.357 219.500,147.479 220.600 C 147.635 222.004,148.025 222.957,148.787 223.800 C 149.384 224.460,150.302 225.630,150.826 226.400 C 151.350 227.170,151.929 227.980,152.113 228.200 C 152.856 229.088,154.225 231.492,154.841 232.989 C 155.387 234.315,155.948 234.813,158.218 235.989 C 160.932 237.395,162.503 238.681,164.400 241.047 C 164.950 241.733,166.300 242.750,167.400 243.308 C 170.376 244.815,173.031 247.636,174.615 250.974 C 175.041 251.872,175.607 252.386,176.326 252.525 C 177.575 252.768,179.691 253.357,181.400 253.937 C 185.783 255.426,213.886 256.352,222.200 255.282 C 224.400 254.999,228.090 254.672,230.400 254.556 C 234.147 254.369,236.308 253.889,238.495 252.759 C 238.877 252.562,239.507 252.399,239.895 252.397 C 240.520 252.394,241.600 250.813,241.600 249.898 C 241.600 248.141,248.208 241.600,249.983 241.600 C 250.406 241.600,252.013 240.796,252.400 240.391 C 253.996 238.721,259.616 236.965,266.797 235.892 L 270.194 235.385 270.843 231.992 C 272.539 223.141,275.740 220.001,284.331 218.760 C 287.218 218.343,288.000 217.765,288.000 216.048 C 288.000 208.183,292.829 202.922,301.590 201.244 L 304.981 200.594 305.539 197.597 C 307.231 188.508,311.061 184.749,319.542 183.854 C 322.213 183.572,322.800 183.095,322.800 181.211 C 322.800 180.390,322.959 179.198,323.153 178.560 C 323.348 177.922,323.748 176.590,324.043 175.600 C 325.563 170.505,329.239 167.775,336.390 166.431 L 339.781 165.794 340.344 162.797 C 342.071 153.612,345.773 149.979,354.342 149.058 C 357.257 148.745,357.450 148.497,357.736 144.698 C 358.002 141.171,358.502 137.278,359.188 133.400 C 359.421 132.080,359.780 129.560,359.984 127.800 C 360.319 124.917,360.886 122.048,361.921 118.000 C 362.118 117.230,362.666 115.755,363.140 114.722 C 364.119 112.584,364.351 100.790,363.578 92.400 C 363.366 90.090,363.094 86.400,362.976 84.200 C 362.857 82.000,362.420 78.850,362.004 77.200 C 360.439 70.994,360.000 68.787,359.997 67.118 C 359.986 60.621,357.690 55.582,353.930 53.803 C 350.644 52.248,348.006 49.660,346.298 46.315 C 344.856 43.491,340.256 39.560,337.679 38.949 C 332.057 37.616,327.408 32.897,326.217 27.316 C 325.740 25.076,323.008 24.126,316.200 23.829 C 313.120 23.695,307.810 23.408,304.400 23.190 C 298.438 22.811,287.494 22.520,285.000 22.675 M157.000 144.450 C 153.040 144.638,147.370 144.976,144.400 145.202 C 141.430 145.428,137.154 145.610,134.897 145.607 C 129.898 145.599,127.032 146.758,126.584 148.970 C 125.251 155.545,120.838 160.063,114.523 161.317 C 112.665 161.686,108.028 165.142,107.728 166.382 C 106.489 171.498,101.719 176.320,96.834 177.393 C 95.164 177.759,91.144 182.152,90.067 184.786 C 88.005 189.829,84.757 193.058,80.400 194.398 C 78.456 194.995,72.800 200.179,72.800 201.363 C 72.800 203.602,68.184 210.000,66.568 210.000 C 66.256 210.000,66.000 210.145,66.000 210.323 C 66.000 210.623,64.802 211.202,61.767 212.368 C 59.733 213.149,56.240 217.090,55.178 219.800 C 53.320 224.545,49.931 227.866,45.600 229.184 C 43.687 229.766,38.000 235.010,38.000 236.192 C 38.000 238.379,33.376 244.800,31.802 244.800 C 31.507 244.800,31.207 244.935,31.133 245.100 C 31.004 245.392,29.303 246.252,27.130 247.126 C 26.539 247.363,25.574 248.385,24.975 249.407 C 23.946 251.162,23.612 252.413,22.409 259.000 C 21.721 262.772,19.930 266.394,17.769 268.386 C 16.796 269.283,16.000 270.148,16.000 270.308 C 15.999 270.469,15.594 271.068,15.100 271.639 C 10.337 277.144,10.236 277.197,4.500 277.199 L 0.000 277.200 0.000 300.400 L 0.000 323.600 4.254 323.600 C 8.539 323.600,11.267 324.090,12.431 325.069 C 12.779 325.361,13.278 325.600,13.540 325.600 C 13.802 325.600,15.228 326.815,16.708 328.300 C 19.413 331.014,19.875 331.877,21.567 337.400 C 21.836 338.280,22.562 340.080,23.179 341.400 C 24.422 344.060,25.430 346.551,25.790 347.855 C 25.919 348.326,26.765 349.200,27.669 349.798 C 29.782 351.197,31.669 353.092,32.919 355.071 C 33.627 356.193,34.381 356.798,35.555 357.185 C 36.460 357.484,37.200 357.835,37.200 357.966 C 37.200 358.097,37.732 358.440,38.383 358.728 C 39.034 359.016,39.931 359.645,40.378 360.126 C 41.831 361.692,43.199 363.395,43.200 363.639 C 43.200 363.771,43.965 364.220,44.900 364.638 C 47.982 366.016,51.028 368.975,52.455 371.977 C 53.272 373.698,53.616 374.021,55.000 374.364 C 55.880 374.583,57.590 375.043,58.800 375.386 C 64.855 377.106,117.127 376.776,120.000 375.000 C 120.207 374.872,121.855 374.599,123.664 374.393 C 127.817 373.919,129.896 372.222,130.957 368.438 C 132.364 363.423,135.447 360.288,140.400 358.835 C 141.390 358.544,142.722 358.148,143.360 357.953 C 143.998 357.759,145.280 357.600,146.211 357.600 C 148.306 357.600,148.764 357.075,149.058 354.342 C 149.979 345.773,153.612 342.071,162.797 340.344 L 165.794 339.781 166.431 336.390 C 167.775 329.239,170.505 325.563,175.600 324.043 C 176.590 323.748,177.922 323.348,178.560 323.153 C 179.198 322.959,180.390 322.800,181.211 322.800 C 183.095 322.800,183.572 322.213,183.854 319.542 C 184.749 311.060,188.513 307.226,197.600 305.541 L 200.600 304.984 200.746 303.592 C 200.993 301.231,199.943 293.485,199.229 292.400 C 198.867 291.850,198.329 290.860,198.032 290.200 C 197.536 289.096,196.670 287.116,196.595 286.915 C 196.540 286.768,190.351 285.680,187.000 285.227 C 182.764 284.655,165.811 284.659,164.740 285.232 C 163.110 286.104,162.000 287.365,162.000 288.344 C 162.000 294.001,157.545 299.069,151.200 300.632 C 146.920 301.686,145.188 303.233,144.416 306.688 C 142.856 313.669,137.196 318.819,131.101 318.802 C 129.596 318.798,127.365 321.438,126.806 323.886 C 125.017 331.712,120.458 335.116,110.600 335.987 C 88.088 337.975,76.888 337.705,67.279 334.941 C 65.224 334.350,64.502 333.792,61.351 330.360 C 60.665 329.612,59.273 328.412,58.259 327.693 C 54.224 324.833,52.978 322.249,52.042 314.800 C 51.807 312.930,51.431 309.998,51.207 308.284 C 50.643 303.968,50.675 287.147,51.251 285.719 C 53.490 280.158,58.556 273.600,60.613 273.600 C 61.104 273.600,61.204 273.189,61.975 268.000 C 62.961 261.356,64.929 257.461,68.060 255.956 C 71.719 254.198,74.891 253.200,76.822 253.200 C 78.724 253.200,79.103 252.696,79.555 249.569 C 80.798 240.964,84.058 237.716,93.200 235.975 C 96.379 235.370,96.800 235.066,96.800 233.371 C 96.800 225.048,101.975 219.763,111.267 218.595 C 113.607 218.301,113.896 217.942,114.355 214.769 C 115.596 206.178,119.066 202.718,128.000 201.164 C 131.642 200.530,131.716 200.462,133.033 196.540 C 134.173 193.142,135.093 191.601,136.983 189.916 C 138.441 188.616,139.280 188.200,143.200 186.831 C 145.529 186.017,160.289 185.637,190.267 185.618 C 205.923 185.608,218.793 185.465,218.867 185.300 C 218.940 185.135,219.900 184.523,221.000 183.941 C 223.288 182.729,223.214 183.172,222.419 175.400 C 222.194 173.200,221.903 170.016,221.773 168.325 C 221.590 165.942,221.335 165.016,220.640 164.207 C 220.147 163.634,219.226 162.305,218.593 161.254 C 217.579 159.572,216.144 158.400,215.098 158.400 C 213.395 158.400,206.800 151.805,206.800 150.102 C 206.800 147.134,201.822 145.737,190.200 145.445 C 182.301 145.247,169.492 144.629,165.840 144.270 C 164.938 144.181,160.960 144.262,157.000 144.450 " stroke="none" fill="#ffffff" fill-rule="evenodd"></path><path id="path1" d="M-0.000 120.813 L -0.000 241.626 4.463 241.513 L 8.925 241.400 9.655 239.250 C 10.057 238.067,10.541 236.897,10.731 236.650 C 10.921 236.402,11.294 235.300,11.562 234.200 C 11.829 233.100,12.225 231.480,12.443 230.600 C 13.899 224.715,19.324 220.400,25.266 220.400 C 26.580 220.400,28.581 217.880,29.152 215.506 C 29.711 213.181,30.222 211.620,31.025 209.786 C 31.625 208.414,34.489 205.630,36.000 204.950 C 38.305 203.912,39.450 203.532,41.361 203.169 C 43.900 202.688,46.276 200.548,46.630 198.422 C 47.933 190.612,53.172 185.600,60.033 185.600 C 61.418 185.600,63.356 183.214,63.933 180.800 C 65.893 172.595,68.218 170.247,76.200 168.409 C 78.474 167.885,81.200 165.585,81.200 164.190 C 81.200 161.821,83.259 157.152,85.263 154.978 C 87.284 152.785,91.690 150.834,94.720 150.790 C 96.310 150.767,99.053 148.157,99.603 146.142 C 101.038 140.885,103.426 137.632,107.081 135.958 C 110.957 134.183,116.524 133.051,124.600 132.398 C 129.072 132.036,131.044 131.672,133.644 130.728 C 134.384 130.460,134.844 129.860,135.220 128.675 C 136.480 124.699,140.776 120.441,144.948 119.034 C 149.717 117.425,150.301 115.913,150.614 104.370 C 151.049 88.304,153.069 84.654,163.122 81.781 C 166.124 80.923,167.693 79.259,168.411 76.173 C 170.264 68.203,172.604 65.891,180.800 63.933 C 183.214 63.356,185.600 61.418,185.600 60.033 C 185.600 53.172,190.612 47.933,198.422 46.630 C 200.548 46.276,202.688 43.900,203.169 41.361 C 203.532 39.450,203.912 38.305,204.950 36.000 C 206.444 32.681,209.649 30.592,215.400 29.188 C 218.559 28.417,221.522 26.492,221.808 25.025 C 222.350 22.241,224.286 18.596,226.086 16.970 C 228.433 14.850,233.432 12.777,238.200 11.947 C 241.057 11.450,248.086 10.449,251.600 10.039 C 253.250 9.846,254.870 9.594,255.200 9.478 C 255.530 9.362,256.295 9.158,256.900 9.026 L 258.000 8.785 258.000 4.392 L 258.000 0.000 129.000 0.000 L 0.000 0.000 -0.000 120.813 M318.800 4.385 L 318.800 8.769 320.457 9.215 C 321.369 9.461,324.114 9.814,326.557 10.000 C 330.510 10.300,335.149 11.041,342.000 12.465 C 348.239 13.761,352.482 18.027,353.409 23.933 C 353.813 26.502,356.839 28.773,359.885 28.794 C 365.232 28.830,371.200 35.842,371.200 42.088 C 371.200 43.900,373.695 48.345,374.981 48.825 C 384.012 52.196,386.471 56.713,388.383 73.445 C 388.916 78.106,388.934 117.474,388.405 121.323 C 388.187 122.906,387.812 125.640,387.570 127.400 C 386.836 132.742,384.903 138.145,383.514 138.733 C 383.342 138.807,383.200 139.056,383.200 139.286 C 383.200 139.828,381.729 141.107,380.200 141.894 C 379.540 142.234,378.910 142.622,378.800 142.758 C 378.475 143.158,375.815 144.000,374.877 144.000 C 374.255 144.000,373.833 144.423,373.379 145.500 C 372.760 146.972,372.510 148.046,371.604 153.141 C 370.343 160.229,365.182 164.350,357.514 164.394 C 356.192 164.401,355.779 165.110,355.414 168.000 C 354.314 176.712,350.617 180.386,341.916 181.417 C 338.820 181.784,338.329 182.232,337.944 185.043 C 336.976 192.106,335.361 195.141,331.600 196.967 C 330.035 197.727,324.096 199.200,322.599 199.200 C 321.399 199.200,320.971 199.977,320.614 202.800 C 320.144 206.520,319.132 209.421,317.536 211.625 C 315.920 213.856,311.926 215.626,307.200 216.206 C 303.918 216.609,303.342 217.121,303.074 219.877 C 302.174 229.138,296.971 234.000,287.959 234.000 C 286.587 234.000,286.183 234.677,285.814 237.600 C 284.977 244.231,282.398 248.164,278.000 249.518 C 275.157 250.393,273.276 250.800,272.080 250.800 C 269.408 250.800,267.600 252.144,267.600 254.130 C 267.600 254.831,267.147 256.651,266.594 258.177 C 265.681 260.695,265.238 261.450,263.706 263.110 C 262.226 264.713,256.738 266.413,250.600 267.168 C 248.840 267.385,245.420 267.843,243.000 268.185 C 240.580 268.528,237.843 268.806,236.919 268.804 C 233.308 268.795,233.279 268.847,232.450 276.600 C 232.262 278.360,231.995 280.340,231.857 281.000 C 231.719 281.660,231.428 283.818,231.210 285.796 C 230.835 289.204,229.759 293.565,229.187 294.000 C 229.042 294.110,228.806 294.677,228.664 295.261 C 228.028 297.861,223.412 301.143,218.200 302.700 C 217.078 303.035,216.966 303.253,216.479 306.029 C 214.634 316.550,211.901 319.465,202.800 320.614 C 199.977 320.971,199.200 321.399,199.200 322.599 C 199.200 324.096,197.727 330.035,196.967 331.600 C 195.141 335.361,192.106 336.976,185.043 337.944 C 182.232 338.329,181.784 338.820,181.417 341.916 C 180.386 350.617,176.712 354.314,168.000 355.414 C 165.177 355.771,164.400 356.199,164.400 357.399 C 164.400 359.158,162.861 365.009,161.922 366.819 C 160.117 370.300,157.203 371.787,150.334 372.733 C 147.513 373.122,146.801 373.689,146.797 375.549 C 146.794 377.015,145.290 381.950,144.324 383.662 C 143.171 385.707,140.466 387.430,137.400 388.075 C 134.178 388.753,124.541 389.994,122.477 389.997 C 120.455 390.000,113.613 390.661,111.700 391.038 C 110.832 391.209,110.800 391.372,110.800 395.608 L 110.800 400.000 255.400 400.000 L 400.000 400.000 400.000 200.000 L 400.000 0.000 359.400 0.000 L 318.800 0.000 318.800 4.385 M285.300 77.889 C 284.127 78.035,284.000 78.180,284.000 79.378 C 284.000 80.780,281.320 84.000,280.153 84.000 C 279.849 84.000,279.600 84.158,279.600 84.351 C 279.600 84.545,279.060 84.927,278.400 85.200 C 277.740 85.473,277.200 85.855,277.200 86.049 C 277.200 86.242,276.851 86.400,276.424 86.400 C 275.997 86.400,275.536 86.580,275.400 86.800 C 275.264 87.020,274.623 87.200,273.976 87.200 C 273.329 87.200,272.800 87.378,272.800 87.595 C 272.800 87.813,272.075 88.106,271.190 88.248 C 270.071 88.427,269.341 88.840,268.799 89.601 C 267.977 90.756,264.889 92.429,262.200 93.177 C 259.981 93.795,254.423 94.784,253.124 94.793 C 251.756 94.802,251.537 95.182,250.933 98.600 C 250.129 103.154,249.979 103.714,249.069 105.600 C 247.326 109.211,242.179 111.895,236.800 111.998 C 235.149 112.030,234.000 112.788,234.000 113.844 C 234.000 114.483,233.332 117.765,232.533 121.049 C 231.833 123.925,228.011 126.712,223.600 127.563 C 222.170 127.839,220.136 128.230,219.080 128.432 C 218.024 128.634,213.074 128.806,208.080 128.814 C 199.626 128.828,194.981 129.285,194.072 130.195 C 193.716 130.551,194.848 131.187,195.850 131.194 C 196.317 131.197,197.465 131.470,198.400 131.800 C 199.563 132.210,201.676 132.400,205.081 132.400 C 224.907 132.400,230.720 135.382,232.586 146.509 C 232.905 148.406,234.940 150.800,236.236 150.800 C 237.584 150.800,240.800 151.704,240.800 152.083 C 240.800 152.257,241.073 152.400,241.407 152.400 C 243.517 152.400,247.213 157.583,248.394 162.200 C 248.901 164.180,249.649 166.278,250.058 166.862 C 250.466 167.446,250.800 168.037,250.800 168.176 C 250.800 168.315,251.075 168.848,251.411 169.360 L 252.022 170.292 254.811 167.416 C 256.345 165.834,257.600 164.333,257.600 164.082 C 257.600 160.584,263.550 154.541,268.273 153.240 C 269.420 152.925,274.688 147.799,275.021 146.675 C 276.556 141.496,282.599 135.600,286.372 135.600 C 286.971 135.600,292.186 129.987,292.441 129.068 C 293.811 124.145,298.199 119.782,302.929 118.642 C 303.819 118.428,304.269 117.890,305.065 116.090 L 306.074 113.810 305.833 101.205 C 305.499 83.747,305.225 78.264,304.665 77.908 C 304.194 77.608,287.694 77.592,285.300 77.889 M129.867 217.067 C 129.720 217.213,129.600 217.819,129.600 218.412 C 129.600 220.079,128.040 225.952,127.115 227.770 C 125.420 231.101,121.756 232.917,114.800 233.877 C 112.703 234.166,112.036 234.862,111.998 236.800 C 111.895 242.179,109.211 247.326,105.600 249.069 C 103.714 249.979,103.154 250.129,98.600 250.933 C 95.163 251.541,94.800 251.754,94.800 253.169 C 94.800 256.491,92.339 263.455,90.643 264.935 C 88.874 266.477,81.984 268.800,79.179 268.800 C 77.755 268.800,77.506 269.423,77.181 273.800 C 77.035 275.780,76.689 280.010,76.414 283.200 C 75.845 289.795,76.067 307.418,76.771 311.600 C 77.012 313.030,77.342 316.000,77.504 318.200 L 77.800 322.200 85.800 322.319 C 97.044 322.487,97.062 322.484,97.402 319.881 C 97.654 317.955,99.003 315.209,99.700 315.203 C 99.865 315.201,100.000 314.930,100.000 314.600 C 100.000 314.270,100.135 313.997,100.300 313.992 C 100.465 313.988,101.318 313.358,102.196 312.592 C 103.073 311.827,104.031 311.200,104.324 311.200 C 104.617 311.200,105.086 310.971,105.366 310.691 C 105.646 310.411,107.568 309.749,109.637 309.220 C 111.707 308.691,113.670 307.968,114.000 307.615 C 114.330 307.261,115.458 306.279,116.506 305.433 C 117.554 304.587,118.524 303.423,118.663 302.847 C 119.778 298.205,124.182 293.800,129.068 292.441 C 129.987 292.186,135.600 286.971,135.600 286.372 C 135.600 282.932,142.870 275.200,146.104 275.200 C 146.228 275.200,147.677 274.569,149.324 273.797 C 154.399 271.421,158.846 270.776,172.400 270.453 C 181.443 270.237,183.000 270.112,183.000 269.600 C 183.000 269.092,181.647 268.963,174.200 268.756 C 169.132 268.616,164.922 268.319,164.274 268.056 C 163.655 267.805,162.677 267.600,162.102 267.600 C 155.944 267.600,151.335 263.101,149.764 255.555 C 148.975 251.764,148.365 250.800,146.758 250.800 C 146.142 250.800,144.648 250.542,143.437 250.226 C 134.702 247.951,133.431 245.270,131.772 225.600 C 130.990 216.333,130.919 216.015,129.867 217.067 M0.000 377.000 L 0.000 400.000 32.800 400.000 L 65.600 400.000 65.600 395.618 L 65.600 391.236 64.300 391.025 C 63.585 390.908,61.932 390.630,60.627 390.407 C 59.321 390.183,56.621 389.987,54.627 389.971 C 52.632 389.955,50.010 389.779,48.800 389.580 C 47.590 389.381,45.070 389.039,43.200 388.820 C 34.785 387.835,30.722 385.315,29.306 380.200 C 28.318 376.630,28.000 375.275,28.000 374.635 C 28.000 373.488,26.164 372.000,24.747 372.000 C 24.037 372.000,22.859 371.820,22.128 371.600 C 21.398 371.380,20.125 371.005,19.300 370.767 C 14.064 369.255,12.609 367.219,10.747 358.800 C 10.479 357.590,9.917 356.015,9.498 355.300 L 8.735 354.000 4.367 354.000 L 0.000 354.000 0.000 377.000 " stroke="none" fill="#00adcc" fill-rule="evenodd"></path><path id="path2" d="M258.000 4.392 L 258.000 8.785 256.900 9.026 C 256.295 9.158,255.530 9.362,255.200 9.478 C 254.870 9.594,253.250 9.846,251.600 10.039 C 248.086 10.449,241.057 11.450,238.200 11.947 C 233.432 12.777,228.433 14.850,226.086 16.970 C 224.286 18.596,222.350 22.241,221.808 25.025 C 221.522 26.492,218.559 28.417,215.400 29.188 C 209.649 30.592,206.444 32.681,204.950 36.000 C 203.912 38.305,203.532 39.450,203.169 41.361 C 202.688 43.900,200.548 46.276,198.422 46.630 C 190.612 47.933,185.600 53.172,185.600 60.033 C 185.600 61.418,183.214 63.356,180.800 63.933 C 172.604 65.891,170.264 68.203,168.411 76.173 C 167.693 79.259,166.124 80.923,163.122 81.781 C 153.069 84.654,151.049 88.304,150.614 104.370 C 150.301 115.913,149.717 117.425,144.948 119.034 C 140.776 120.441,136.480 124.699,135.220 128.675 C 134.844 129.860,134.384 130.460,133.644 130.728 C 131.044 131.672,129.072 132.036,124.600 132.398 C 116.524 133.051,110.957 134.183,107.081 135.958 C 103.426 137.632,101.038 140.885,99.603 146.142 C 99.053 148.157,96.310 150.767,94.720 150.790 C 91.690 150.834,87.284 152.785,85.263 154.978 C 83.259 157.152,81.200 161.821,81.200 164.190 C 81.200 165.585,78.474 167.885,76.200 168.409 C 68.218 170.247,65.893 172.595,63.933 180.800 C 63.356 183.214,61.418 185.600,60.033 185.600 C 53.172 185.600,47.933 190.612,46.630 198.422 C 46.276 200.548,43.900 202.688,41.361 203.169 C 39.450 203.532,38.305 203.912,36.000 204.950 C 32.666 206.451,30.543 209.723,29.152 215.506 C 28.581 217.880,26.580 220.400,25.266 220.400 C 19.324 220.400,13.899 224.715,12.443 230.600 C 12.225 231.480,11.829 233.100,11.562 234.200 C 11.294 235.300,10.921 236.402,10.731 236.650 C 10.541 236.897,10.057 238.067,9.655 239.250 L 8.925 241.400 4.463 241.513 L 0.000 241.626 0.000 248.013 L 0.000 254.400 4.366 254.400 L 8.731 254.400 9.876 252.500 C 10.505 251.455,11.442 249.340,11.958 247.800 C 12.474 246.260,13.252 244.190,13.688 243.200 C 14.123 242.210,14.620 241.040,14.791 240.600 C 17.399 233.896,21.201 228.840,25.153 226.824 C 27.235 225.762,34.456 218.533,35.380 216.585 C 36.338 214.568,40.428 210.492,42.969 209.023 C 45.636 207.482,50.615 202.435,52.932 198.923 C 55.015 195.767,57.969 192.886,60.214 191.820 C 62.064 190.942,69.311 183.616,70.216 181.710 C 70.938 180.189,74.182 176.735,76.154 175.388 C 81.388 171.814,85.092 168.219,87.550 164.327 C 89.576 161.118,92.166 158.644,95.600 156.634 C 97.030 155.797,98.290 154.990,98.400 154.842 C 98.510 154.693,100.220 153.335,102.200 151.823 C 104.180 150.311,106.340 148.438,107.000 147.660 C 110.010 144.111,112.150 142.226,114.826 140.767 C 115.802 140.235,116.690 139.682,116.800 139.539 C 117.062 139.196,121.413 137.608,123.200 137.203 C 123.970 137.029,126.400 136.508,128.600 136.046 C 137.989 134.075,145.368 131.449,147.518 129.312 C 148.023 128.811,148.602 128.400,148.805 128.400 C 150.259 128.400,153.821 122.852,154.712 119.200 C 155.756 114.917,156.000 113.548,156.000 111.968 C 156.000 109.118,157.516 96.588,158.014 95.327 C 158.591 93.863,160.996 91.219,163.223 89.600 C 166.109 87.502,171.874 81.402,173.888 78.314 C 176.314 74.596,179.558 71.237,181.710 70.216 C 183.616 69.311,190.942 62.064,191.820 60.214 C 192.886 57.969,195.767 55.015,198.923 52.932 C 202.426 50.621,207.475 45.644,209.031 42.969 C 210.669 40.154,214.209 36.685,217.000 35.162 C 218.320 34.441,219.638 33.615,219.929 33.326 C 220.219 33.037,220.597 32.800,220.767 32.800 C 221.039 32.800,221.523 32.446,223.438 30.850 C 223.678 30.649,224.426 30.200,225.100 29.852 C 225.773 29.504,226.566 28.984,226.862 28.696 C 227.158 28.409,228.030 27.733,228.800 27.194 C 229.570 26.656,231.460 24.980,233.000 23.471 C 234.540 21.961,236.610 20.263,237.600 19.696 C 238.590 19.129,239.670 18.447,240.000 18.182 C 240.330 17.916,241.320 17.459,242.200 17.166 C 243.080 16.873,243.980 16.515,244.200 16.371 C 244.652 16.074,250.180 14.711,253.800 14.004 C 256.043 13.566,256.951 13.373,261.600 12.347 C 264.570 11.691,268.934 10.494,272.700 9.300 L 274.800 8.634 274.800 4.317 L 274.800 0.000 266.400 0.000 L 258.000 0.000 258.000 4.392 M306.000 4.365 L 306.000 8.730 308.700 9.756 C 314.795 12.071,318.184 12.972,325.400 14.195 C 326.280 14.344,327.450 14.611,328.000 14.787 C 328.550 14.963,329.810 15.334,330.800 15.611 C 338.869 17.871,342.332 19.947,345.794 24.600 C 347.314 26.643,349.028 28.353,350.800 29.593 C 351.570 30.133,352.470 30.837,352.800 31.159 C 353.130 31.482,354.750 32.611,356.400 33.668 C 358.050 34.726,359.617 35.774,359.883 35.996 C 360.149 36.218,360.472 36.400,360.601 36.400 C 360.955 36.400,362.499 38.032,363.545 39.513 C 364.055 40.235,366.509 44.874,368.998 49.822 C 371.613 55.022,374.144 59.505,374.995 60.447 C 376.548 62.166,379.600 66.686,379.600 67.266 C 379.600 67.455,379.935 68.372,380.345 69.304 C 381.753 72.507,382.349 74.204,382.769 76.200 C 384.017 82.136,384.475 111.777,383.382 115.880 C 383.043 117.156,382.609 118.920,382.419 119.800 C 381.691 123.176,378.240 131.200,377.516 131.200 C 377.342 131.200,377.200 131.388,377.200 131.618 C 377.200 132.064,375.404 134.000,374.990 134.000 C 374.234 134.000,372.084 137.897,370.023 143.000 C 369.845 143.440,369.497 144.303,369.250 144.919 C 369.002 145.534,368.800 146.310,368.800 146.643 C 368.800 150.306,363.164 157.296,358.668 159.208 C 356.230 160.245,351.200 164.590,351.200 165.658 C 351.200 166.531,348.479 171.560,347.478 172.537 C 345.317 174.648,341.119 177.200,339.809 177.200 C 339.046 177.200,334.000 182.173,334.000 182.925 C 334.000 184.352,331.044 189.047,328.870 191.072 C 327.621 192.236,322.885 194.800,321.985 194.800 C 321.376 194.800,316.400 199.850,316.400 200.468 C 316.400 202.066,311.712 209.200,310.662 209.200 C 310.571 209.200,309.451 209.830,308.172 210.600 C 306.893 211.370,305.521 212.000,305.124 212.000 C 304.726 212.000,304.400 212.180,304.400 212.400 C 304.400 212.620,304.182 212.800,303.915 212.800 C 303.286 212.800,299.200 217.116,299.200 217.780 C 299.200 221.289,290.804 229.600,287.260 229.600 C 286.534 229.600,281.600 234.757,281.600 235.516 C 281.600 237.741,277.080 243.267,273.897 244.934 C 270.814 246.549,270.820 246.545,268.006 247.997 C 266.579 248.734,264.869 249.845,264.206 250.466 C 263.542 251.088,262.873 251.597,262.719 251.598 C 262.564 251.599,262.133 252.243,261.760 253.028 C 260.732 255.194,256.891 258.960,254.210 260.430 C 251.936 261.677,251.118 261.937,246.700 262.820 C 242.036 263.752,240.436 264.036,238.000 264.362 C 235.058 264.757,229.827 266.436,227.892 267.608 C 227.181 268.038,226.192 268.569,225.693 268.788 C 224.245 269.423,223.962 270.911,223.716 279.195 L 223.484 287.000 222.242 288.799 C 221.559 289.788,220.460 291.098,219.800 291.710 C 216.954 294.350,216.403 294.962,216.155 295.758 C 216.010 296.221,215.779 296.690,215.641 296.800 C 215.298 297.073,213.791 300.284,213.201 302.000 C 211.483 306.994,209.820 310.113,207.727 312.264 C 206.439 313.589,201.504 316.400,200.468 316.400 C 199.850 316.400,194.800 321.376,194.800 321.985 C 194.800 322.885,192.236 327.621,191.072 328.870 C 189.047 331.044,184.352 334.000,182.925 334.000 C 182.173 334.000,177.200 339.046,177.200 339.809 C 177.200 341.119,174.648 345.317,172.537 347.478 C 171.560 348.479,166.531 351.200,165.658 351.200 C 165.062 351.200,160.000 356.234,160.000 356.827 C 160.000 359.215,155.508 365.068,152.419 366.703 C 149.676 368.155,148.668 368.671,147.502 369.218 C 145.613 370.104,142.837 373.099,141.723 375.454 C 140.543 377.945,137.117 381.893,135.339 382.811 C 134.712 383.134,134.110 383.489,134.000 383.599 C 133.444 384.157,130.621 384.850,127.400 385.219 C 125.420 385.446,122.488 385.805,120.884 386.016 C 119.280 386.227,116.940 386.403,115.684 386.406 C 114.428 386.410,112.050 386.756,110.400 387.177 C 104.841 388.593,103.005 389.112,101.800 389.607 C 99.945 390.369,99.062 390.708,98.300 390.951 C 97.689 391.146,97.600 391.737,97.600 395.587 L 97.600 400.000 104.200 400.000 L 110.800 400.000 110.800 395.608 C 110.800 391.372,110.832 391.209,111.700 391.038 C 113.613 390.661,120.455 390.000,122.477 389.997 C 124.541 389.994,134.178 388.753,137.400 388.075 C 140.466 387.430,143.171 385.707,144.324 383.662 C 145.290 381.950,146.794 377.015,146.797 375.549 C 146.801 373.689,147.513 373.122,150.334 372.733 C 157.203 371.787,160.117 370.300,161.922 366.819 C 162.861 365.009,164.400 359.158,164.400 357.399 C 164.400 356.199,165.177 355.771,168.000 355.414 C 176.712 354.314,180.386 350.617,181.417 341.916 C 181.784 338.820,182.232 338.329,185.043 337.944 C 192.106 336.976,195.141 335.361,196.967 331.600 C 197.727 330.035,199.200 324.096,199.200 322.599 C 199.200 321.399,199.977 320.971,202.800 320.614 C 211.901 319.465,214.634 316.550,216.479 306.029 C 216.966 303.253,217.078 303.035,218.200 302.700 C 223.412 301.143,228.028 297.861,228.664 295.261 C 228.806 294.677,229.042 294.110,229.187 294.000 C 229.759 293.565,230.835 289.204,231.210 285.796 C 231.428 283.818,231.719 281.660,231.857 281.000 C 231.995 280.340,232.262 278.360,232.450 276.600 C 233.279 268.847,233.308 268.795,236.919 268.804 C 237.843 268.806,240.580 268.528,243.000 268.185 C 245.420 267.843,248.840 267.385,250.600 267.168 C 256.738 266.413,262.226 264.713,263.706 263.110 C 265.238 261.450,265.681 260.695,266.594 258.177 C 267.147 256.651,267.600 254.831,267.600 254.130 C 267.600 252.144,269.408 250.800,272.080 250.800 C 273.276 250.800,275.157 250.393,278.000 249.518 C 282.398 248.164,284.977 244.231,285.814 237.600 C 286.183 234.677,286.587 234.000,287.959 234.000 C 296.971 234.000,302.174 229.138,303.074 219.877 C 303.342 217.121,303.918 216.609,307.200 216.206 C 315.896 215.139,319.512 211.525,320.614 202.800 C 320.971 199.977,321.399 199.200,322.599 199.200 C 324.096 199.200,330.035 197.727,331.600 196.967 C 335.361 195.141,336.976 192.106,337.944 185.043 C 338.329 182.232,338.820 181.784,341.916 181.417 C 350.617 180.386,354.314 176.712,355.414 168.000 C 355.779 165.110,356.192 164.401,357.514 164.394 C 365.182 164.350,370.343 160.229,371.604 153.141 C 372.510 148.046,372.760 146.972,373.379 145.500 C 373.833 144.423,374.255 144.000,374.877 144.000 C 375.815 144.000,378.475 143.158,378.800 142.758 C 378.910 142.622,379.540 142.234,380.200 141.894 C 381.729 141.107,383.200 139.828,383.200 139.286 C 383.200 139.056,383.342 138.807,383.514 138.733 C 384.903 138.145,386.836 132.742,387.570 127.400 C 387.812 125.640,388.187 122.906,388.405 121.323 C 388.934 117.474,388.916 78.106,388.383 73.445 C 386.471 56.713,384.012 52.196,374.981 48.825 C 373.695 48.345,371.200 43.900,371.200 42.088 C 371.200 35.842,365.232 28.830,359.885 28.794 C 356.839 28.773,353.813 26.502,353.409 23.933 C 352.482 18.027,348.239 13.761,342.000 12.465 C 335.149 11.041,330.510 10.300,326.557 10.000 C 324.114 9.814,321.369 9.461,320.457 9.215 L 318.800 8.769 318.800 4.385 L 318.800 0.000 312.400 0.000 L 306.000 0.000 306.000 4.365 M283.200 74.403 C 281.770 74.555,279.520 74.893,278.200 75.155 C 276.880 75.416,274.931 75.804,273.869 76.015 C 272.808 76.227,271.413 76.400,270.769 76.400 C 270.126 76.400,269.600 76.550,269.600 76.732 C 269.600 76.915,269.195 77.284,268.700 77.551 C 268.205 77.819,267.350 78.964,266.800 80.097 C 264.712 84.396,259.310 88.541,253.577 90.244 C 251.023 91.002,246.800 95.073,246.800 96.776 C 246.800 97.198,246.575 97.781,246.300 98.071 C 246.025 98.362,245.360 99.410,244.823 100.400 C 243.120 103.538,237.914 107.600,235.594 107.600 C 234.676 107.600,229.600 112.571,229.600 113.470 C 229.600 113.927,229.272 114.588,227.538 117.634 C 226.733 119.047,224.453 121.139,222.370 122.376 C 219.264 124.220,218.779 124.310,210.400 124.593 C 195.908 125.083,185.833 126.621,180.200 129.203 L 177.800 130.303 179.298 130.956 C 181.221 131.794,187.199 133.433,191.600 134.328 C 197.519 135.533,197.814 135.578,207.901 136.813 C 211.854 137.298,215.148 137.897,217.178 138.503 C 219.868 139.305,224.782 143.435,226.054 145.962 C 226.651 147.150,228.825 150.501,229.193 150.800 C 229.328 150.910,229.863 151.630,230.381 152.400 C 231.341 153.826,234.527 157.002,238.609 160.600 C 240.541 162.304,241.256 163.369,243.441 167.800 C 245.812 172.609,248.132 176.720,248.745 177.200 C 248.885 177.310,249.704 178.276,250.565 179.346 L 252.129 181.292 252.723 180.146 C 253.049 179.516,253.426 178.910,253.559 178.800 C 253.693 178.690,254.454 177.610,255.251 176.400 C 256.683 174.225,260.080 170.400,260.579 170.400 C 260.720 170.400,261.253 169.995,261.763 169.500 C 262.273 169.005,263.029 168.381,263.445 168.114 C 268.607 164.791,269.440 164.085,270.663 162.000 C 271.372 160.790,272.099 159.620,272.279 159.400 C 272.459 159.180,272.896 158.550,273.250 158.000 C 274.415 156.190,278.557 152.317,281.000 150.753 C 282.320 149.908,283.617 149.033,283.883 148.808 C 284.149 148.584,284.535 148.400,284.742 148.400 C 285.272 148.400,287.477 145.816,287.792 144.826 C 287.936 144.372,288.222 144.000,288.427 144.000 C 288.632 144.000,288.800 143.808,288.800 143.573 C 288.800 143.195,289.718 141.845,291.600 139.454 C 293.338 137.246,296.752 134.187,298.231 133.513 C 298.764 133.270,299.200 132.920,299.200 132.736 C 299.200 132.551,299.392 132.400,299.627 132.400 C 300.042 132.400,302.332 130.809,303.657 129.600 C 304.575 128.762,306.000 126.120,306.000 125.255 C 306.000 124.858,306.119 124.414,306.265 124.268 C 306.700 123.833,308.012 120.011,308.828 116.800 C 309.713 113.319,309.884 99.323,309.196 86.800 C 308.732 78.358,308.652 78.041,306.429 75.785 L 304.670 74.000 295.235 74.063 C 290.046 74.098,284.630 74.250,283.200 74.403 M304.665 77.908 C 305.225 78.264,305.499 83.747,305.833 101.205 L 306.074 113.810 305.065 116.090 C 304.269 117.890,303.819 118.428,302.929 118.642 C 298.199 119.782,293.811 124.145,292.441 129.068 C 292.186 129.987,286.971 135.600,286.372 135.600 C 282.599 135.600,276.556 141.496,275.021 146.675 C 274.688 147.799,269.420 152.925,268.273 153.240 C 263.550 154.541,257.600 160.584,257.600 164.082 C 257.600 164.333,256.345 165.834,254.811 167.416 L 252.022 170.292 251.411 169.360 C 251.075 168.848,250.800 168.315,250.800 168.176 C 250.800 168.037,250.466 167.446,250.058 166.862 C 249.649 166.278,248.901 164.180,248.394 162.200 C 247.213 157.583,243.517 152.400,241.407 152.400 C 241.073 152.400,240.800 152.257,240.800 152.083 C 240.800 151.704,237.584 150.800,236.236 150.800 C 234.940 150.800,232.905 148.406,232.586 146.509 C 230.720 135.382,224.907 132.400,205.081 132.400 C 201.676 132.400,199.563 132.210,198.400 131.800 C 197.465 131.470,196.317 131.197,195.850 131.194 C 194.848 131.187,193.716 130.551,194.072 130.195 C 194.981 129.285,199.626 128.828,208.080 128.814 C 213.074 128.806,218.024 128.634,219.080 128.432 C 220.136 128.230,222.170 127.839,223.600 127.563 C 228.011 126.712,231.833 123.925,232.533 121.049 C 233.332 117.765,234.000 114.483,234.000 113.844 C 234.000 112.788,235.149 112.030,236.800 111.998 C 242.179 111.895,247.326 109.211,249.069 105.600 C 249.979 103.714,250.129 103.154,250.933 98.600 C 251.537 95.182,251.756 94.802,253.124 94.793 C 254.423 94.784,259.981 93.795,262.200 93.177 C 264.889 92.429,267.977 90.756,268.799 89.601 C 269.341 88.840,270.071 88.427,271.190 88.248 C 272.075 88.106,272.800 87.813,272.800 87.595 C 272.800 87.378,273.329 87.200,273.976 87.200 C 274.623 87.200,275.264 87.020,275.400 86.800 C 275.536 86.580,275.997 86.400,276.424 86.400 C 276.851 86.400,277.200 86.242,277.200 86.049 C 277.200 85.855,277.740 85.473,278.400 85.200 C 279.060 84.927,279.600 84.545,279.600 84.351 C 279.600 84.158,279.849 84.000,280.153 84.000 C 281.320 84.000,284.000 80.780,284.000 79.378 C 284.000 78.180,284.127 78.035,285.300 77.889 C 287.694 77.592,304.194 77.608,304.665 77.908 M129.143 213.380 C 127.314 214.623,126.079 216.316,124.192 220.165 C 121.991 224.655,116.349 229.600,113.426 229.600 C 112.561 229.600,107.600 234.704,107.600 235.594 C 107.600 237.914,103.538 243.120,100.400 244.823 C 99.410 245.360,98.362 246.025,98.071 246.300 C 97.781 246.575,97.198 246.800,96.776 246.800 C 95.348 246.800,91.200 250.780,90.413 252.906 C 90.149 253.618,89.774 254.470,89.578 254.800 C 89.382 255.130,88.920 255.999,88.551 256.731 C 87.126 259.556,80.839 264.400,78.598 264.400 C 78.328 264.400,77.110 265.358,75.891 266.530 C 73.358 268.964,73.074 269.731,72.390 276.000 C 72.138 278.310,71.755 281.010,71.539 282.000 C 70.933 284.779,70.671 301.223,71.154 306.200 C 71.389 308.620,71.778 312.670,72.020 315.200 C 72.658 321.892,72.669 321.920,75.621 324.130 L 78.198 326.060 87.999 325.887 C 96.592 325.736,98.047 325.616,99.800 324.918 C 100.900 324.480,102.160 323.988,102.600 323.825 C 106.146 322.507,107.293 321.882,109.992 319.800 C 111.417 318.700,113.127 317.192,113.792 316.448 C 116.060 313.911,117.937 312.000,118.161 312.000 C 118.285 312.000,119.041 311.363,119.843 310.585 C 121.311 309.159,124.525 306.800,125.000 306.800 C 125.376 306.800,128.901 304.374,129.600 303.634 C 130.740 302.427,132.400 300.052,132.400 299.627 C 132.400 299.392,132.551 299.200,132.736 299.200 C 132.920 299.200,133.270 298.764,133.513 298.231 C 134.187 296.752,137.246 293.338,139.454 291.600 C 141.512 289.980,143.171 288.800,143.390 288.800 C 143.524 288.800,143.851 288.609,144.117 288.376 C 144.383 288.143,145.188 287.604,145.907 287.178 C 146.626 286.752,147.796 285.547,148.507 284.502 C 150.412 281.698,153.195 279.140,155.641 277.944 C 161.497 275.078,163.939 274.396,168.325 274.398 C 170.374 274.399,174.694 274.213,177.925 273.984 C 184.458 273.521,185.418 273.283,190.100 270.968 C 192.851 269.608,192.847 269.623,190.700 268.546 C 185.601 265.987,183.607 265.404,177.200 264.599 C 167.854 263.425,167.039 263.304,165.336 262.841 C 162.435 262.052,156.000 256.598,156.000 254.928 C 156.000 254.638,155.856 254.400,155.680 254.400 C 155.505 254.400,155.141 253.793,154.873 253.051 C 154.443 251.861,152.182 249.454,149.183 246.993 C 148.642 246.550,147.159 245.678,145.887 245.057 C 140.501 242.428,137.594 237.850,136.829 230.789 C 136.556 228.265,136.168 224.996,135.966 223.523 C 135.765 222.051,135.600 220.019,135.600 219.006 C 135.600 217.994,135.423 216.949,135.206 216.683 C 134.989 216.417,134.378 215.660,133.847 215.000 C 132.004 212.709,130.761 212.281,129.143 213.380 M130.969 217.300 C 131.049 217.575,131.410 221.310,131.772 225.600 C 133.431 245.270,134.702 247.951,143.437 250.226 C 144.648 250.542,146.142 250.800,146.758 250.800 C 148.365 250.800,148.975 251.764,149.764 255.555 C 151.335 263.101,155.944 267.600,162.102 267.600 C 162.677 267.600,163.655 267.805,164.274 268.056 C 164.922 268.319,169.132 268.616,174.200 268.756 C 181.647 268.963,183.000 269.092,183.000 269.600 C 183.000 270.112,181.443 270.237,172.400 270.453 C 158.846 270.776,154.399 271.421,149.324 273.797 C 147.677 274.569,146.228 275.200,146.104 275.200 C 142.870 275.200,135.600 282.932,135.600 286.372 C 135.600 286.971,129.987 292.186,129.068 292.441 C 124.182 293.800,119.778 298.205,118.663 302.847 C 118.524 303.423,117.554 304.587,116.506 305.433 C 115.458 306.279,114.330 307.261,114.000 307.615 C 113.670 307.968,111.707 308.691,109.637 309.220 C 107.568 309.749,105.646 310.411,105.366 310.691 C 105.086 310.971,104.617 311.200,104.324 311.200 C 104.031 311.200,103.073 311.827,102.196 312.592 C 101.318 313.358,100.465 313.988,100.300 313.992 C 100.135 313.997,100.000 314.270,100.000 314.600 C 100.000 314.930,99.865 315.201,99.700 315.203 C 99.003 315.209,97.654 317.955,97.402 319.881 C 97.062 322.484,97.044 322.487,85.800 322.319 L 77.800 322.200 77.504 318.200 C 77.342 316.000,77.012 313.030,76.771 311.600 C 76.067 307.418,75.845 289.795,76.414 283.200 C 76.689 280.010,77.035 275.780,77.181 273.800 C 77.506 269.423,77.755 268.800,79.179 268.800 C 81.984 268.800,88.874 266.477,90.643 264.935 C 92.339 263.455,94.800 256.491,94.800 253.169 C 94.800 251.754,95.163 251.541,98.600 250.933 C 103.154 250.129,103.714 249.979,105.600 249.069 C 109.211 247.326,111.895 242.179,111.998 236.800 C 112.036 234.862,112.703 234.166,114.800 233.877 C 121.756 232.917,125.420 231.101,127.115 227.770 C 128.040 225.952,129.600 220.079,129.600 218.412 C 129.600 216.919,130.620 216.090,130.969 217.300 M0.000 350.400 L 0.000 354.000 4.367 354.000 L 8.735 354.000 9.498 355.300 C 9.917 356.015,10.479 357.590,10.747 358.800 C 12.619 367.264,14.036 369.230,19.400 370.803 C 20.280 371.061,21.553 371.436,22.228 371.636 C 22.904 371.836,24.037 372.000,24.747 372.000 C 26.164 372.000,28.000 373.488,28.000 374.635 C 28.000 375.275,28.318 376.630,29.306 380.200 C 30.722 385.315,34.785 387.835,43.200 388.820 C 45.070 389.039,47.590 389.381,48.800 389.580 C 50.010 389.779,52.632 389.955,54.627 389.971 C 56.621 389.987,59.321 390.183,60.627 390.407 C 61.932 390.630,63.585 390.908,64.300 391.025 L 65.600 391.236 65.600 395.618 L 65.600 400.000 78.000 400.000 L 90.400 400.000 90.400 395.600 C 90.400 393.180,90.265 391.190,90.100 391.178 C 89.935 391.167,88.360 390.978,86.600 390.759 C 84.840 390.540,82.320 390.268,81.000 390.154 C 79.680 390.040,78.148 389.775,77.595 389.564 C 77.043 389.354,75.693 389.027,74.595 388.838 C 72.585 388.492,67.443 387.510,63.869 386.789 C 62.808 386.575,61.242 386.400,60.389 386.400 C 59.537 386.400,57.976 386.237,56.920 386.039 C 55.864 385.840,53.470 385.472,51.600 385.220 C 41.839 383.906,38.691 382.488,35.573 378.000 C 35.038 377.230,34.500 376.510,34.377 376.400 C 34.255 376.290,33.917 375.613,33.627 374.896 C 32.638 372.451,27.752 368.095,23.953 366.271 C 20.226 364.482,18.002 362.029,15.188 356.600 C 13.820 353.960,12.587 351.710,12.449 351.600 C 12.311 351.490,11.412 350.365,10.450 349.100 L 8.703 346.800 4.351 346.800 L 0.000 346.800 0.000 350.400 " stroke="none" fill="#34bcd6" fill-rule="evenodd"></path><path id="path3" d="M274.800 4.317 L 274.800 8.634 272.700 9.300 C 266.747 11.186,261.374 12.524,253.800 14.004 C 250.180 14.711,244.652 16.074,244.200 16.371 C 243.980 16.515,243.080 16.873,242.200 17.166 C 241.320 17.459,240.330 17.916,240.000 18.182 C 239.670 18.447,238.590 19.129,237.600 19.696 C 236.610 20.263,234.540 21.961,233.000 23.471 C 231.460 24.980,229.570 26.656,228.800 27.194 C 228.030 27.733,227.158 28.409,226.862 28.696 C 226.566 28.984,225.773 29.504,225.100 29.852 C 224.426 30.200,223.678 30.649,223.438 30.850 C 221.523 32.446,221.039 32.800,220.767 32.800 C 220.597 32.800,220.219 33.037,219.929 33.326 C 219.638 33.615,218.320 34.441,217.000 35.162 C 214.209 36.685,210.669 40.154,209.031 42.969 C 207.475 45.644,202.426 50.621,198.923 52.932 C 195.767 55.015,192.886 57.969,191.820 60.214 C 190.942 62.064,183.616 69.311,181.710 70.216 C 179.558 71.237,176.314 74.596,173.888 78.314 C 171.874 81.402,166.109 87.502,163.223 89.600 C 160.996 91.219,158.591 93.863,158.014 95.327 C 157.516 96.588,156.000 109.118,156.000 111.968 C 156.000 113.548,155.756 114.917,154.712 119.200 C 153.821 122.852,150.259 128.400,148.805 128.400 C 148.602 128.400,148.023 128.811,147.518 129.312 C 145.368 131.449,137.989 134.075,128.600 136.046 C 126.400 136.508,123.970 137.029,123.200 137.203 C 121.413 137.608,117.062 139.196,116.800 139.539 C 116.690 139.682,115.802 140.235,114.826 140.767 C 112.150 142.226,110.010 144.111,107.000 147.660 C 106.340 148.438,104.180 150.311,102.200 151.823 C 100.220 153.335,98.510 154.693,98.400 154.842 C 98.290 154.990,97.030 155.797,95.600 156.634 C 92.166 158.644,89.576 161.118,87.550 164.327 C 85.092 168.219,81.388 171.814,76.154 175.388 C 74.182 176.735,70.938 180.189,70.216 181.710 C 69.311 183.616,62.064 190.942,60.214 191.820 C 57.969 192.886,55.015 195.767,52.932 198.923 C 50.615 202.435,45.636 207.482,42.969 209.023 C 40.428 210.492,36.338 214.568,35.380 216.585 C 34.456 218.533,27.235 225.762,25.153 226.824 C 21.201 228.840,17.399 233.896,14.791 240.600 C 14.620 241.040,14.123 242.210,13.688 243.200 C 13.252 244.190,12.474 246.260,11.958 247.800 C 11.442 249.340,10.505 251.455,9.876 252.500 L 8.731 254.400 4.366 254.400 L 0.000 254.400 0.000 259.000 L 0.000 263.600 4.300 263.600 C 8.348 263.599,8.670 263.538,9.800 262.565 C 10.460 261.996,11.195 261.411,11.434 261.265 C 12.112 260.850,15.791 255.156,16.387 253.600 C 17.282 251.261,20.713 243.937,22.290 241.000 C 22.526 240.560,23.138 239.352,23.650 238.316 C 24.840 235.908,26.061 234.560,28.800 232.628 C 30.010 231.775,31.060 230.924,31.133 230.738 C 31.207 230.552,31.451 230.400,31.677 230.400 C 32.132 230.400,36.955 225.600,39.315 222.798 C 41.061 220.725,41.043 220.749,42.506 218.500 C 43.114 217.565,43.755 216.800,43.930 216.800 C 44.106 216.800,44.598 216.485,45.025 216.100 C 45.451 215.715,46.333 215.130,46.985 214.800 C 48.826 213.867,56.473 206.095,58.397 203.200 C 60.423 200.151,60.757 199.804,63.400 198.007 C 66.536 195.874,71.647 191.092,74.102 187.991 C 74.708 187.226,75.563 186.167,76.002 185.639 C 76.441 185.110,76.800 184.568,76.800 184.435 C 76.800 183.759,80.213 180.724,82.031 179.784 C 84.056 178.737,91.268 171.295,93.541 167.906 C 94.780 166.059,96.129 164.547,96.889 164.154 C 97.588 163.792,98.408 163.250,98.709 162.948 C 99.010 162.647,99.397 162.400,99.567 162.400 C 99.839 162.400,100.301 162.063,102.231 160.456 C 102.469 160.258,103.385 159.641,104.267 159.084 C 105.150 158.526,106.130 157.830,106.446 157.535 C 106.762 157.241,107.825 156.378,108.810 155.618 C 111.165 153.800,112.896 152.275,115.639 149.600 C 119.651 145.688,122.001 144.178,127.600 141.911 C 128.150 141.689,128.913 141.348,129.295 141.153 C 129.677 140.959,130.518 140.800,131.164 140.800 C 131.810 140.800,133.298 140.612,134.469 140.381 C 138.970 139.497,142.691 138.695,145.000 138.113 C 146.320 137.780,148.030 137.434,148.800 137.345 C 151.434 137.041,156.199 136.336,158.000 135.986 C 164.591 134.702,165.356 134.663,167.830 135.492 C 170.817 136.494,173.318 137.046,181.000 138.399 C 182.100 138.593,184.440 139.026,186.200 139.362 C 187.960 139.698,190.570 140.086,192.000 140.225 C 198.238 140.830,201.104 141.186,202.600 141.539 C 203.480 141.748,204.830 142.041,205.600 142.193 C 206.370 142.344,207.450 142.618,208.000 142.802 C 208.550 142.985,210.805 143.703,213.011 144.396 C 217.708 145.870,218.858 146.762,220.758 150.400 C 222.085 152.940,224.143 156.171,224.981 157.029 C 225.211 157.265,225.940 158.153,226.600 159.002 C 227.260 159.851,228.798 161.547,230.019 162.773 C 232.193 164.956,232.657 165.773,233.550 169.000 C 235.155 174.794,236.723 179.360,237.879 181.600 C 239.103 183.972,238.416 188.799,236.853 188.802 C 236.274 188.803,234.990 189.349,234.000 190.015 C 231.578 191.646,230.210 192.225,227.600 192.726 C 226.390 192.958,224.441 193.340,223.269 193.574 C 221.855 193.857,208.783 194.000,184.369 194.000 C 161.894 194.000,147.600 194.145,147.600 194.373 C 147.600 194.578,147.239 194.861,146.799 195.000 C 146.358 195.140,145.008 196.244,143.799 197.453 L 141.600 199.652 141.606 202.326 C 141.609 203.797,141.774 205.255,141.971 205.566 C 142.394 206.235,215.028 206.270,220.400 205.603 C 222.050 205.399,225.200 205.037,227.400 204.799 C 235.270 203.947,234.729 204.109,236.865 201.973 L 238.827 200.011 238.730 195.222 C 238.612 189.402,237.845 190.014,245.438 189.875 C 252.726 189.742,253.440 189.481,256.725 185.756 C 258.579 183.653,258.620 183.600,259.769 181.813 C 261.202 179.584,266.595 174.310,269.400 172.394 C 273.028 169.917,274.405 168.543,276.812 165.000 C 277.559 163.900,278.537 162.609,278.985 162.131 C 279.433 161.653,280.267 160.753,280.838 160.131 C 282.508 158.312,284.826 156.334,287.627 154.337 C 290.599 152.218,292.732 149.946,294.702 146.800 C 295.941 144.822,301.751 139.230,304.600 137.272 C 310.237 133.399,311.385 131.562,313.148 123.600 C 314.571 117.175,314.600 116.632,314.558 97.600 L 314.516 78.600 313.444 76.486 C 312.206 74.044,310.239 71.925,307.400 69.974 L 305.400 68.600 297.315 68.477 C 287.652 68.331,270.871 69.392,268.787 70.282 C 267.796 70.705,263.996 73.441,263.600 74.017 C 263.103 74.739,261.277 77.080,260.000 78.633 C 258.784 80.110,257.839 80.957,254.772 83.317 C 254.427 83.583,252.897 84.427,251.372 85.193 C 246.844 87.468,244.184 90.043,242.000 94.266 C 240.541 97.085,236.998 100.973,234.970 101.981 C 232.218 103.347,228.306 106.179,227.296 107.535 C 226.696 108.341,226.114 109.090,226.002 109.200 C 225.729 109.470,225.017 110.671,223.987 112.600 C 222.991 114.463,220.833 116.791,218.787 118.209 C 217.397 119.173,198.416 120.552,197.167 119.780 C 196.978 119.663,189.779 119.495,181.169 119.407 C 172.558 119.319,165.436 119.169,165.341 119.074 C 164.056 117.789,163.270 112.377,163.972 109.646 C 164.176 108.851,164.555 107.120,164.814 105.800 C 165.072 104.480,165.433 103.040,165.615 102.600 C 165.798 102.160,166.127 101.170,166.346 100.400 C 166.566 99.630,166.970 98.224,167.245 97.276 C 167.630 95.944,168.663 94.622,171.790 91.457 C 174.015 89.204,176.368 86.650,177.018 85.781 C 177.668 84.912,178.486 83.882,178.836 83.494 C 179.186 83.105,179.726 82.297,180.036 81.699 C 180.910 80.014,183.795 76.800,184.435 76.800 C 184.568 76.800,185.110 76.441,185.639 76.002 C 186.167 75.563,187.226 74.708,187.991 74.102 C 191.092 71.647,195.874 66.536,198.007 63.400 C 199.804 60.757,200.151 60.423,203.200 58.397 C 206.095 56.473,213.867 48.826,214.800 46.985 C 215.130 46.333,215.715 45.451,216.100 45.025 C 216.485 44.598,216.800 44.109,216.800 43.937 C 216.800 43.640,220.986 40.800,221.424 40.800 C 221.539 40.800,222.031 40.425,222.517 39.966 C 223.003 39.507,223.940 38.851,224.600 38.507 C 225.260 38.163,227.097 37.009,228.682 35.941 C 230.267 34.874,231.737 34.000,231.949 34.000 C 232.160 34.000,232.393 33.862,232.467 33.693 C 232.540 33.524,233.590 32.670,234.800 31.796 C 237.351 29.951,238.441 29.019,241.576 26.000 C 244.435 23.247,251.455 19.600,253.895 19.600 C 254.913 19.600,256.330 19.376,262.800 18.192 C 267.494 17.334,269.976 16.895,273.000 16.389 C 276.870 15.742,282.155 14.474,284.897 13.536 C 286.161 13.103,287.383 12.866,287.612 13.007 C 287.841 13.149,289.147 13.437,290.514 13.648 C 291.881 13.859,293.990 14.199,295.200 14.404 C 296.410 14.609,298.930 14.965,300.800 15.197 C 302.670 15.428,305.100 15.860,306.200 16.157 C 307.300 16.454,309.550 16.914,311.200 17.179 C 312.850 17.444,315.317 17.917,316.682 18.230 C 318.047 18.544,319.704 18.800,320.363 18.800 C 321.023 18.800,321.976 18.957,322.481 19.149 C 322.987 19.341,324.120 19.726,325.000 20.005 C 325.880 20.284,327.730 21.027,329.110 21.656 C 330.491 22.285,331.709 22.800,331.819 22.800 C 332.796 22.800,337.234 26.473,341.775 31.039 C 343.109 32.380,344.920 33.999,345.800 34.637 C 346.680 35.274,347.490 35.908,347.600 36.047 C 347.935 36.467,354.702 40.800,355.024 40.800 C 356.764 40.800,365.075 55.379,367.224 62.200 C 368.321 65.685,371.797 72.212,373.455 73.902 C 373.726 74.179,374.071 74.809,374.221 75.302 C 374.372 75.796,374.750 76.491,375.062 76.848 C 377.092 79.165,378.034 111.009,376.206 115.508 C 375.058 118.332,373.806 120.651,372.985 121.472 C 372.320 122.137,369.600 126.697,369.600 127.146 C 369.600 127.313,369.261 128.159,368.847 129.025 C 366.030 134.921,364.423 139.727,363.171 146.000 C 362.548 149.123,358.721 153.286,354.550 155.378 C 351.842 156.736,348.510 159.888,347.144 162.384 C 345.724 164.979,345.424 165.462,344.369 166.860 C 342.511 169.323,340.816 170.748,337.965 172.246 C 334.137 174.258,330.876 177.469,328.945 181.129 C 326.831 185.136,320.668 190.800,318.423 190.800 C 317.558 190.800,312.977 195.874,311.910 198.014 C 309.900 202.046,306.737 205.292,302.981 207.179 C 299.472 208.943,296.117 212.263,294.161 215.909 C 291.921 220.083,290.609 221.399,285.393 224.703 C 284.957 224.979,284.338 225.327,284.018 225.477 C 281.899 226.466,278.424 230.262,276.864 233.292 C 275.379 236.178,270.156 241.600,268.862 241.600 C 267.562 241.600,262.627 243.781,261.425 244.887 C 260.998 245.279,260.487 245.600,260.290 245.600 C 259.799 245.600,254.800 250.682,254.800 251.181 C 254.800 252.602,246.996 256.786,244.324 256.797 C 243.952 256.799,243.548 256.960,243.427 257.156 C 243.306 257.351,242.621 257.605,241.904 257.719 C 241.187 257.832,239.880 258.133,239.000 258.386 C 238.120 258.640,235.870 259.171,234.000 259.567 C 227.964 260.844,224.692 261.888,220.292 263.938 L 217.585 265.200 208.630 265.200 C 200.618 265.200,199.514 265.120,198.138 264.436 C 195.995 263.371,192.602 262.122,190.000 261.440 C 188.790 261.122,187.260 260.690,186.600 260.478 C 185.940 260.266,184.140 259.880,182.600 259.620 C 177.672 258.788,174.930 258.184,169.935 256.831 C 168.249 256.374,166.595 256.000,166.260 256.000 C 165.641 256.000,161.200 251.678,161.200 251.076 C 161.200 250.784,160.248 249.414,158.400 247.047 C 156.615 244.761,153.773 242.430,151.154 241.104 C 145.944 238.464,143.200 235.405,143.200 232.236 C 143.200 231.468,143.035 229.976,142.834 228.920 C 142.159 225.377,141.602 220.237,141.369 215.400 C 141.060 209.020,140.925 207.192,140.747 207.014 C 139.903 206.170,130.417 206.572,128.482 207.534 C 126.075 208.729,121.200 213.181,121.200 214.183 C 121.200 215.985,115.594 222.438,112.736 223.926 C 110.805 224.932,109.502 225.696,109.200 226.002 C 109.090 226.114,108.341 226.696,107.535 227.296 C 106.179 228.306,103.347 232.218,101.981 234.970 C 100.973 236.998,97.085 240.541,94.266 242.000 C 90.459 243.969,87.620 246.736,85.633 250.411 C 83.165 254.978,81.477 256.697,77.045 259.157 C 75.700 259.904,74.510 260.633,74.400 260.777 C 74.290 260.921,73.607 261.453,72.883 261.959 C 72.158 262.465,70.683 264.136,69.604 265.672 C 67.590 268.540,67.456 268.950,66.231 276.000 C 65.906 277.870,65.274 281.110,64.826 283.200 C 63.905 287.500,63.698 299.478,64.396 308.000 C 65.653 323.343,65.560 323.015,69.756 326.886 C 71.569 328.559,72.600 329.194,76.362 330.951 C 77.816 331.630,97.122 331.554,100.200 330.856 C 112.911 327.977,113.746 327.625,117.000 323.772 C 120.661 319.436,125.647 314.747,129.400 312.110 C 134.112 308.799,135.160 307.804,137.310 304.600 C 139.192 301.796,144.781 295.967,146.800 294.702 C 149.295 293.140,151.317 291.247,155.505 286.557 C 157.609 284.201,160.241 282.227,163.568 280.512 C 165.244 279.647,165.772 279.600,173.768 279.603 C 181.947 279.605,185.790 279.290,191.200 278.174 C 195.445 277.299,197.218 276.811,198.422 276.189 C 200.885 274.915,204.401 276.378,208.058 280.200 C 209.417 281.620,212.100 286.890,211.617 287.191 C 211.128 287.496,209.200 291.224,209.200 291.865 C 209.200 292.165,209.036 292.723,208.836 293.105 C 208.348 294.038,207.199 299.249,206.926 301.769 C 206.669 304.144,205.627 306.145,203.862 307.654 C 203.168 308.248,202.060 309.203,201.400 309.778 C 200.740 310.352,199.216 311.312,198.014 311.911 C 195.875 312.977,190.800 317.557,190.800 318.423 C 190.800 320.668,185.136 326.831,181.129 328.945 C 177.469 330.876,174.258 334.137,172.246 337.965 C 170.748 340.816,169.323 342.511,166.860 344.369 C 165.471 345.418,164.985 345.719,162.434 347.119 C 159.918 348.498,157.031 351.495,155.507 354.311 C 153.155 358.652,148.321 363.600,146.432 363.600 C 144.584 363.600,138.961 368.619,137.086 371.941 C 135.789 374.238,132.933 377.434,131.193 378.534 C 130.253 379.128,128.630 379.390,119.400 380.436 C 111.484 381.334,109.582 381.601,104.200 382.576 C 101.120 383.133,97.961 383.745,97.180 383.935 C 95.220 384.411,77.440 383.118,69.943 381.955 C 68.481 381.728,65.601 381.390,63.543 381.203 C 61.484 381.016,59.260 380.753,58.600 380.618 C 57.940 380.483,56.410 380.186,55.200 379.957 C 53.990 379.728,52.370 379.385,51.600 379.195 C 50.830 379.006,49.300 378.638,48.200 378.379 C 42.914 377.134,42.219 376.633,38.916 371.681 C 35.435 366.464,32.631 363.960,27.787 361.743 C 26.584 361.192,25.600 360.575,25.600 360.371 C 25.600 360.167,25.399 360.000,25.154 360.000 C 24.270 360.000,21.628 356.604,20.987 354.645 C 20.091 351.904,16.996 345.976,16.300 345.667 C 16.135 345.593,15.999 345.323,15.998 345.067 C 15.997 344.810,15.502 344.059,14.898 343.398 C 14.294 342.738,12.656 340.893,11.259 339.298 L 8.718 336.400 4.359 336.400 L 0.000 336.400 0.000 341.600 L 0.000 346.800 4.351 346.800 L 8.703 346.800 10.450 349.100 C 11.412 350.365,12.311 351.490,12.449 351.600 C 12.587 351.710,13.820 353.960,15.188 356.600 C 18.002 362.029,20.226 364.482,23.953 366.271 C 27.752 368.095,32.638 372.451,33.627 374.896 C 33.917 375.613,34.255 376.290,34.377 376.400 C 34.500 376.510,35.038 377.230,35.573 378.000 C 38.691 382.488,41.839 383.906,51.600 385.220 C 53.470 385.472,55.864 385.840,56.920 386.039 C 57.976 386.237,59.537 386.400,60.389 386.400 C 61.242 386.400,62.808 386.575,63.869 386.789 C 67.443 387.510,72.585 388.492,74.595 388.838 C 75.693 389.027,77.043 389.354,77.595 389.564 C 78.148 389.775,79.680 390.040,81.000 390.154 C 82.320 390.268,84.840 390.540,86.600 390.759 C 88.360 390.978,89.935 391.167,90.100 391.178 C 90.265 391.190,90.400 393.180,90.400 395.600 L 90.400 400.000 94.000 400.000 L 97.600 400.000 97.600 395.587 C 97.600 391.737,97.689 391.146,98.300 390.951 C 99.062 390.708,99.945 390.369,101.800 389.607 C 103.005 389.112,104.841 388.593,110.400 387.177 C 112.050 386.756,114.428 386.410,115.684 386.406 C 116.940 386.403,119.280 386.227,120.884 386.016 C 122.488 385.805,125.420 385.446,127.400 385.219 C 130.621 384.850,133.444 384.157,134.000 383.599 C 134.110 383.489,134.712 383.134,135.339 382.811 C 137.117 381.893,140.543 377.945,141.723 375.454 C 142.837 373.099,145.613 370.104,147.502 369.218 C 148.668 368.671,149.676 368.155,152.419 366.703 C 155.508 365.068,160.000 359.215,160.000 356.827 C 160.000 356.234,165.062 351.200,165.658 351.200 C 166.531 351.200,171.560 348.479,172.537 347.478 C 174.648 345.317,177.200 341.119,177.200 339.809 C 177.200 339.046,182.173 334.000,182.925 334.000 C 184.352 334.000,189.047 331.044,191.072 328.870 C 192.236 327.621,194.800 322.885,194.800 321.985 C 194.800 321.376,199.850 316.400,200.468 316.400 C 201.504 316.400,206.439 313.589,207.727 312.264 C 209.820 310.113,211.483 306.994,213.201 302.000 C 213.791 300.284,215.298 297.073,215.641 296.800 C 215.779 296.690,216.010 296.221,216.155 295.758 C 216.403 294.962,216.954 294.350,219.800 291.710 C 220.460 291.098,221.559 289.788,222.242 288.799 L 223.484 287.000 223.716 279.195 C 223.962 270.911,224.245 269.423,225.693 268.788 C 226.192 268.569,227.181 268.038,227.892 267.608 C 229.827 266.436,235.058 264.757,238.000 264.362 C 240.436 264.036,242.036 263.752,246.700 262.820 C 251.118 261.937,251.936 261.677,254.210 260.430 C 256.891 258.960,260.732 255.194,261.760 253.028 C 262.133 252.243,262.564 251.599,262.719 251.598 C 262.873 251.597,263.542 251.088,264.206 250.466 C 264.869 249.845,266.579 248.734,268.006 247.997 C 270.820 246.545,270.814 246.549,273.897 244.934 C 277.080 243.267,281.600 237.741,281.600 235.516 C 281.600 234.757,286.534 229.600,287.260 229.600 C 290.804 229.600,299.200 221.289,299.200 217.780 C 299.200 217.116,303.286 212.800,303.915 212.800 C 304.182 212.800,304.400 212.620,304.400 212.400 C 304.400 212.180,304.726 212.000,305.124 212.000 C 305.521 212.000,306.893 211.370,308.172 210.600 C 309.451 209.830,310.571 209.200,310.662 209.200 C 311.712 209.200,316.400 202.066,316.400 200.468 C 316.400 199.850,321.376 194.800,321.985 194.800 C 322.885 194.800,327.621 192.236,328.870 191.072 C 331.044 189.047,334.000 184.352,334.000 182.925 C 334.000 182.173,339.046 177.200,339.809 177.200 C 341.119 177.200,345.317 174.648,347.478 172.537 C 348.479 171.560,351.200 166.531,351.200 165.658 C 351.200 164.590,356.230 160.245,358.668 159.208 C 363.164 157.296,368.800 150.306,368.800 146.643 C 368.800 146.310,369.002 145.534,369.250 144.919 C 369.497 144.303,369.845 143.440,370.023 143.000 C 372.084 137.897,374.234 134.000,374.990 134.000 C 375.404 134.000,377.200 132.064,377.200 131.618 C 377.200 131.388,377.342 131.200,377.516 131.200 C 378.240 131.200,381.691 123.176,382.419 119.800 C 382.609 118.920,383.043 117.156,383.382 115.880 C 384.475 111.777,384.017 82.136,382.769 76.200 C 382.349 74.204,381.753 72.507,380.345 69.304 C 379.935 68.372,379.600 67.455,379.600 67.266 C 379.600 66.686,376.548 62.166,374.995 60.447 C 374.144 59.505,371.613 55.022,368.998 49.822 C 366.509 44.874,364.055 40.235,363.545 39.513 C 362.499 38.032,360.955 36.400,360.601 36.400 C 360.472 36.400,360.149 36.218,359.883 35.996 C 359.617 35.774,358.050 34.726,356.400 33.668 C 354.750 32.611,353.130 31.482,352.800 31.159 C 352.470 30.837,351.570 30.133,350.800 29.593 C 349.028 28.353,347.314 26.643,345.794 24.600 C 342.332 19.947,338.869 17.871,330.800 15.611 C 329.810 15.334,328.550 14.963,328.000 14.787 C 327.450 14.611,326.280 14.344,325.400 14.195 C 318.184 12.972,314.795 12.071,308.700 9.756 L 306.000 8.730 306.000 4.365 L 306.000 0.000 290.400 0.000 L 274.800 0.000 274.800 4.317 M306.429 75.785 C 308.652 78.041,308.732 78.358,309.196 86.800 C 309.884 99.323,309.713 113.319,308.828 116.800 C 308.012 120.011,306.700 123.833,306.265 124.268 C 306.119 124.414,306.000 124.858,306.000 125.255 C 306.000 126.120,304.575 128.762,303.657 129.600 C 302.332 130.809,300.042 132.400,299.627 132.400 C 299.392 132.400,299.200 132.551,299.200 132.736 C 299.200 132.920,298.764 133.270,298.231 133.513 C 296.752 134.187,293.338 137.246,291.600 139.454 C 289.718 141.845,288.800 143.195,288.800 143.573 C 288.800 143.808,288.632 144.000,288.427 144.000 C 288.222 144.000,287.936 144.372,287.792 144.826 C 287.477 145.816,285.272 148.400,284.742 148.400 C 284.535 148.400,284.149 148.584,283.883 148.808 C 283.617 149.033,282.320 149.908,281.000 150.753 C 278.557 152.317,274.415 156.190,273.250 158.000 C 272.896 158.550,272.459 159.180,272.279 159.400 C 272.099 159.620,271.372 160.790,270.663 162.000 C 269.440 164.085,268.607 164.791,263.445 168.114 C 263.029 168.381,262.273 169.005,261.763 169.500 C 261.253 169.995,260.720 170.400,260.579 170.400 C 260.080 170.400,256.683 174.225,255.251 176.400 C 254.454 177.610,253.693 178.690,253.559 178.800 C 253.426 178.910,253.049 179.516,252.723 180.146 L 252.129 181.292 250.565 179.346 C 249.704 178.276,248.885 177.310,248.745 177.200 C 248.132 176.720,245.812 172.609,243.441 167.800 C 241.256 163.369,240.541 162.304,238.609 160.600 C 234.527 157.002,231.341 153.826,230.381 152.400 C 229.863 151.630,229.328 150.910,229.193 150.800 C 228.825 150.501,226.651 147.150,226.054 145.962 C 223.411 140.709,218.179 138.072,207.901 136.813 C 197.814 135.578,197.519 135.533,191.600 134.328 C 187.199 133.433,181.221 131.794,179.298 130.956 L 177.800 130.303 180.200 129.203 C 185.833 126.621,195.908 125.083,210.400 124.593 C 218.779 124.310,219.264 124.220,222.370 122.376 C 224.453 121.139,226.733 119.047,227.538 117.634 C 229.272 114.588,229.600 113.927,229.600 113.470 C 229.600 112.571,234.676 107.600,235.594 107.600 C 237.914 107.600,243.120 103.538,244.823 100.400 C 245.360 99.410,246.025 98.362,246.300 98.071 C 246.575 97.781,246.800 97.198,246.800 96.776 C 246.800 95.073,251.023 91.002,253.577 90.244 C 259.310 88.541,264.712 84.396,266.800 80.097 C 267.350 78.964,268.205 77.819,268.700 77.551 C 269.195 77.284,269.600 76.915,269.600 76.732 C 269.600 76.550,270.126 76.400,270.769 76.400 C 271.413 76.400,272.808 76.227,273.869 76.015 C 274.931 75.804,276.880 75.416,278.200 75.155 C 282.358 74.331,285.532 74.128,295.235 74.063 L 304.670 74.000 306.429 75.785 M133.847 215.000 C 134.378 215.660,134.989 216.417,135.206 216.683 C 135.423 216.949,135.600 217.994,135.600 219.006 C 135.600 220.019,135.765 222.051,135.966 223.523 C 136.168 224.996,136.556 228.265,136.829 230.789 C 137.594 237.850,140.501 242.428,145.887 245.057 C 147.159 245.678,148.642 246.550,149.183 246.993 C 152.182 249.454,154.443 251.861,154.873 253.051 C 155.141 253.793,155.505 254.400,155.680 254.400 C 155.856 254.400,156.000 254.638,156.000 254.928 C 156.000 256.598,162.435 262.052,165.336 262.841 C 167.039 263.304,167.854 263.425,177.200 264.599 C 183.607 265.404,185.601 265.987,190.700 268.546 C 192.847 269.623,192.851 269.608,190.100 270.968 C 185.418 273.283,184.458 273.521,177.925 273.984 C 174.694 274.213,170.374 274.399,168.325 274.398 C 160.521 274.394,152.649 278.407,148.507 284.502 C 147.796 285.547,146.626 286.752,145.907 287.178 C 145.188 287.604,144.383 288.143,144.117 288.376 C 143.851 288.609,143.524 288.800,143.390 288.800 C 143.171 288.800,141.512 289.980,139.454 291.600 C 137.246 293.338,134.187 296.752,133.513 298.231 C 133.270 298.764,132.920 299.200,132.736 299.200 C 132.551 299.200,132.400 299.392,132.400 299.627 C 132.400 300.052,130.740 302.427,129.600 303.634 C 128.901 304.374,125.376 306.800,125.000 306.800 C 124.525 306.800,121.311 309.159,119.843 310.585 C 119.041 311.363,118.285 312.000,118.161 312.000 C 117.937 312.000,116.060 313.911,113.792 316.448 C 113.127 317.192,111.417 318.700,109.992 319.800 C 107.293 321.882,106.146 322.507,102.600 323.825 C 102.160 323.988,100.900 324.480,99.800 324.918 C 98.047 325.616,96.592 325.736,87.999 325.887 L 78.198 326.060 75.621 324.130 C 72.669 321.920,72.658 321.892,72.020 315.200 C 71.778 312.670,71.389 308.620,71.154 306.200 C 70.671 301.223,70.933 284.779,71.539 282.000 C 71.755 281.010,72.138 278.310,72.390 276.000 C 73.074 269.731,73.358 268.964,75.891 266.530 C 77.110 265.358,78.328 264.400,78.598 264.400 C 80.839 264.400,87.126 259.556,88.551 256.731 C 88.920 255.999,89.382 255.130,89.578 254.800 C 89.774 254.470,90.149 253.618,90.413 252.906 C 91.200 250.780,95.348 246.800,96.776 246.800 C 97.198 246.800,97.781 246.575,98.071 246.300 C 98.362 246.025,99.410 245.360,100.400 244.823 C 103.538 243.120,107.600 237.914,107.600 235.594 C 107.600 234.704,112.561 229.600,113.426 229.600 C 116.349 229.600,121.991 224.655,124.192 220.165 C 127.942 212.516,130.673 211.054,133.847 215.000 " stroke="none" fill="#73cee2" fill-rule="evenodd"></path><path id="path4" d="M285.000 13.475 C 282.965 14.237,276.636 15.771,273.000 16.385 C 269.921 16.904,267.351 17.360,262.800 18.192 C 256.330 19.376,254.913 19.600,253.895 19.600 C 251.455 19.600,244.435 23.247,241.576 26.000 C 238.441 29.019,237.351 29.951,234.800 31.796 C 233.590 32.670,232.540 33.524,232.467 33.693 C 232.393 33.862,232.160 34.000,231.949 34.000 C 231.737 34.000,230.267 34.874,228.682 35.941 C 227.097 37.009,225.260 38.163,224.600 38.507 C 223.940 38.851,223.003 39.507,222.517 39.966 C 222.031 40.425,221.539 40.800,221.424 40.800 C 220.986 40.800,216.800 43.640,216.800 43.937 C 216.800 44.109,216.485 44.598,216.100 45.025 C 215.715 45.451,215.130 46.333,214.800 46.985 C 213.867 48.826,206.095 56.473,203.200 58.397 C 200.151 60.423,199.804 60.757,198.007 63.400 C 195.874 66.536,191.092 71.647,187.991 74.102 C 187.226 74.708,186.167 75.563,185.639 76.002 C 185.110 76.441,184.568 76.800,184.435 76.800 C 183.795 76.800,180.910 80.014,180.036 81.699 C 179.726 82.297,179.186 83.105,178.836 83.494 C 178.486 83.882,177.668 84.912,177.018 85.781 C 176.368 86.650,174.015 89.204,171.790 91.457 C 168.663 94.622,167.630 95.944,167.245 97.276 C 166.970 98.224,166.566 99.630,166.346 100.400 C 166.127 101.170,165.798 102.160,165.615 102.600 C 165.433 103.040,165.072 104.480,164.814 105.800 C 164.555 107.120,164.176 108.851,163.972 109.646 C 163.270 112.377,164.056 117.789,165.341 119.074 C 165.436 119.169,172.558 119.319,181.169 119.407 C 189.779 119.495,196.978 119.663,197.167 119.780 C 198.416 120.552,217.397 119.173,218.787 118.209 C 220.833 116.791,222.991 114.463,223.987 112.600 C 225.017 110.671,225.729 109.470,226.002 109.200 C 226.114 109.090,226.696 108.341,227.296 107.535 C 228.306 106.179,232.218 103.347,234.970 101.981 C 236.998 100.973,240.541 97.085,242.000 94.266 C 244.184 90.043,246.844 87.468,251.372 85.193 C 252.897 84.427,254.427 83.583,254.772 83.317 C 257.839 80.957,258.784 80.110,260.000 78.633 C 261.277 77.080,263.103 74.739,263.600 74.017 C 263.996 73.441,267.796 70.705,268.787 70.282 C 270.871 69.392,287.652 68.331,297.315 68.477 L 305.400 68.600 307.400 69.974 C 310.239 71.925,312.206 74.044,313.444 76.486 L 314.516 78.600 314.558 97.600 C 314.600 116.632,314.571 117.175,313.148 123.600 C 311.385 131.562,310.237 133.399,304.600 137.272 C 301.751 139.230,295.941 144.822,294.702 146.800 C 292.727 149.954,290.594 152.222,287.620 154.332 C 286.179 155.355,284.618 156.554,284.151 156.996 C 283.684 157.438,282.604 158.455,281.751 159.255 C 279.638 161.237,278.352 162.738,276.790 165.047 C 276.064 166.121,275.184 167.301,274.835 167.669 C 274.486 168.037,273.756 168.823,273.214 169.415 C 272.671 170.008,270.961 171.350,269.414 172.399 C 266.606 174.303,261.215 179.565,259.769 181.813 C 255.354 188.681,253.493 189.728,245.438 189.875 C 237.845 190.014,238.612 189.402,238.730 195.222 L 238.827 200.011 236.865 201.973 C 234.729 204.109,235.270 203.947,227.400 204.799 C 225.200 205.037,222.050 205.399,220.400 205.603 C 215.028 206.270,142.394 206.235,141.971 205.566 C 141.774 205.255,141.609 203.797,141.606 202.326 L 141.600 199.652 143.799 197.453 C 145.008 196.244,146.358 195.140,146.799 195.000 C 147.239 194.861,147.600 194.578,147.600 194.373 C 147.600 194.145,161.894 194.000,184.369 194.000 C 208.783 194.000,221.855 193.857,223.269 193.574 C 224.441 193.340,226.390 192.958,227.600 192.726 C 230.210 192.225,231.578 191.646,234.000 190.015 C 234.990 189.349,236.274 188.803,236.853 188.802 C 238.416 188.799,239.103 183.972,237.879 181.600 C 236.723 179.360,235.155 174.794,233.550 169.000 C 232.657 165.773,232.193 164.956,230.019 162.773 C 228.798 161.547,227.260 159.851,226.600 159.002 C 225.940 158.153,225.211 157.265,224.981 157.029 C 224.143 156.171,222.085 152.940,220.758 150.400 C 218.858 146.762,217.708 145.870,213.011 144.396 C 210.805 143.703,208.550 142.985,208.000 142.802 C 207.450 142.618,206.370 142.344,205.600 142.193 C 204.830 142.041,203.480 141.748,202.600 141.539 C 201.104 141.186,198.238 140.830,192.000 140.225 C 190.570 140.086,187.960 139.698,186.200 139.362 C 184.440 139.026,182.100 138.593,181.000 138.399 C 173.318 137.046,170.817 136.494,167.830 135.492 C 165.356 134.663,164.591 134.702,158.000 135.986 C 156.199 136.336,151.434 137.041,148.800 137.345 C 148.030 137.434,146.320 137.780,145.000 138.113 C 142.691 138.695,138.970 139.497,134.469 140.381 C 133.298 140.612,131.810 140.800,131.164 140.800 C 130.518 140.800,129.677 140.959,129.295 141.153 C 128.913 141.348,128.150 141.689,127.600 141.911 C 122.001 144.178,119.651 145.688,115.639 149.600 C 112.896 152.275,111.165 153.800,108.810 155.618 C 107.825 156.378,106.762 157.241,106.446 157.535 C 106.130 157.830,105.150 158.526,104.267 159.084 C 103.385 159.641,102.469 160.258,102.231 160.456 C 100.301 162.063,99.839 162.400,99.567 162.400 C 99.397 162.400,99.010 162.647,98.709 162.948 C 98.408 163.250,97.588 163.792,96.889 164.154 C 96.129 164.547,94.780 166.059,93.541 167.906 C 91.268 171.295,84.056 178.737,82.031 179.784 C 80.213 180.724,76.800 183.759,76.800 184.435 C 76.800 184.568,76.441 185.110,76.002 185.639 C 75.563 186.167,74.708 187.226,74.102 187.991 C 71.647 191.092,66.536 195.874,63.400 198.007 C 60.757 199.804,60.423 200.151,58.397 203.200 C 56.473 206.095,48.826 213.867,46.985 214.800 C 46.333 215.130,45.451 215.715,45.025 216.100 C 44.598 216.485,44.106 216.800,43.930 216.800 C 43.755 216.800,43.114 217.565,42.506 218.500 C 41.043 220.749,41.061 220.725,39.315 222.798 C 36.955 225.600,32.132 230.400,31.677 230.400 C 31.451 230.400,31.207 230.552,31.133 230.738 C 31.060 230.924,30.010 231.775,28.800 232.628 C 26.061 234.560,24.840 235.908,23.650 238.316 C 23.138 239.352,22.526 240.560,22.290 241.000 C 20.713 243.937,17.282 251.261,16.387 253.600 C 15.791 255.156,12.112 260.850,11.434 261.265 C 11.195 261.411,10.460 261.996,9.800 262.565 C 8.670 263.538,8.348 263.599,4.300 263.600 L 0.000 263.600 0.000 270.400 L 0.000 277.200 4.500 277.199 C 10.236 277.197,10.337 277.144,15.100 271.639 C 15.594 271.068,15.999 270.469,16.000 270.308 C 16.000 270.148,16.796 269.283,17.769 268.386 C 19.930 266.394,21.721 262.772,22.409 259.000 C 23.612 252.413,23.946 251.162,24.975 249.407 C 25.574 248.385,26.539 247.363,27.130 247.126 C 29.303 246.252,31.004 245.392,31.133 245.100 C 31.207 244.935,31.507 244.800,31.802 244.800 C 33.376 244.800,38.000 238.379,38.000 236.192 C 38.000 235.010,43.687 229.766,45.600 229.184 C 49.931 227.866,53.320 224.545,55.178 219.800 C 56.240 217.090,59.733 213.149,61.767 212.368 C 64.802 211.202,66.000 210.623,66.000 210.323 C 66.000 210.145,66.256 210.000,66.568 210.000 C 68.184 210.000,72.800 203.602,72.800 201.363 C 72.800 200.179,78.456 194.995,80.400 194.398 C 84.757 193.058,88.005 189.829,90.067 184.786 C 91.144 182.152,95.164 177.759,96.834 177.393 C 101.719 176.320,106.489 171.498,107.728 166.382 C 108.028 165.142,112.665 161.686,114.523 161.317 C 120.840 160.062,125.251 155.546,126.585 148.965 C 127.059 146.626,129.221 145.861,136.200 145.561 C 139.500 145.419,146.610 145.093,152.000 144.836 C 165.298 144.202,165.529 144.202,174.400 144.763 C 178.690 145.035,185.890 145.346,190.400 145.455 C 201.797 145.730,206.800 147.147,206.800 150.102 C 206.800 151.805,213.395 158.400,215.098 158.400 C 216.144 158.400,217.579 159.572,218.593 161.254 C 219.226 162.305,220.147 163.634,220.640 164.207 C 221.335 165.016,221.590 165.942,221.773 168.325 C 221.903 170.016,222.194 173.200,222.419 175.400 C 223.214 183.172,223.288 182.729,221.000 183.941 C 219.900 184.523,218.940 185.135,218.867 185.300 C 218.793 185.465,205.923 185.608,190.267 185.618 C 160.289 185.637,145.529 186.017,143.200 186.831 C 139.386 188.163,138.402 188.651,136.983 189.916 C 135.093 191.601,134.173 193.142,133.033 196.540 C 131.716 200.462,131.642 200.530,128.000 201.164 C 119.066 202.718,115.596 206.178,114.355 214.769 C 113.896 217.942,113.607 218.301,111.267 218.595 C 107.003 219.131,102.980 220.652,100.924 222.505 C 99.132 224.120,96.800 230.264,96.800 233.371 C 96.800 235.066,96.379 235.370,93.200 235.975 C 84.058 237.716,80.798 240.964,79.555 249.569 C 79.103 252.696,78.724 253.200,76.822 253.200 C 74.891 253.200,71.719 254.198,68.060 255.956 C 64.929 257.461,62.961 261.356,61.975 268.000 C 61.204 273.189,61.104 273.600,60.613 273.600 C 58.556 273.600,53.490 280.158,51.251 285.719 C 50.675 287.147,50.643 303.968,51.207 308.284 C 51.431 309.998,51.807 312.930,52.042 314.800 C 52.978 322.249,54.224 324.833,58.259 327.693 C 59.273 328.412,60.665 329.612,61.351 330.360 C 65.119 334.465,65.567 334.718,71.200 335.942 C 79.233 337.687,91.192 337.701,110.600 335.987 C 120.458 335.116,125.017 331.712,126.806 323.886 C 127.365 321.438,129.596 318.798,131.101 318.802 C 137.196 318.819,142.856 313.669,144.416 306.688 C 145.188 303.233,146.920 301.686,151.200 300.632 C 157.545 299.069,162.000 294.001,162.000 288.344 C 162.000 287.365,163.110 286.104,164.740 285.232 C 165.811 284.659,182.764 284.655,187.000 285.227 C 190.351 285.680,196.540 286.768,196.595 286.915 C 196.612 286.962,196.846 287.495,197.113 288.100 C 197.381 288.705,197.819 289.695,198.086 290.300 C 198.353 290.905,198.867 291.850,199.229 292.400 C 199.943 293.485,200.993 301.231,200.746 303.592 L 200.600 304.984 197.600 305.541 C 188.513 307.226,184.749 311.060,183.854 319.542 C 183.572 322.213,183.095 322.800,181.211 322.800 C 180.390 322.800,179.198 322.959,178.560 323.153 C 177.922 323.348,176.590 323.748,175.600 324.043 C 170.505 325.563,167.775 329.239,166.431 336.390 L 165.794 339.781 162.797 340.344 C 153.612 342.071,149.979 345.773,149.058 354.342 C 148.764 357.075,148.306 357.600,146.211 357.600 C 145.280 357.600,143.998 357.759,143.360 357.953 C 142.722 358.148,141.390 358.544,140.400 358.835 C 135.447 360.288,132.364 363.423,130.957 368.438 C 129.896 372.222,127.817 373.919,123.664 374.393 C 121.855 374.599,120.207 374.872,120.000 375.000 C 117.127 376.776,64.855 377.106,58.800 375.386 C 57.590 375.043,55.880 374.583,55.000 374.364 C 53.616 374.021,53.272 373.698,52.455 371.977 C 51.028 368.975,47.982 366.016,44.900 364.638 C 43.965 364.220,43.200 363.771,43.200 363.639 C 43.199 363.395,41.831 361.692,40.378 360.126 C 39.931 359.645,39.034 359.016,38.383 358.728 C 37.732 358.440,37.200 358.097,37.200 357.966 C 37.200 357.835,36.460 357.484,35.555 357.185 C 34.381 356.798,33.627 356.193,32.919 355.071 C 31.669 353.092,29.782 351.197,27.669 349.798 C 26.765 349.200,25.919 348.326,25.790 347.855 C 25.430 346.551,24.422 344.060,23.179 341.400 C 22.562 340.080,21.836 338.280,21.567 337.400 C 19.875 331.877,19.413 331.014,16.708 328.300 C 15.228 326.815,13.802 325.600,13.540 325.600 C 13.278 325.600,12.779 325.361,12.431 325.069 C 11.267 324.090,8.539 323.600,4.254 323.600 L 0.000 323.600 0.000 330.000 L 0.000 336.400 4.359 336.400 L 8.718 336.400 11.259 339.298 C 12.656 340.893,14.294 342.738,14.898 343.398 C 15.502 344.059,15.997 344.810,15.998 345.067 C 15.999 345.323,16.135 345.593,16.300 345.667 C 16.996 345.976,20.091 351.904,20.987 354.645 C 21.628 356.604,24.270 360.000,25.154 360.000 C 25.399 360.000,25.600 360.167,25.600 360.371 C 25.600 360.575,26.584 361.192,27.787 361.743 C 32.631 363.960,35.435 366.464,38.916 371.681 C 42.219 376.633,42.914 377.134,48.200 378.379 C 49.300 378.638,50.830 379.006,51.600 379.195 C 52.370 379.385,53.990 379.728,55.200 379.957 C 56.410 380.186,57.940 380.483,58.600 380.618 C 59.260 380.753,61.484 381.016,63.543 381.203 C 65.601 381.390,68.481 381.728,69.943 381.955 C 77.440 383.118,95.220 384.411,97.180 383.935 C 97.961 383.745,101.120 383.133,104.200 382.576 C 109.582 381.601,111.484 381.334,119.400 380.436 C 128.630 379.390,130.253 379.128,131.193 378.534 C 132.933 377.434,135.789 374.238,137.086 371.941 C 138.961 368.619,144.584 363.600,146.432 363.600 C 148.321 363.600,153.155 358.652,155.507 354.311 C 157.031 351.495,159.918 348.498,162.434 347.119 C 164.985 345.719,165.471 345.418,166.860 344.369 C 169.323 342.511,170.748 340.816,172.246 337.965 C 174.258 334.137,177.469 330.876,181.129 328.945 C 185.136 326.831,190.800 320.668,190.800 318.423 C 190.800 317.557,195.875 312.977,198.014 311.911 C 199.216 311.312,200.740 310.352,201.400 309.778 C 202.060 309.203,203.168 308.248,203.862 307.654 C 205.627 306.145,206.669 304.144,206.926 301.769 C 207.199 299.249,208.348 294.038,208.836 293.105 C 209.036 292.723,209.200 292.165,209.200 291.865 C 209.200 291.224,211.128 287.496,211.617 287.191 C 212.100 286.890,209.417 281.620,208.058 280.200 C 204.401 276.378,200.885 274.915,198.422 276.189 C 197.218 276.811,195.445 277.299,191.200 278.174 C 185.790 279.290,181.947 279.605,173.768 279.603 C 165.772 279.600,165.244 279.647,163.568 280.512 C 160.241 282.227,157.609 284.201,155.505 286.557 C 151.317 291.247,149.295 293.140,146.800 294.702 C 144.781 295.967,139.192 301.796,137.310 304.600 C 135.160 307.804,134.112 308.799,129.400 312.110 C 125.647 314.747,120.661 319.436,117.000 323.772 C 113.746 327.625,112.911 327.977,100.200 330.856 C 97.122 331.554,77.816 331.630,76.362 330.951 C 72.600 329.194,71.569 328.559,69.756 326.886 C 65.560 323.015,65.653 323.343,64.396 308.000 C 63.698 299.478,63.905 287.500,64.826 283.200 C 65.274 281.110,65.906 277.870,66.231 276.000 C 67.456 268.950,67.590 268.540,69.604 265.672 C 70.683 264.136,72.158 262.465,72.883 261.959 C 73.607 261.453,74.290 260.921,74.400 260.777 C 74.510 260.633,75.700 259.904,77.045 259.157 C 81.477 256.697,83.165 254.978,85.633 250.411 C 87.620 246.736,90.459 243.969,94.266 242.000 C 97.085 240.541,100.973 236.998,101.981 234.970 C 103.347 232.218,106.179 228.306,107.535 227.296 C 108.341 226.696,109.090 226.114,109.200 226.002 C 109.502 225.696,110.805 224.932,112.736 223.926 C 115.594 222.438,121.200 215.985,121.200 214.183 C 121.200 213.181,126.075 208.729,128.482 207.534 C 130.417 206.572,139.903 206.170,140.747 207.014 C 140.925 207.192,141.060 209.020,141.369 215.400 C 141.602 220.237,142.159 225.377,142.834 228.920 C 143.035 229.976,143.200 231.468,143.200 232.236 C 143.200 235.405,145.944 238.464,151.154 241.104 C 153.773 242.430,156.615 244.761,158.400 247.047 C 160.248 249.414,161.200 250.784,161.200 251.076 C 161.200 251.678,165.641 256.000,166.260 256.000 C 166.595 256.000,168.249 256.374,169.935 256.831 C 174.930 258.184,177.672 258.788,182.600 259.620 C 184.140 259.880,185.940 260.266,186.600 260.478 C 187.260 260.690,188.790 261.122,190.000 261.440 C 192.602 262.122,195.995 263.371,198.138 264.436 C 199.514 265.120,200.618 265.200,208.630 265.200 L 217.585 265.200 220.292 263.938 C 224.692 261.888,227.964 260.844,234.000 259.567 C 235.870 259.171,238.120 258.640,239.000 258.386 C 239.880 258.133,241.187 257.832,241.904 257.719 C 242.621 257.605,243.306 257.351,243.427 257.156 C 243.548 256.960,243.952 256.799,244.324 256.797 C 246.996 256.786,254.800 252.602,254.800 251.181 C 254.800 250.682,259.799 245.600,260.290 245.600 C 260.487 245.600,260.998 245.279,261.425 244.887 C 262.627 243.781,267.562 241.600,268.862 241.600 C 270.156 241.600,275.379 236.178,276.864 233.292 C 278.699 229.728,282.531 225.885,285.600 224.530 C 288.839 223.101,292.022 219.896,294.161 215.909 C 296.117 212.263,299.472 208.943,302.981 207.179 C 306.737 205.292,309.900 202.046,311.910 198.014 C 312.977 195.874,317.558 190.800,318.423 190.800 C 320.668 190.800,326.831 185.136,328.945 181.129 C 330.876 177.469,334.137 174.258,337.965 172.246 C 340.816 170.748,342.511 169.323,344.369 166.860 C 345.424 165.462,345.724 164.979,347.144 162.384 C 348.510 159.888,351.842 156.736,354.550 155.378 C 358.721 153.286,362.548 149.123,363.171 146.000 C 364.423 139.727,366.030 134.921,368.847 129.025 C 369.261 128.159,369.600 127.313,369.600 127.146 C 369.600 126.697,372.320 122.137,372.985 121.472 C 373.806 120.651,375.058 118.332,376.206 115.508 C 378.034 111.009,377.092 79.165,375.062 76.848 C 374.750 76.491,374.372 75.796,374.221 75.302 C 374.071 74.809,373.726 74.179,373.455 73.902 C 371.797 72.212,368.321 65.685,367.224 62.200 C 365.075 55.379,356.764 40.800,355.024 40.800 C 354.702 40.800,347.935 36.467,347.600 36.047 C 347.490 35.908,346.680 35.274,345.800 34.637 C 344.920 33.999,343.109 32.380,341.775 31.039 C 337.234 26.473,332.796 22.800,331.819 22.800 C 331.709 22.800,330.491 22.285,329.110 21.656 C 327.730 21.027,325.880 20.284,325.000 20.005 C 324.120 19.726,322.987 19.341,322.481 19.149 C 321.976 18.957,321.023 18.800,320.363 18.800 C 319.704 18.800,318.047 18.544,316.682 18.230 C 315.317 17.917,312.850 17.444,311.200 17.179 C 309.550 16.914,307.300 16.454,306.200 16.157 C 305.100 15.860,302.670 15.428,300.800 15.197 C 298.930 14.965,296.410 14.609,295.200 14.404 C 293.990 14.199,291.920 13.852,290.600 13.633 C 289.280 13.414,287.840 13.154,287.400 13.055 C 286.960 12.956,285.880 13.145,285.000 13.475 M304.400 23.190 C 307.810 23.408,313.120 23.695,316.200 23.829 C 323.008 24.126,325.740 25.076,326.217 27.316 C 327.408 32.897,332.057 37.616,337.679 38.949 C 340.256 39.560,344.856 43.491,346.298 46.315 C 348.006 49.660,350.644 52.248,353.930 53.803 C 357.690 55.582,359.986 60.621,359.997 67.118 C 360.000 68.787,360.439 70.994,362.004 77.200 C 362.420 78.850,362.857 82.000,362.976 84.200 C 363.094 86.400,363.366 90.090,363.578 92.400 C 364.351 100.790,364.119 112.584,363.140 114.722 C 362.666 115.755,362.118 117.230,361.921 118.000 C 360.886 122.048,360.319 124.917,359.984 127.800 C 359.780 129.560,359.421 132.080,359.188 133.400 C 358.502 137.278,358.002 141.171,357.736 144.698 C 357.450 148.497,357.257 148.745,354.342 149.058 C 345.773 149.979,342.071 153.612,340.344 162.797 L 339.781 165.794 336.390 166.431 C 329.239 167.775,325.563 170.505,324.043 175.600 C 323.748 176.590,323.348 177.922,323.153 178.560 C 322.959 179.198,322.800 180.390,322.800 181.211 C 322.800 183.095,322.213 183.572,319.542 183.854 C 311.061 184.749,307.231 188.508,305.539 197.597 L 304.981 200.594 301.590 201.244 C 292.829 202.922,288.000 208.183,288.000 216.048 C 288.000 217.765,287.218 218.343,284.331 218.760 C 275.740 220.001,272.539 223.141,270.843 231.992 L 270.194 235.385 266.797 235.892 C 259.616 236.965,253.996 238.721,252.400 240.391 C 252.013 240.796,250.406 241.600,249.983 241.600 C 248.208 241.600,241.600 248.141,241.600 249.898 C 241.600 250.813,240.520 252.394,239.895 252.397 C 239.507 252.399,238.877 252.562,238.495 252.759 C 236.308 253.889,234.147 254.369,230.400 254.556 C 228.090 254.672,224.400 254.999,222.200 255.282 C 213.886 256.352,185.783 255.426,181.400 253.937 C 179.691 253.357,177.575 252.768,176.326 252.525 C 175.607 252.386,175.041 251.872,174.615 250.974 C 173.031 247.636,170.376 244.815,167.400 243.308 C 166.300 242.750,164.950 241.733,164.400 241.047 C 162.503 238.681,160.932 237.395,158.218 235.989 C 155.948 234.813,155.387 234.315,154.841 232.989 C 154.225 231.492,152.856 229.088,152.113 228.200 C 151.929 227.980,151.350 227.170,150.826 226.400 C 150.302 225.630,149.384 224.460,148.787 223.800 C 148.025 222.957,147.635 222.004,147.479 220.600 C 147.357 219.500,147.159 218.330,147.040 218.000 C 146.611 216.814,147.798 216.030,150.637 215.624 C 158.150 214.548,162.870 214.392,187.800 214.395 C 242.597 214.402,244.878 213.929,248.077 201.879 C 248.781 199.226,251.483 196.800,253.732 196.800 C 254.808 196.800,259.841 194.858,261.383 193.848 C 263.445 192.497,264.879 189.701,266.370 184.124 C 267.058 181.549,268.997 179.983,272.716 178.999 C 279.131 177.302,282.253 174.081,283.573 167.800 C 284.165 164.980,286.622 162.000,288.355 162.000 C 294.000 162.000,299.070 157.540,300.632 151.200 C 301.686 146.920,303.233 145.188,306.688 144.416 C 318.620 141.750,319.843 137.485,319.721 99.000 C 319.617 66.528,319.309 65.719,306.057 63.163 C 303.251 62.622,276.686 62.930,269.600 63.586 C 262.170 64.274,255.200 67.955,255.200 71.192 C 255.200 71.548,255.050 72.011,254.867 72.220 C 254.684 72.429,254.197 73.997,253.786 75.704 C 252.983 79.035,252.324 79.591,249.166 79.598 C 242.373 79.612,237.632 84.501,235.975 93.200 C 235.370 96.379,235.066 96.800,233.371 96.800 C 225.036 96.800,219.767 101.969,218.591 111.299 C 218.426 112.603,218.108 113.328,217.577 113.613 C 215.626 114.656,197.930 114.963,194.600 114.010 C 193.940 113.822,192.753 113.559,191.963 113.427 C 190.833 113.239,190.240 112.784,189.182 111.294 C 187.622 109.096,185.446 106.969,183.959 106.188 C 180.697 104.473,177.748 96.218,179.700 94.261 C 180.195 93.765,181.050 92.825,181.600 92.172 C 182.150 91.519,183.584 90.577,184.786 90.079 C 189.855 87.978,193.059 84.751,194.398 80.400 C 194.995 78.456,200.179 72.800,201.363 72.800 C 203.602 72.800,210.000 68.184,210.000 66.568 C 210.000 66.256,210.145 66.000,210.323 66.000 C 210.623 66.000,211.202 64.802,212.368 61.767 C 213.149 59.733,217.090 56.240,219.800 55.178 C 224.593 53.301,227.942 49.860,229.218 45.501 C 229.839 43.379,234.133 40.000,236.208 40.000 C 238.300 40.000,243.771 37.818,245.338 36.357 C 245.785 35.941,246.259 35.600,246.391 35.600 C 246.876 35.600,249.148 31.324,250.003 28.800 C 251.151 25.413,251.225 25.370,256.713 24.842 C 259.291 24.593,262.840 24.220,264.600 24.012 C 266.360 23.803,271.400 23.434,275.800 23.191 C 280.200 22.948,284.340 22.716,285.000 22.675 C 287.494 22.520,298.438 22.811,304.400 23.190 " stroke="none" fill="#c9ecf4" fill-rule="evenodd"></path></g></svg>