<svg id="svg" version="1.1" width="400" height="340.7407407407407" xmlns="http://www.w3.org/2000/svg" xmlns:xlink="http://www.w3.org/1999/xlink" style="display: block;"><g id="svgg"><path id="path0" d="M257.460 36.139 C 256.428 36.508,255.315 36.814,254.987 36.819 C 254.659 36.824,254.390 37.075,254.390 37.377 C 254.390 40.566,248.050 47.059,244.935 47.059 C 244.509 47.059,244.160 47.194,244.160 47.360 C 244.160 48.509,234.861 51.151,230.819 51.151 C 229.235 51.151,229.249 51.128,228.659 54.795 C 227.861 59.753,227.265 61.436,225.647 63.297 C 224.400 64.731,221.127 66.475,219.653 66.491 C 218.302 66.506,214.882 70.853,214.500 73.042 C 214.082 75.429,213.682 77.659,213.166 80.477 C 212.977 81.509,212.735 84.041,212.628 86.104 C 211.631 105.432,210.918 113.037,210.009 114.049 C 209.849 114.228,209.719 114.650,209.719 114.987 C 209.719 115.325,209.565 115.601,209.378 115.601 C 209.190 115.601,209.037 115.820,209.037 116.087 C 209.037 117.333,204.936 120.553,202.046 121.576 C 192.188 125.066,164.305 123.667,157.043 119.318 C 156.475 118.977,155.535 118.456,154.955 118.159 C 153.342 117.335,150.661 114.828,149.374 112.942 C 148.325 111.405,148.042 111.211,146.317 110.843 C 145.272 110.620,143.879 110.305,143.223 110.142 C 142.566 109.979,140.111 109.680,137.766 109.477 C 123.345 108.232,116.993 104.758,115.134 97.101 C 115.008 96.586,114.748 96.164,114.555 96.164 C 114.362 96.164,113.569 95.857,112.792 95.482 C 112.016 95.107,110.952 94.800,110.429 94.800 C 108.942 94.800,104.079 93.823,101.466 92.999 C 99.130 92.262,98.959 92.135,95.967 88.913 C 95.578 88.493,94.811 87.848,94.262 87.479 C 92.695 86.426,90.178 83.762,89.675 82.626 C 89.372 81.941,88.807 81.448,88.002 81.166 C 86.171 80.524,83.461 78.920,82.246 77.759 C 81.652 77.191,80.972 76.719,80.736 76.710 C 78.082 76.610,72.672 71.418,71.846 68.178 C 71.730 67.722,70.488 66.179,69.087 64.749 L 66.539 62.149 65.045 64.408 C 63.728 66.399,63.502 67.030,63.134 69.736 C 62.512 74.310,62.050 77.116,61.731 78.261 C 61.121 80.447,61.042 81.827,61.395 84.092 C 61.889 87.254,62.351 91.048,62.596 93.947 C 62.707 95.260,62.927 96.641,63.084 97.016 C 63.774 98.662,64.780 105.376,64.795 108.440 C 64.802 109.930,66.198 116.481,66.578 116.807 C 66.627 116.849,67.442 117.272,68.390 117.748 C 70.774 118.946,73.792 121.967,74.863 124.229 L 75.750 126.102 74.867 127.845 C 73.639 130.268,71.141 132.790,68.670 134.101 C 67.283 134.837,66.105 135.812,65.163 137.003 C 64.384 137.990,63.217 139.141,62.571 139.561 C 61.113 140.508,60.920 140.973,61.507 142.136 C 62.414 143.935,63.563 149.498,64.268 155.499 C 64.368 156.343,64.596 157.877,64.776 158.909 C 64.957 159.940,65.273 162.543,65.479 164.693 C 66.106 171.216,66.000 170.979,68.386 171.219 C 75.816 171.969,80.013 174.774,80.996 179.649 C 81.158 180.454,82.153 181.739,84.436 184.095 C 87.797 187.563,90.698 191.175,90.704 191.901 C 90.706 192.136,90.823 192.330,90.963 192.333 C 91.272 192.339,93.542 197.085,94.117 198.926 C 94.583 200.415,94.190 202.471,92.381 208.014 C 91.983 209.233,91.531 210.767,91.376 211.424 C 91.221 212.080,90.946 213.193,90.766 213.896 C 90.504 214.919,90.533 215.175,90.914 215.175 C 91.176 215.175,91.390 215.328,91.390 215.516 C 91.390 215.703,91.620 215.857,91.901 215.857 C 92.182 215.857,92.413 215.972,92.414 216.113 C 92.415 216.253,92.856 216.838,93.395 217.413 C 94.365 218.448,96.153 221.501,96.176 222.163 C 96.182 222.352,97.218 223.197,98.477 224.041 C 100.121 225.142,101.153 226.165,102.131 227.663 C 103.245 229.367,103.745 229.824,104.859 230.153 C 105.610 230.375,107.374 230.992,108.781 231.523 C 110.188 232.055,112.643 232.668,114.237 232.886 C 119.080 233.549,121.523 234.027,122.489 234.501 C 122.996 234.750,123.669 234.953,123.985 234.953 C 125.291 234.953,130.374 237.873,131.758 239.419 C 134.682 242.682,135.188 244.842,134.373 250.574 C 134.194 251.829,133.878 254.237,133.670 255.925 C 133.097 260.587,131.319 263.366,127.278 265.920 C 126.480 266.424,125.743 267.096,125.642 267.413 C 125.062 269.224,120.593 271.414,116.113 272.083 C 112.906 272.562,106.112 273.478,103.082 273.839 L 100.622 274.133 98.137 276.646 C 96.770 278.028,95.345 279.547,94.970 280.023 C 92.377 283.309,87.378 285.134,77.408 286.434 C 65.131 288.036,62.177 289.446,69.906 290.015 C 71.500 290.132,73.956 290.365,75.362 290.532 C 82.212 291.346,84.717 291.611,88.491 291.920 C 90.742 292.104,93.504 292.410,94.629 292.600 C 95.754 292.790,98.056 293.092,99.744 293.271 C 103.532 293.673,106.991 294.138,109.489 294.579 C 113.365 295.264,117.501 298.455,119.213 302.079 L 120.149 304.062 122.223 304.498 C 123.363 304.738,124.834 305.081,125.490 305.261 C 127.039 305.686,156.604 305.394,159.591 304.924 C 160.810 304.732,162.782 304.462,163.973 304.324 C 166.062 304.082,166.212 303.998,168.235 301.935 C 170.913 299.206,174.977 297.268,180.733 295.976 C 181.765 295.744,184.297 295.057,186.360 294.449 C 190.434 293.249,192.484 292.803,196.419 292.261 C 199.340 291.860,199.967 291.800,209.015 291.070 C 212.660 290.776,216.113 290.392,216.688 290.217 C 217.262 290.042,218.353 289.739,219.113 289.543 C 220.333 289.228,220.626 288.940,221.640 287.050 C 223.291 283.975,227.445 280.307,229.277 280.307 C 229.495 280.307,229.844 280.035,230.052 279.702 C 230.457 279.053,232.572 277.948,234.767 277.239 C 236.018 276.834,238.140 276.509,242.796 276.011 C 243.828 275.900,245.322 275.517,246.117 275.160 C 246.912 274.802,247.715 274.510,247.901 274.510 C 248.087 274.510,248.342 274.088,248.467 273.572 C 249.595 268.926,253.549 264.816,258.041 263.620 C 258.830 263.410,259.694 263.019,259.963 262.751 C 260.534 262.180,263.923 260.448,265.648 259.845 C 266.512 259.544,267.130 258.953,267.864 257.727 C 268.870 256.050,269.900 255.052,272.697 253.052 C 273.592 252.412,274.379 251.457,274.805 250.492 C 275.808 248.226,279.578 244.842,281.100 244.842 C 281.354 244.842,281.732 244.469,281.939 244.013 C 282.735 242.267,286.204 238.717,287.903 237.911 C 288.776 237.496,289.113 237.037,289.492 235.743 C 289.994 234.028,290.616 232.781,292.053 230.610 C 292.524 229.898,293.009 228.816,293.131 228.206 C 293.253 227.595,293.487 227.013,293.650 226.912 C 293.814 226.811,293.947 226.431,293.947 226.067 C 293.947 225.703,294.101 225.405,294.288 225.405 C 294.476 225.405,294.630 225.213,294.630 224.979 C 294.634 223.573,299.154 220.159,302.203 219.259 C 303.942 218.746,305.541 215.758,305.541 213.024 C 305.541 211.138,306.754 206.161,307.597 204.585 C 308.542 202.820,310.680 201.215,312.960 200.559 C 315.633 199.791,318.370 196.526,318.830 193.559 C 319.037 192.225,319.349 190.213,319.523 189.088 C 319.698 187.962,320.084 184.663,320.381 181.756 C 320.851 177.163,321.743 172.472,323.491 165.414 C 324.409 161.706,326.095 158.983,329.945 154.987 L 333.558 151.236 333.851 148.425 C 334.012 146.878,334.263 145.420,334.409 145.185 C 334.556 144.950,334.781 136.164,334.910 125.661 C 335.157 105.605,335.513 100.481,336.903 97.016 C 337.054 96.641,337.379 95.644,337.626 94.800 C 338.468 91.923,341.939 87.298,343.256 87.298 C 343.519 87.298,343.734 87.144,343.734 86.957 C 343.734 86.769,344.032 86.616,344.396 86.616 C 344.760 86.616,345.142 86.479,345.245 86.313 C 345.347 86.147,345.964 85.911,346.614 85.789 C 347.440 85.634,348.417 84.947,349.853 83.511 L 351.910 81.454 351.750 77.470 C 351.662 75.279,351.422 68.883,351.218 63.257 C 351.014 57.630,350.820 52.726,350.786 52.359 C 350.750 51.971,350.192 51.413,349.449 51.022 L 348.173 50.352 345.788 51.148 C 344.049 51.729,343.350 52.137,343.207 52.656 C 342.348 55.756,339.514 59.313,336.895 60.579 C 333.713 62.116,333.296 62.194,330.668 61.747 C 320.145 59.956,318.452 59.462,315.950 57.460 C 313.822 55.756,313.556 55.478,312.363 53.708 C 311.014 51.708,310.971 51.674,308.868 50.986 C 307.978 50.694,306.304 49.845,305.149 49.098 C 303.994 48.352,302.771 47.741,302.432 47.741 C 298.562 47.741,292.066 42.511,290.859 38.423 C 290.306 36.549,290.332 36.557,282.864 36.108 C 270.847 35.386,259.529 35.400,257.460 36.139 " stroke="none" fill="#ffffff" fill-rule="evenodd"></path><path id="path1" d="M0.000 170.503 L 0.000 341.006 200.000 341.006 L 400.000 341.006 400.000 170.503 L 400.000 0.000 200.000 0.000 L 0.000 0.000 0.000 170.503 M294.629 24.213 C 309.450 25.081,313.874 27.113,315.420 33.760 C 316.555 38.638,316.702 38.717,325.320 39.063 C 333.541 39.393,333.153 39.397,338.107 38.933 C 340.358 38.722,343.350 38.462,344.757 38.354 C 349.467 37.994,350.267 37.520,351.225 34.522 C 351.480 33.722,351.894 32.898,352.145 32.690 C 352.395 32.482,352.600 32.085,352.600 31.809 C 352.600 31.194,355.598 28.303,356.235 28.303 C 356.486 28.303,356.692 28.188,356.692 28.046 C 356.692 27.904,357.498 27.405,358.483 26.937 C 363.285 24.656,369.809 27.078,372.463 32.128 C 373.986 35.027,374.073 35.658,374.076 43.819 L 374.079 51.662 375.834 55.158 C 376.800 57.080,377.730 58.653,377.902 58.653 C 379.274 58.653,384.103 63.054,385.295 65.392 C 386.340 67.439,382.956 72.232,379.084 74.190 C 377.384 75.049,376.519 76.691,375.231 81.500 C 373.001 89.829,371.539 91.455,364.632 93.290 C 362.148 93.949,360.648 95.626,359.926 98.551 C 358.867 102.845,358.771 103.143,358.415 103.262 C 358.218 103.328,358.056 103.661,358.056 104.002 C 358.056 104.852,354.140 108.726,353.007 108.997 C 352.502 109.117,351.935 109.327,351.748 109.463 C 351.560 109.599,350.724 109.815,349.889 109.943 C 347.359 110.330,347.485 109.717,347.485 121.676 C 347.485 127.597,347.337 134.138,347.155 136.212 C 346.974 138.286,346.572 146.275,346.263 153.964 C 345.583 170.849,345.074 174.871,343.182 178.299 C 342.172 180.129,340.391 182.097,339.746 182.097 C 339.501 182.097,339.301 182.214,339.301 182.358 C 339.301 182.798,336.490 183.881,334.868 184.066 C 333.063 184.273,332.834 184.534,332.827 186.388 C 332.824 187.154,332.677 188.612,332.501 189.628 C 332.324 190.644,332.009 193.470,331.801 195.908 C 330.645 209.425,327.540 214.152,319.820 214.152 C 318.011 214.152,317.818 214.400,317.818 216.720 C 317.818 217.904,317.671 219.614,317.493 220.520 C 317.314 221.425,316.991 223.316,316.774 224.723 C 316.360 227.404,315.628 231.224,315.142 233.248 C 314.721 234.997,313.427 237.369,312.357 238.355 C 309.743 240.761,309.194 241.041,305.013 242.096 C 303.441 242.493,302.344 243.736,301.976 245.538 C 300.336 253.558,298.304 255.633,290.196 257.566 C 288.067 258.073,286.786 259.485,286.786 261.322 C 286.786 266.964,281.083 272.370,275.021 272.474 C 273.533 272.499,271.937 274.021,271.455 275.874 C 270.671 278.886,270.304 279.811,269.429 280.984 C 266.498 284.912,265.650 285.293,255.754 287.133 C 253.291 287.590,249.281 288.113,246.884 288.288 C 243.753 288.517,243.478 288.670,243.478 290.182 C 243.478 292.635,241.894 296.260,240.073 297.974 C 237.298 300.586,232.810 301.621,219.096 302.809 C 213.896 303.259,212.482 303.827,212.454 305.478 C 212.442 306.220,210.625 309.700,210.156 309.880 C 209.915 309.972,209.719 310.258,209.719 310.515 C 209.719 310.771,209.297 311.253,208.781 311.584 C 208.265 311.915,207.546 312.455,207.182 312.785 C 206.818 313.115,206.332 313.384,206.102 313.384 C 205.871 313.384,204.941 313.749,204.035 314.194 C 196.344 317.972,101.724 318.171,83.546 314.446 C 81.989 314.127,80.720 313.720,78.261 312.750 C 76.152 311.918,72.168 307.724,71.578 305.715 C 71.231 304.535,70.865 303.995,70.247 303.754 C 69.778 303.572,69.107 303.272,68.756 303.088 C 68.405 302.905,66.640 302.610,64.834 302.434 C 63.029 302.257,60.554 301.948,59.335 301.746 C 58.116 301.544,56.198 301.258,55.072 301.109 C 49.222 300.335,42.626 297.218,42.626 295.226 C 42.626 294.965,42.459 294.727,41.420 293.509 C 41.015 293.034,40.239 290.556,40.239 289.737 C 40.239 288.101,37.598 285.025,35.635 284.374 C 31.923 283.143,27.298 277.760,27.207 274.565 C 27.130 271.840,30.496 267.513,34.237 265.528 C 36.930 264.099,38.550 263.953,42.701 264.765 C 50.662 266.322,51.702 266.336,55.683 264.948 C 59.584 263.588,61.669 263.319,71.441 262.921 C 75.942 262.737,81.390 262.418,83.546 262.211 C 85.703 262.004,89.847 261.698,92.754 261.532 C 95.661 261.366,99.497 261.075,101.279 260.886 C 103.061 260.696,106.105 260.439,108.044 260.314 C 112.928 259.999,113.312 258.864,108.956 257.618 C 107.734 257.269,106.735 256.860,106.735 256.710 C 106.735 256.560,106.494 256.436,106.199 256.436 C 105.458 256.436,102.306 253.332,102.304 252.600 C 102.303 252.272,102.177 252.003,102.024 252.003 C 101.397 252.003,99.574 246.933,99.574 245.190 C 99.574 244.821,99.246 244.446,98.806 244.309 C 98.384 244.178,97.632 243.784,97.134 243.434 C 96.636 243.083,95.761 242.796,95.189 242.796 C 94.618 242.796,93.797 242.662,93.366 242.499 C 92.936 242.335,91.969 242.018,91.219 241.794 C 86.893 240.503,83.546 236.140,83.546 231.791 C 83.546 230.758,82.891 229.156,82.469 229.156 C 82.311 229.156,82.182 228.936,82.182 228.667 C 82.182 228.132,82.068 228.087,78.602 227.274 C 73.381 226.049,71.541 224.345,69.589 218.926 C 69.307 218.141,69.055 214.006,68.853 206.839 C 68.685 200.848,68.392 194.714,68.203 193.208 C 68.015 191.702,67.860 189.364,67.860 188.013 C 67.860 185.255,67.068 184.143,65.103 184.143 C 62.581 184.143,58.770 182.685,57.033 181.056 C 55.350 179.477,54.751 178.005,53.572 172.549 C 52.583 167.974,52.012 166.941,50.206 166.458 C 43.517 164.669,40.805 159.191,39.550 144.928 C 39.110 139.926,39.273 138.029,40.628 132.396 C 41.011 130.803,42.442 127.742,43.162 126.975 C 43.364 126.760,43.799 125.839,44.129 124.929 C 45.051 122.383,46.168 120.034,46.457 120.034 C 46.601 120.034,46.718 119.799,46.718 119.511 C 46.718 118.384,50.336 114.237,51.320 114.237 C 51.553 114.237,51.937 113.548,52.173 112.705 C 52.717 110.763,52.355 110.262,50.185 109.948 C 49.310 109.821,48.440 109.605,48.252 109.467 C 48.065 109.329,47.498 109.117,46.993 108.997 C 45.860 108.726,41.944 104.852,41.944 104.002 C 41.944 103.661,41.782 103.328,41.585 103.262 C 41.387 103.196,41.090 102.608,40.925 101.955 C 39.488 96.274,39.515 96.604,39.476 84.569 C 39.424 68.556,40.293 59.954,42.457 55.072 C 42.707 54.510,43.178 53.359,43.505 52.515 C 45.628 47.028,53.180 41.478,60.188 40.254 C 61.500 40.025,63.512 39.624,64.657 39.364 C 66.428 38.962,66.939 38.962,68.067 39.361 C 68.797 39.620,70.085 40.029,70.929 40.271 C 75.183 41.489,77.625 44.576,78.753 50.158 C 79.288 52.806,80.633 54.073,83.567 54.692 C 87.068 55.430,90.700 57.228,90.705 58.227 C 90.707 58.461,90.823 58.654,90.963 58.655 C 91.761 58.663,93.434 62.371,93.930 65.232 C 94.212 66.862,95.883 68.542,97.221 68.542 C 101.469 68.542,108.781 72.636,108.781 75.014 C 108.781 75.318,108.908 75.713,109.064 75.891 C 109.519 76.410,110.145 78.918,110.145 80.219 C 110.145 81.826,110.670 82.170,113.430 82.374 C 116.064 82.570,120.038 83.093,122.592 83.582 C 123.529 83.761,125.141 84.068,126.172 84.264 C 131.294 85.237,133.402 86.100,135.406 88.045 C 137.287 89.870,139.114 93.545,139.125 95.526 C 139.134 97.071,140.629 97.336,154.305 98.215 C 170.788 99.274,180.033 100.153,183.269 100.968 L 184.926 101.385 185.910 100.224 C 188.385 97.300,188.808 96.430,189.046 93.777 C 189.940 83.802,193.621 76.352,198.869 73.894 C 199.966 73.380,200.193 73.059,200.658 71.350 C 200.952 70.275,201.346 68.923,201.534 68.347 C 201.722 67.772,201.876 66.912,201.876 66.438 C 201.876 65.963,202.012 65.130,202.180 64.586 C 202.347 64.043,202.683 62.677,202.927 61.552 C 203.573 58.570,205.380 55.584,206.539 55.584 C 206.787 55.584,206.991 55.468,206.991 55.326 C 206.991 55.032,208.276 54.455,210.145 53.911 C 210.848 53.706,211.933 53.384,212.556 53.197 C 213.179 53.009,213.943 52.856,214.253 52.856 C 215.068 52.856,215.769 51.578,216.032 49.616 C 216.600 45.376,219.152 40.580,220.841 40.580 C 221.101 40.580,221.314 40.465,221.316 40.324 C 221.322 39.692,225.858 38.231,227.894 38.205 C 229.685 38.182,230.774 37.330,231.042 35.741 C 231.177 34.947,231.411 34.061,231.563 33.773 C 231.716 33.484,232.244 32.382,232.737 31.323 C 234.290 27.991,236.641 26.388,241.944 25.049 C 245.960 24.034,281.852 23.465,294.629 24.213 " stroke="none" fill="#00adcc" fill-rule="evenodd"></path><path id="path2" d="M248.423 24.382 C 245.422 24.606,242.506 24.906,241.944 25.049 C 239.568 25.649,236.759 26.778,235.806 27.515 C 234.026 28.893,233.655 29.352,232.737 31.323 C 232.244 32.382,231.716 33.484,231.563 33.773 C 231.411 34.061,231.177 34.947,231.042 35.741 C 230.774 37.330,229.685 38.182,227.894 38.205 C 225.858 38.231,221.322 39.692,221.316 40.324 C 221.314 40.465,221.101 40.580,220.841 40.580 C 219.152 40.580,216.600 45.376,216.032 49.616 C 215.769 51.578,215.068 52.856,214.253 52.856 C 213.943 52.856,213.179 53.009,212.556 53.197 C 211.933 53.384,210.848 53.706,210.145 53.911 C 208.276 54.455,206.991 55.032,206.991 55.326 C 206.991 55.468,206.787 55.584,206.539 55.584 C 205.380 55.584,203.573 58.570,202.927 61.552 C 202.683 62.677,202.347 64.043,202.180 64.586 C 202.012 65.130,201.876 65.963,201.876 66.438 C 201.876 66.912,201.722 67.772,201.534 68.347 C 201.346 68.923,200.952 70.275,200.658 71.350 C 200.193 73.059,199.966 73.380,198.869 73.894 C 193.621 76.352,189.940 83.802,189.046 93.777 C 188.808 96.430,188.385 97.300,185.910 100.224 L 184.926 101.385 183.269 100.968 C 180.033 100.153,170.788 99.274,154.305 98.215 C 140.629 97.336,139.134 97.071,139.125 95.526 C 139.114 93.545,137.287 89.870,135.406 88.045 C 133.402 86.100,131.294 85.237,126.172 84.264 C 125.141 84.068,123.529 83.761,122.592 83.582 C 120.038 83.093,116.064 82.570,113.430 82.374 C 110.670 82.170,110.145 81.826,110.145 80.219 C 110.145 78.918,109.519 76.410,109.064 75.891 C 108.908 75.713,108.781 75.318,108.781 75.014 C 108.781 72.636,101.469 68.542,97.221 68.542 C 95.883 68.542,94.212 66.862,93.930 65.232 C 93.434 62.371,91.761 58.663,90.963 58.655 C 90.823 58.654,90.707 58.461,90.705 58.227 C 90.700 57.228,87.068 55.430,83.567 54.692 C 80.633 54.073,79.288 52.806,78.753 50.158 C 77.625 44.576,75.183 41.489,70.929 40.271 C 70.085 40.029,68.797 39.620,68.067 39.361 C 66.939 38.962,66.428 38.962,64.657 39.364 C 63.512 39.624,61.500 40.025,60.188 40.254 C 53.180 41.478,45.628 47.028,43.505 52.515 C 43.178 53.359,42.707 54.510,42.457 55.072 C 40.293 59.954,39.424 68.556,39.476 84.569 C 39.515 96.604,39.488 96.274,40.925 101.955 C 41.090 102.608,41.387 103.196,41.585 103.262 C 41.782 103.328,41.944 103.661,41.944 104.002 C 41.944 104.852,45.860 108.726,46.993 108.997 C 47.498 109.117,48.065 109.329,48.252 109.467 C 48.440 109.605,49.310 109.821,50.185 109.948 C 52.355 110.262,52.717 110.763,52.173 112.705 C 51.937 113.548,51.553 114.237,51.320 114.237 C 50.336 114.237,46.718 118.384,46.718 119.511 C 46.718 119.799,46.601 120.034,46.457 120.034 C 46.168 120.034,45.051 122.383,44.129 124.929 C 43.799 125.839,43.364 126.760,43.162 126.975 C 42.442 127.742,41.011 130.803,40.628 132.396 C 39.273 138.029,39.110 139.926,39.550 144.928 C 40.265 153.049,41.007 156.495,42.959 160.761 C 43.989 163.011,47.429 165.716,50.206 166.458 C 52.012 166.941,52.583 167.974,53.572 172.549 C 54.751 178.005,55.350 179.477,57.033 181.056 C 58.770 182.685,62.581 184.143,65.103 184.143 C 67.068 184.143,67.860 185.255,67.860 188.013 C 67.860 189.364,68.015 191.702,68.203 193.208 C 68.392 194.714,68.685 200.848,68.853 206.839 C 69.055 214.006,69.307 218.141,69.589 218.926 C 71.541 224.345,73.381 226.049,78.602 227.274 C 82.068 228.087,82.182 228.132,82.182 228.667 C 82.182 228.936,82.311 229.156,82.469 229.156 C 82.891 229.156,83.546 230.758,83.546 231.791 C 83.546 236.140,86.893 240.503,91.219 241.794 C 91.969 242.018,92.936 242.335,93.366 242.499 C 93.797 242.662,94.618 242.796,95.189 242.796 C 95.761 242.796,96.636 243.083,97.134 243.434 C 97.632 243.784,98.384 244.178,98.806 244.309 C 99.246 244.446,99.574 244.821,99.574 245.190 C 99.574 246.933,101.397 252.003,102.024 252.003 C 102.177 252.003,102.303 252.272,102.304 252.600 C 102.306 253.332,105.458 256.436,106.199 256.436 C 106.494 256.436,106.735 256.560,106.735 256.710 C 106.735 256.860,107.734 257.269,108.956 257.618 C 113.312 258.864,112.928 259.999,108.044 260.314 C 106.105 260.439,103.061 260.696,101.279 260.886 C 99.497 261.075,95.661 261.366,92.754 261.532 C 89.847 261.698,85.703 262.004,83.546 262.211 C 81.390 262.418,75.942 262.737,71.441 262.921 C 61.669 263.319,59.584 263.588,55.683 264.948 C 51.702 266.336,50.662 266.322,42.701 264.765 C 38.550 263.953,36.930 264.099,34.237 265.528 C 30.496 267.513,27.130 271.840,27.207 274.565 C 27.298 277.760,31.923 283.143,35.635 284.374 C 37.598 285.025,40.239 288.101,40.239 289.737 C 40.239 290.556,41.015 293.034,41.420 293.509 C 42.459 294.727,42.626 294.965,42.626 295.226 C 42.626 297.218,49.222 300.335,55.072 301.109 C 56.198 301.258,58.116 301.544,59.335 301.746 C 60.554 301.948,63.029 302.257,64.834 302.434 C 66.640 302.610,68.405 302.905,68.756 303.088 C 69.107 303.272,69.778 303.572,70.247 303.754 C 70.865 303.995,71.231 304.535,71.578 305.715 C 71.943 306.958,72.629 307.919,74.477 309.778 C 77.821 313.141,80.185 314.063,88.491 315.246 C 103.055 317.321,177.830 317.693,195.908 315.780 C 201.288 315.211,202.410 314.992,204.035 314.194 C 204.941 313.749,205.871 313.384,206.102 313.384 C 206.332 313.384,206.818 313.115,207.182 312.785 C 207.546 312.455,208.265 311.915,208.781 311.584 C 209.297 311.253,209.719 310.771,209.719 310.515 C 209.719 310.258,209.915 309.972,210.156 309.880 C 210.625 309.700,212.442 306.220,212.454 305.478 C 212.482 303.827,213.896 303.259,219.096 302.809 C 232.810 301.621,237.298 300.586,240.073 297.974 C 241.894 296.260,243.478 292.635,243.478 290.182 C 243.478 288.670,243.753 288.517,246.884 288.288 C 249.281 288.113,253.291 287.590,255.754 287.133 C 265.650 285.293,266.498 284.912,269.429 280.984 C 270.304 279.811,270.671 278.886,271.455 275.874 C 271.937 274.021,273.533 272.499,275.021 272.474 C 281.083 272.370,286.786 266.964,286.786 261.322 C 286.786 259.485,288.067 258.073,290.196 257.566 C 298.304 255.633,300.336 253.558,301.976 245.538 C 302.344 243.736,303.441 242.493,305.013 242.096 C 309.194 241.041,309.743 240.761,312.357 238.355 C 313.427 237.369,314.721 234.997,315.142 233.248 C 315.628 231.224,316.360 227.404,316.774 224.723 C 316.991 223.316,317.314 221.425,317.493 220.520 C 317.671 219.614,317.818 217.904,317.818 216.720 C 317.818 214.400,318.011 214.152,319.820 214.152 C 327.540 214.152,330.645 209.425,331.801 195.908 C 332.009 193.470,332.324 190.644,332.501 189.628 C 332.677 188.612,332.824 187.154,332.827 186.388 C 332.834 184.534,333.063 184.273,334.868 184.066 C 336.490 183.881,339.301 182.798,339.301 182.358 C 339.301 182.214,339.501 182.097,339.746 182.097 C 340.391 182.097,342.172 180.129,343.182 178.299 C 345.074 174.871,345.583 170.849,346.263 153.964 C 346.572 146.275,346.974 138.286,347.155 136.212 C 347.337 134.138,347.485 127.597,347.485 121.676 C 347.485 109.717,347.359 110.330,349.889 109.943 C 350.724 109.815,351.560 109.599,351.748 109.463 C 351.935 109.327,352.502 109.117,353.007 108.997 C 354.140 108.726,358.056 104.852,358.056 104.002 C 358.056 103.661,358.218 103.328,358.415 103.262 C 358.771 103.143,358.867 102.845,359.926 98.551 C 360.648 95.626,362.148 93.949,364.632 93.290 C 369.691 91.946,371.753 90.558,373.189 87.530 C 374.035 85.745,374.319 84.906,375.231 81.500 C 376.519 76.691,377.384 75.049,379.084 74.190 C 382.956 72.232,386.340 67.439,385.295 65.392 C 384.103 63.054,379.274 58.653,377.902 58.653 C 377.730 58.653,376.800 57.080,375.834 55.158 L 374.079 51.662 374.076 43.819 C 374.073 35.658,373.986 35.027,372.463 32.128 C 369.809 27.078,363.285 24.656,358.483 26.937 C 357.498 27.405,356.692 27.904,356.692 28.046 C 356.692 28.188,356.486 28.303,356.235 28.303 C 355.598 28.303,352.600 31.194,352.600 31.809 C 352.600 32.085,352.395 32.482,352.145 32.690 C 351.894 32.898,351.480 33.722,351.225 34.522 C 350.267 37.520,349.467 37.994,344.757 38.354 C 343.350 38.462,340.358 38.722,338.107 38.933 C 333.153 39.397,333.541 39.393,325.320 39.063 C 316.702 38.717,316.555 38.638,315.420 33.760 C 314.255 28.751,310.316 25.876,303.325 24.931 C 295.257 23.841,260.328 23.492,248.423 24.382 M289.960 28.618 C 290.746 28.791,292.540 29.120,293.947 29.349 C 297.995 30.008,303.531 31.495,304.613 32.213 C 305.275 32.653,306.674 34.089,310.271 38.022 C 311.642 39.521,314.336 41.793,315.377 42.329 C 315.875 42.585,316.360 42.872,316.454 42.966 C 317.125 43.640,318.621 44.041,321.651 44.360 C 323.575 44.562,326.973 44.922,329.202 45.160 C 332.917 45.557,333.457 45.539,335.681 44.951 C 337.871 44.373,339.544 44.016,344.928 42.983 C 345.865 42.802,348.090 42.477,349.872 42.260 C 353.660 41.799,356.493 41.072,357.179 40.385 C 357.447 40.117,357.793 39.896,357.947 39.893 C 358.217 39.889,359.761 37.712,359.761 37.335 C 359.761 37.127,362.007 35.089,362.658 34.707 C 362.910 34.559,363.570 34.954,364.318 35.701 L 365.558 36.942 365.558 44.507 C 365.558 48.668,365.694 52.517,365.860 53.061 C 366.025 53.605,366.325 54.663,366.525 55.413 C 367.506 59.082,369.177 64.082,369.831 65.303 C 370.417 66.397,370.503 66.903,370.263 67.860 C 369.568 70.635,368.992 74.074,368.606 77.749 C 368.380 79.906,368.038 81.975,367.846 82.346 C 367.305 83.391,364.655 85.821,362.660 87.101 C 360.952 88.197,354.842 94.497,353.373 96.675 C 351.802 99.006,351.383 99.508,348.231 102.831 C 346.223 104.948,344.754 107.312,343.368 110.656 C 343.212 111.032,343.007 117.400,342.912 124.808 C 342.818 132.217,342.584 140.426,342.393 143.052 C 340.714 166.126,339.481 171.392,334.766 175.616 C 334.241 176.086,333.466 176.777,333.042 177.153 C 330.675 179.250,328.387 184.496,328.017 188.675 C 327.309 196.688,326.536 200.516,325.147 202.899 C 323.815 205.182,321.148 208.014,320.328 208.014 C 320.072 208.014,319.864 208.167,319.864 208.355 C 319.864 208.542,319.656 208.696,319.403 208.696 C 318.205 208.696,313.384 214.335,313.384 215.735 C 313.384 216.057,313.241 216.791,313.067 217.367 C 312.892 217.943,312.573 219.105,312.358 219.949 C 311.678 222.618,310.582 226.217,310.099 227.366 C 308.921 230.170,308.461 230.853,306.361 232.919 C 299.177 239.985,299.240 239.907,296.348 245.250 C 294.917 247.896,292.437 250.350,289.409 252.120 C 287.018 253.518,283.024 257.589,281.160 260.529 C 279.448 263.229,277.321 265.475,275.672 266.325 C 275.126 266.606,274.604 266.913,274.510 267.008 C 274.416 267.102,273.879 267.408,273.316 267.688 C 270.377 269.151,264.621 273.741,264.621 274.622 C 264.621 277.150,255.199 281.928,246.718 283.702 C 243.319 284.412,238.037 287.609,237.340 289.377 C 236.272 292.088,230.877 295.976,227.280 296.626 C 225.968 296.863,224.203 297.188,223.359 297.349 C 222.515 297.509,220.673 297.813,219.267 298.025 C 214.958 298.674,213.443 299.028,210.571 300.058 C 208.659 300.744,203.697 303.447,202.767 304.309 C 198.676 308.103,190.352 310.647,179.710 311.354 C 176.803 311.547,172.583 311.868,170.332 312.067 C 168.082 312.266,156.726 312.506,145.098 312.600 C 124.488 312.768,121.019 312.659,115.942 311.683 C 114.482 311.402,111.909 311.080,105.030 310.315 C 94.693 309.167,93.686 308.925,88.662 306.386 C 80.257 302.139,80.242 302.131,79.742 302.131 C 79.519 302.131,79.095 301.926,78.799 301.676 C 78.178 301.151,71.439 299.020,67.349 298.057 C 61.387 296.652,58.950 295.824,55.509 294.033 C 51.571 291.983,48.914 289.637,49.208 288.469 C 50.058 285.080,57.498 276.225,60.961 274.479 C 61.849 274.032,62.651 273.586,62.745 273.487 C 63.974 272.192,68.350 271.284,77.579 270.408 C 79.829 270.195,82.195 269.783,82.836 269.494 C 83.959 268.987,87.512 267.998,90.708 267.304 C 94.670 266.443,96.592 266.159,104.007 265.343 C 111.293 264.540,112.846 263.957,116.179 260.768 C 117.518 259.488,117.582 259.343,117.178 258.515 C 116.940 258.028,116.536 256.939,116.280 256.095 C 116.024 255.251,115.537 254.154,115.196 253.656 C 114.856 253.158,114.578 252.649,114.578 252.524 C 114.578 252.099,112.387 249.109,111.179 247.884 C 110.516 247.213,109.427 246.049,108.758 245.298 C 108.088 244.546,107.053 243.643,106.456 243.290 C 105.859 242.938,105.371 242.529,105.371 242.382 C 105.371 242.235,105.219 242.114,105.033 242.114 C 104.848 242.114,103.658 241.460,102.391 240.661 C 101.123 239.861,99.625 239.000,99.062 238.746 C 98.500 238.491,97.773 238.148,97.447 237.982 C 97.121 237.817,96.623 237.681,96.339 237.681 C 96.055 237.681,95.823 237.565,95.823 237.423 C 95.823 237.282,95.369 236.965,94.815 236.720 C 93.256 236.030,90.334 232.937,88.895 230.455 C 86.678 226.631,81.947 221.654,80.528 221.654 C 80.312 221.654,80.136 221.500,80.136 221.313 C 80.136 221.125,79.973 220.972,79.773 220.972 C 79.217 220.972,75.924 217.553,75.103 216.124 C 74.398 214.896,74.387 214.686,74.734 209.474 C 75.102 203.944,74.964 199.164,74.332 195.567 C 74.134 194.442,73.833 192.600,73.664 191.475 C 72.786 185.655,72.624 185.092,71.436 183.704 C 70.010 182.038,67.555 180.169,65.293 179.028 C 61.890 177.311,58.606 173.103,57.311 168.798 C 55.860 163.974,55.407 162.850,53.420 159.151 C 52.893 158.171,51.734 156.399,51.477 156.181 C 49.017 154.092,44.311 142.207,45.119 140.123 C 46.594 136.323,48.991 132.918,52.163 130.116 C 52.814 129.541,53.978 128.456,54.750 127.705 L 56.153 126.339 56.395 122.419 C 56.990 112.741,57.024 111.431,56.693 110.717 C 54.700 106.411,53.807 104.980,51.769 102.831 C 46.679 97.465,46.453 97.078,46.039 93.046 C 45.858 91.291,45.555 88.330,45.365 86.466 C 45.174 84.603,44.927 82.791,44.816 82.440 C 44.704 82.089,44.768 81.082,44.958 80.202 C 45.283 78.693,45.537 77.279,46.397 72.208 C 47.240 67.238,50.940 58.653,52.239 58.653 C 52.391 58.653,52.515 58.493,52.515 58.298 C 52.515 58.102,52.671 57.757,52.862 57.530 C 54.174 55.975,54.561 55.448,54.561 55.215 C 54.561 55.070,54.760 54.748,55.003 54.500 C 55.247 54.252,55.922 53.354,56.503 52.504 C 58.709 49.280,65.904 44.974,67.468 45.942 C 68.731 46.724,71.680 49.817,72.293 51.004 C 73.483 53.307,78.367 58.320,81.500 60.455 C 82.907 61.413,84.355 62.474,84.719 62.812 C 85.083 63.150,85.505 63.427,85.657 63.427 C 85.809 63.427,85.934 63.657,85.934 63.939 C 85.934 64.220,86.054 64.450,86.201 64.450 C 86.348 64.450,86.729 64.892,87.048 65.431 C 87.367 65.971,88.052 66.872,88.571 67.433 C 89.090 67.995,89.915 68.896,90.405 69.436 C 91.505 70.647,92.457 71.431,93.494 71.977 C 93.931 72.207,94.365 72.497,94.459 72.622 C 94.552 72.747,95.934 73.557,97.528 74.423 C 100.572 76.076,102.140 77.493,104.021 80.289 C 105.320 82.221,108.377 85.251,109.026 85.251 C 109.266 85.251,109.463 85.367,109.463 85.509 C 109.463 85.866,110.987 86.440,113.214 86.921 C 115.704 87.459,117.629 87.976,118.666 88.386 C 119.132 88.570,120.666 89.107,122.074 89.580 C 126.493 91.063,129.178 92.849,131.476 95.832 C 131.841 96.306,132.677 97.066,133.333 97.520 C 133.990 97.975,134.604 98.434,134.697 98.539 C 134.791 98.644,135.635 99.104,136.573 99.561 C 137.511 100.018,138.488 100.548,138.744 100.740 C 139.625 101.397,141.691 101.951,143.282 101.956 C 144.158 101.958,145.616 102.106,146.521 102.283 C 147.426 102.460,149.471 102.779,151.066 102.992 C 155.746 103.617,161.552 104.580,163.342 105.029 C 163.998 105.193,165.303 105.504,166.240 105.720 C 167.178 105.936,168.483 106.317,169.139 106.568 C 169.795 106.818,171.867 107.500,173.743 108.082 C 177.349 109.202,177.631 109.307,180.051 110.429 C 183.202 111.889,185.014 112.294,186.378 111.844 C 188.909 111.009,193.202 105.665,195.551 100.426 C 196.224 98.926,196.925 97.432,197.109 97.106 C 197.292 96.780,197.442 96.357,197.442 96.165 C 197.442 95.773,198.833 92.678,199.128 92.413 C 199.543 92.039,200.416 90.113,200.829 88.662 C 201.068 87.818,201.416 86.743,201.602 86.275 C 201.788 85.806,202.322 83.964,202.789 82.182 C 203.256 80.401,203.766 78.483,203.923 77.920 C 204.080 77.357,204.455 75.899,204.756 74.680 C 205.057 73.461,205.452 71.993,205.635 71.417 C 205.818 70.841,205.968 70.064,205.968 69.691 C 205.968 66.595,210.000 60.590,213.163 58.977 C 215.422 57.824,219.442 54.028,220.280 52.255 C 221.180 50.349,222.121 48.588,222.327 48.423 C 222.444 48.329,222.889 47.751,223.318 47.138 C 224.303 45.727,227.136 43.808,230.897 42.003 C 233.927 40.549,235.956 38.838,239.657 34.612 C 242.522 31.342,244.395 30.494,251.321 29.331 C 252.728 29.095,254.339 28.781,254.902 28.633 C 256.354 28.252,288.235 28.239,289.960 28.618 " stroke="none" fill="#3cbed7" fill-rule="evenodd"></path><path id="path3" d="M254.902 28.633 C 254.339 28.781,252.728 29.095,251.321 29.331 C 244.395 30.494,242.522 31.342,239.657 34.612 C 235.956 38.838,233.927 40.549,230.897 42.003 C 227.136 43.808,224.303 45.727,223.318 47.138 C 222.889 47.751,222.444 48.329,222.327 48.423 C 222.121 48.588,221.180 50.349,220.280 52.255 C 219.442 54.028,215.422 57.824,213.163 58.977 C 210.000 60.590,205.968 66.595,205.968 69.691 C 205.968 70.064,205.818 70.841,205.635 71.417 C 205.452 71.993,205.057 73.461,204.756 74.680 C 204.455 75.899,204.080 77.357,203.923 77.920 C 203.766 78.483,203.256 80.401,202.789 82.182 C 202.322 83.964,201.788 85.806,201.602 86.275 C 201.416 86.743,201.068 87.818,200.829 88.662 C 200.416 90.113,199.543 92.039,199.128 92.413 C 198.833 92.678,197.442 95.773,197.442 96.165 C 197.442 96.357,197.292 96.780,197.109 97.106 C 196.925 97.432,196.224 98.926,195.551 100.426 C 193.202 105.665,188.909 111.009,186.378 111.844 C 185.014 112.294,183.202 111.889,180.051 110.429 C 177.631 109.307,177.349 109.202,173.743 108.082 C 171.867 107.500,169.795 106.818,169.139 106.568 C 168.483 106.317,167.178 105.936,166.240 105.720 C 165.303 105.504,163.998 105.193,163.342 105.029 C 161.552 104.580,155.746 103.617,151.066 102.992 C 149.471 102.779,147.426 102.460,146.521 102.283 C 145.616 102.106,144.158 101.958,143.282 101.956 C 141.691 101.951,139.625 101.397,138.744 100.740 C 138.488 100.548,137.511 100.018,136.573 99.561 C 135.635 99.104,134.791 98.644,134.697 98.539 C 134.604 98.434,133.990 97.975,133.333 97.520 C 132.677 97.066,131.841 96.306,131.476 95.832 C 129.178 92.849,126.493 91.063,122.074 89.580 C 120.666 89.107,119.132 88.570,118.666 88.386 C 117.629 87.976,115.704 87.459,113.214 86.921 C 110.987 86.440,109.463 85.866,109.463 85.509 C 109.463 85.367,109.266 85.251,109.026 85.251 C 108.377 85.251,105.320 82.221,104.021 80.289 C 102.140 77.493,100.572 76.076,97.528 74.423 C 95.934 73.557,94.552 72.747,94.459 72.622 C 94.365 72.497,93.931 72.207,93.494 71.977 C 92.457 71.431,91.505 70.647,90.405 69.436 C 89.915 68.896,89.090 67.995,88.571 67.433 C 88.052 66.872,87.367 65.971,87.048 65.431 C 86.729 64.892,86.348 64.450,86.201 64.450 C 86.054 64.450,85.934 64.220,85.934 63.939 C 85.934 63.657,85.809 63.427,85.657 63.427 C 85.505 63.427,85.083 63.150,84.719 62.812 C 84.355 62.474,82.907 61.413,81.500 60.455 C 78.367 58.320,73.483 53.307,72.293 51.004 C 71.680 49.817,68.731 46.724,67.468 45.942 C 65.904 44.974,58.709 49.280,56.503 52.504 C 55.922 53.354,55.247 54.252,55.003 54.500 C 54.760 54.748,54.561 55.070,54.561 55.215 C 54.561 55.448,54.174 55.975,52.862 57.530 C 52.671 57.757,52.515 58.102,52.515 58.298 C 52.515 58.493,52.391 58.653,52.239 58.653 C 50.940 58.653,47.240 67.238,46.397 72.208 C 45.537 77.279,45.283 78.693,44.958 80.202 C 44.768 81.082,44.704 82.089,44.816 82.440 C 44.927 82.791,45.174 84.603,45.365 86.466 C 46.564 98.200,45.993 96.742,51.769 102.831 C 53.807 104.980,54.700 106.411,56.693 110.717 C 57.024 111.431,56.990 112.741,56.395 122.419 L 56.153 126.339 54.750 127.705 C 53.978 128.456,52.814 129.541,52.163 130.116 C 48.991 132.918,46.594 136.323,45.119 140.123 C 44.311 142.207,49.017 154.092,51.477 156.181 C 51.734 156.399,52.893 158.171,53.420 159.151 C 55.407 162.850,55.860 163.974,57.311 168.798 C 58.606 173.103,61.890 177.311,65.293 179.028 C 67.555 180.169,70.010 182.038,71.436 183.704 C 72.624 185.092,72.786 185.655,73.664 191.475 C 73.833 192.600,74.134 194.442,74.332 195.567 C 74.964 199.164,75.102 203.944,74.734 209.474 C 74.387 214.686,74.398 214.896,75.103 216.124 C 75.924 217.553,79.217 220.972,79.773 220.972 C 79.973 220.972,80.136 221.125,80.136 221.313 C 80.136 221.500,80.312 221.654,80.528 221.654 C 81.947 221.654,86.678 226.631,88.895 230.455 C 90.334 232.937,93.256 236.030,94.815 236.720 C 95.369 236.965,95.823 237.282,95.823 237.423 C 95.823 237.565,96.055 237.681,96.339 237.681 C 96.623 237.681,97.121 237.817,97.447 237.982 C 97.773 238.148,98.500 238.491,99.062 238.746 C 99.625 239.000,101.123 239.861,102.391 240.661 C 103.658 241.460,104.848 242.114,105.033 242.114 C 105.219 242.114,105.371 242.235,105.371 242.382 C 105.371 242.529,105.859 242.938,106.456 243.290 C 107.053 243.643,108.088 244.546,108.758 245.298 C 109.427 246.049,110.516 247.213,111.179 247.884 C 112.387 249.109,114.578 252.099,114.578 252.524 C 114.578 252.649,114.856 253.158,115.196 253.656 C 115.537 254.154,116.024 255.251,116.280 256.095 C 116.536 256.939,116.940 258.028,117.178 258.515 C 117.582 259.343,117.518 259.488,116.179 260.768 C 112.846 263.957,111.293 264.540,104.007 265.343 C 96.592 266.159,94.670 266.443,90.708 267.304 C 87.512 267.998,83.959 268.987,82.836 269.494 C 82.195 269.783,79.829 270.195,77.579 270.408 C 68.350 271.284,63.974 272.192,62.745 273.487 C 62.651 273.586,61.849 274.032,60.961 274.479 C 57.498 276.225,50.058 285.080,49.208 288.469 C 48.914 289.637,51.571 291.983,55.509 294.033 C 58.950 295.824,61.387 296.652,67.349 298.057 C 71.439 299.020,78.178 301.151,78.799 301.676 C 79.095 301.926,79.519 302.131,79.742 302.131 C 80.242 302.131,80.257 302.139,88.662 306.386 C 93.686 308.925,94.693 309.167,105.030 310.315 C 111.909 311.080,114.482 311.402,115.942 311.683 C 121.019 312.659,124.488 312.768,145.098 312.600 C 156.726 312.506,168.082 312.266,170.332 312.067 C 172.583 311.868,176.803 311.547,179.710 311.354 C 190.352 310.647,198.676 308.103,202.767 304.309 C 203.697 303.447,208.659 300.744,210.571 300.058 C 213.443 299.028,214.958 298.674,219.267 298.025 C 220.673 297.813,222.515 297.509,223.359 297.349 C 224.203 297.188,225.968 296.863,227.280 296.626 C 230.877 295.976,236.272 292.088,237.340 289.377 C 238.037 287.609,243.319 284.412,246.718 283.702 C 255.199 281.928,264.621 277.150,264.621 274.622 C 264.621 273.741,270.377 269.151,273.316 267.688 C 273.879 267.408,274.416 267.102,274.510 267.008 C 274.604 266.913,275.126 266.606,275.672 266.325 C 277.321 265.475,279.448 263.229,281.160 260.529 C 283.024 257.589,287.018 253.518,289.409 252.120 C 292.437 250.350,294.917 247.896,296.348 245.250 C 299.240 239.907,299.177 239.985,306.361 232.919 C 308.461 230.853,308.921 230.170,310.099 227.366 C 310.582 226.217,311.678 222.618,312.358 219.949 C 312.573 219.105,312.892 217.943,313.067 217.367 C 313.241 216.791,313.384 216.057,313.384 215.735 C 313.384 214.335,318.205 208.696,319.403 208.696 C 319.656 208.696,319.864 208.542,319.864 208.355 C 319.864 208.167,320.072 208.014,320.328 208.014 C 321.148 208.014,323.815 205.182,325.147 202.899 C 326.536 200.516,327.309 196.688,328.017 188.675 C 328.387 184.496,330.675 179.250,333.042 177.153 C 335.352 175.106,335.808 174.646,336.761 173.399 C 339.262 170.126,340.795 163.483,341.718 151.918 C 342.589 141.014,342.752 137.312,342.912 124.808 C 343.007 117.400,343.212 111.032,343.368 110.656 C 344.754 107.312,346.223 104.948,348.231 102.831 C 351.383 99.508,351.802 99.006,353.373 96.675 C 354.842 94.497,360.952 88.197,362.660 87.101 C 364.655 85.821,367.305 83.391,367.846 82.346 C 368.038 81.975,368.380 79.906,368.606 77.749 C 368.992 74.074,369.568 70.635,370.263 67.860 C 370.503 66.903,370.417 66.397,369.831 65.303 C 369.177 64.082,367.506 59.082,366.525 55.413 C 366.325 54.663,366.025 53.605,365.860 53.061 C 365.694 52.517,365.558 48.668,365.558 44.507 L 365.558 36.942 364.318 35.701 C 363.570 34.954,362.910 34.559,362.658 34.707 C 362.007 35.089,359.761 37.127,359.761 37.335 C 359.761 37.712,358.217 39.889,357.947 39.893 C 357.793 39.896,357.447 40.117,357.179 40.385 C 356.493 41.072,353.660 41.799,349.872 42.260 C 348.090 42.477,345.865 42.802,344.928 42.983 C 339.544 44.016,337.871 44.373,335.681 44.951 C 333.457 45.539,332.917 45.557,329.202 45.160 C 326.973 44.922,323.575 44.562,321.651 44.360 C 318.621 44.041,317.125 43.640,316.454 42.966 C 316.360 42.872,315.875 42.585,315.377 42.329 C 314.336 41.793,311.642 39.521,310.271 38.022 C 306.674 34.089,305.275 32.653,304.613 32.213 C 303.531 31.495,297.995 30.008,293.947 29.349 C 292.540 29.120,290.746 28.791,289.960 28.618 C 288.235 28.239,256.354 28.252,254.902 28.633 M286.957 33.016 C 288.832 33.173,290.750 33.462,291.219 33.657 C 292.474 34.181,294.448 34.783,294.913 34.783 C 295.136 34.783,295.969 35.068,296.764 35.416 C 297.559 35.765,298.651 36.231,299.190 36.451 C 299.729 36.672,300.880 37.422,301.748 38.118 C 303.398 39.442,303.664 39.701,305.435 41.709 C 309.335 46.132,315.496 49.236,322.080 50.095 C 325.747 50.573,328.485 51.047,331.389 51.704 C 333.289 52.134,333.597 52.130,334.056 51.670 C 334.342 51.385,334.841 51.151,335.165 51.151 C 335.489 51.151,335.900 51.013,336.078 50.845 C 336.620 50.333,345.372 47.528,347.478 47.191 C 349.599 46.852,353.636 48.469,355.884 50.558 C 357.283 51.859,357.294 51.887,357.483 54.834 C 357.954 62.177,358.394 67.579,358.540 67.816 C 358.628 67.958,358.864 69.599,359.064 71.462 C 359.551 75.988,360.031 79.563,360.290 80.593 C 360.473 81.323,360.235 81.632,358.511 82.897 C 355.929 84.793,351.494 89.229,349.202 92.209 C 348.206 93.504,346.589 95.345,345.609 96.301 C 343.154 98.696,340.324 103.239,340.324 104.787 C 340.324 105.033,340.179 105.380,340.003 105.558 C 339.142 106.426,338.856 109.600,338.590 121.228 C 338.306 133.656,337.796 144.152,337.266 148.508 C 337.106 149.821,336.877 151.893,336.757 153.112 C 336.636 154.331,336.399 155.865,336.228 156.522 C 336.058 157.178,335.692 158.636,335.415 159.761 C 334.342 164.121,333.668 165.957,332.584 167.475 C 331.964 168.341,331.458 169.211,331.458 169.407 C 331.458 169.603,331.340 169.815,331.196 169.878 C 330.705 170.090,328.048 173.443,328.048 173.850 C 328.048 174.072,327.933 174.254,327.792 174.255 C 326.797 174.258,323.921 182.591,323.438 186.871 C 322.500 195.173,321.695 200.115,321.174 200.773 C 320.016 202.236,318.704 203.581,318.436 203.581 C 315.613 203.581,310.717 209.338,308.993 214.684 C 307.833 218.283,306.595 221.388,304.641 225.604 C 304.178 226.603,303.432 227.398,298.465 232.181 C 297.293 233.310,296.334 234.325,296.334 234.438 C 296.334 234.550,295.989 235.015,295.567 235.470 C 294.661 236.448,292.961 239.751,291.883 242.626 C 291.014 244.943,289.202 247.068,287.860 247.343 C 286.196 247.685,280.337 251.632,280.314 252.427 C 280.310 252.566,279.962 253.077,279.540 253.562 C 278.558 254.690,276.897 257.685,276.897 258.328 C 276.897 259.108,274.614 261.430,273.398 261.887 C 272.223 262.329,271.815 262.496,269.395 263.523 C 268.005 264.113,266.728 264.879,264.286 266.586 C 263.499 267.137,262.418 268.210,258.162 272.666 C 256.963 273.921,255.587 274.846,253.201 275.999 C 250.214 277.442,248.683 278.009,241.477 280.341 C 237.370 281.671,234.505 283.740,232.288 286.979 C 229.898 290.470,230.095 290.336,225.575 291.537 C 222.403 292.380,221.381 292.660,220.436 292.947 C 219.860 293.122,219.104 293.265,218.755 293.265 C 218.407 293.265,217.650 293.410,217.075 293.587 C 216.499 293.764,214.876 294.085,213.470 294.300 C 212.063 294.515,210.193 294.908,209.314 295.172 C 208.434 295.436,207.501 295.652,207.239 295.652 C 206.535 295.652,202.593 296.948,201.023 297.695 C 200.273 298.052,198.968 298.570,198.124 298.845 C 195.840 299.591,192.022 301.365,191.432 301.955 C 191.148 302.239,190.779 302.472,190.613 302.472 C 190.448 302.472,189.946 302.839,189.498 303.287 C 188.269 304.516,183.324 305.590,174.425 306.561 C 171.050 306.929,165.220 307.638,160.273 308.282 C 157.010 308.707,125.125 308.716,123.484 308.292 C 122.806 308.118,121.176 307.726,119.864 307.422 C 116.621 306.672,115.490 306.384,112.702 305.602 C 111.390 305.234,108.934 304.747,107.246 304.521 C 105.558 304.294,103.026 303.663,101.620 303.118 C 100.213 302.573,98.873 302.128,98.643 302.129 C 98.412 302.130,96.954 301.530,95.403 300.796 C 91.136 298.776,87.655 297.620,82.012 296.350 C 81.262 296.181,79.727 295.804,78.602 295.512 C 76.136 294.871,72.684 294.169,69.224 293.604 C 66.584 293.174,66.016 292.974,61.768 290.985 C 57.658 289.060,57.589 289.616,62.575 284.566 L 65.985 281.112 68.372 280.722 C 69.685 280.507,71.986 280.162,73.487 279.955 C 80.020 279.052,81.076 278.846,82.609 278.173 C 83.500 277.782,84.228 277.345,84.228 277.203 C 84.228 277.060,84.497 276.853,84.825 276.743 C 85.153 276.634,86.025 276.000,86.762 275.335 C 89.033 273.287,95.708 271.026,101.279 270.418 C 103.248 270.203,105.503 269.885,106.289 269.711 C 107.075 269.537,108.303 269.393,109.017 269.391 C 111.370 269.384,117.577 266.937,119.182 265.383 C 122.850 261.830,123.196 260.897,123.127 254.747 C 123.038 246.894,122.720 244.884,121.393 243.770 C 119.791 242.428,112.752 239.045,111.558 239.045 C 111.187 239.045,110.833 238.930,110.770 238.789 C 110.309 237.753,100.606 233.116,97.434 232.416 C 95.899 232.078,94.007 230.114,93.473 228.306 C 92.703 225.697,88.045 219.299,86.896 219.272 C 86.768 219.269,86.461 219.070,86.214 218.829 C 85.966 218.588,84.919 217.979,83.887 217.474 C 79.860 215.505,80.037 216.328,81.188 204.945 C 81.677 200.107,81.708 200.516,80.507 195.908 C 79.921 193.657,79.133 190.281,78.755 188.406 C 77.374 181.540,71.648 174.936,67.076 174.936 C 66.585 174.936,65.952 174.387,64.091 172.344 C 62.919 171.059,62.603 170.224,61.775 166.240 C 61.123 163.098,60.303 159.836,60.028 159.285 C 59.512 158.249,59.037 157.027,58.292 154.817 C 56.864 150.575,54.605 146.375,52.743 144.498 C 50.298 142.035,50.504 139.671,53.294 138.176 C 55.550 136.967,61.381 131.795,61.381 131.003 C 61.381 130.815,61.519 130.611,61.687 130.548 C 61.855 130.486,62.625 129.479,63.398 128.310 L 64.804 126.185 64.100 123.877 C 62.853 119.788,62.868 119.858,61.567 111.850 C 60.982 108.247,60.417 105.981,59.997 105.558 C 59.821 105.380,59.676 105.033,59.676 104.787 C 59.676 103.598,56.998 98.912,55.333 97.187 C 54.880 96.718,54.209 95.413,53.841 94.288 C 53.474 93.163,53.025 91.897,52.844 91.475 C 52.036 89.591,51.868 89.044,51.453 86.957 C 50.438 81.847,50.767 79.269,53.007 74.776 C 55.018 70.743,55.169 70.402,55.925 68.201 C 56.424 66.747,57.050 65.362,57.311 65.132 C 57.417 65.038,58.060 64.118,58.739 63.086 C 59.418 62.055,60.260 60.904,60.609 60.529 C 60.959 60.153,61.610 59.194,62.058 58.397 C 62.505 57.600,62.986 56.948,63.126 56.948 C 63.266 56.948,63.470 56.679,63.578 56.351 C 63.686 56.023,64.213 55.258,64.749 54.652 C 65.285 54.046,65.951 53.206,66.230 52.786 C 66.733 52.028,66.744 52.035,67.419 53.547 C 68.187 55.265,71.757 60.159,73.026 61.233 C 75.455 63.288,78.650 65.555,79.951 66.149 C 81.104 66.673,81.668 67.249,82.533 68.782 C 84.788 72.777,89.161 76.458,93.947 78.389 C 97.189 79.697,98.460 80.742,99.588 83.029 C 101.170 86.235,107.534 91.036,110.223 91.051 C 113.466 91.070,122.510 95.677,126.078 99.128 C 130.737 103.634,133.842 104.898,145.610 107.078 C 150.984 108.074,151.251 108.125,154.817 108.838 C 157.953 109.464,162.709 111.186,163.609 112.020 C 164.076 112.453,164.859 113.014,165.349 113.266 C 165.839 113.518,166.317 113.802,166.411 113.896 C 166.570 114.056,167.358 114.437,169.224 115.256 C 170.444 115.791,173.754 116.629,178.176 117.521 C 180.426 117.976,182.896 118.490,183.664 118.664 C 184.567 118.868,185.530 118.855,186.392 118.626 C 187.124 118.431,188.261 118.138,188.917 117.975 C 199.229 115.411,202.365 113.183,203.540 107.587 C 203.776 106.462,204.097 105.004,204.253 104.348 C 204.409 103.691,204.717 102.080,204.938 100.767 C 205.159 99.454,205.853 96.232,206.482 93.606 C 207.110 90.980,207.718 88.142,207.833 87.298 C 208.403 83.101,208.707 81.196,209.028 79.795 C 209.221 78.951,209.532 77.494,209.719 76.556 C 209.905 75.618,210.214 74.160,210.404 73.316 C 210.594 72.472,210.902 70.811,211.089 69.624 C 211.600 66.376,213.141 64.270,216.044 62.851 C 220.987 60.435,222.172 59.084,225.345 52.248 C 226.173 50.465,228.948 47.913,230.597 47.418 C 236.922 45.521,240.837 42.907,243.518 38.790 C 244.668 37.023,245.788 36.386,250.298 34.930 C 251.705 34.476,253.316 33.937,253.879 33.732 C 257.275 32.492,258.125 32.435,270.929 32.584 C 277.869 32.664,285.081 32.859,286.957 33.016 " stroke="none" fill="#8fdbe9" fill-rule="evenodd"></path><path id="path4" d="M256.607 32.897 C 255.669 33.151,254.442 33.526,253.879 33.732 C 253.316 33.937,251.705 34.476,250.298 34.930 C 245.788 36.386,244.668 37.023,243.518 38.790 C 240.837 42.907,236.922 45.521,230.597 47.418 C 228.948 47.913,226.173 50.465,225.345 52.248 C 222.172 59.084,220.987 60.435,216.044 62.851 C 213.141 64.270,211.600 66.376,211.089 69.624 C 210.902 70.811,210.594 72.472,210.404 73.316 C 210.214 74.160,209.905 75.618,209.719 76.556 C 209.532 77.494,209.221 78.951,209.028 79.795 C 208.707 81.196,208.403 83.101,207.833 87.298 C 207.718 88.142,207.110 90.980,206.482 93.606 C 205.853 96.232,205.159 99.454,204.938 100.767 C 204.717 102.080,204.409 103.691,204.253 104.348 C 204.097 105.004,203.776 106.462,203.540 107.587 C 202.365 113.183,199.229 115.411,188.917 117.975 C 188.261 118.138,187.124 118.431,186.392 118.626 C 185.530 118.855,184.567 118.868,183.664 118.664 C 182.896 118.490,180.426 117.976,178.176 117.521 C 173.754 116.629,170.444 115.791,169.224 115.256 C 167.358 114.437,166.570 114.056,166.411 113.896 C 166.317 113.802,165.839 113.518,165.349 113.266 C 164.859 113.014,164.076 112.453,163.609 112.020 C 163.142 111.587,161.395 110.778,159.726 110.223 C 156.362 109.102,155.512 108.913,145.610 107.078 C 133.842 104.898,130.737 103.634,126.078 99.128 C 122.510 95.677,113.466 91.070,110.223 91.051 C 107.534 91.036,101.170 86.235,99.588 83.029 C 98.460 80.742,97.189 79.697,93.947 78.389 C 89.161 76.458,84.788 72.777,82.533 68.782 C 81.668 67.249,81.104 66.673,79.951 66.149 C 78.650 65.555,75.455 63.288,73.026 61.233 C 71.757 60.159,68.187 55.265,67.419 53.547 C 66.744 52.035,66.733 52.028,66.230 52.786 C 65.951 53.206,65.285 54.046,64.749 54.652 C 64.213 55.258,63.686 56.023,63.578 56.351 C 63.470 56.679,63.266 56.948,63.126 56.948 C 62.986 56.948,62.505 57.600,62.058 58.397 C 61.610 59.194,60.959 60.153,60.609 60.529 C 60.260 60.904,59.418 62.055,58.739 63.086 C 58.060 64.118,57.417 65.038,57.311 65.132 C 57.050 65.362,56.424 66.747,55.925 68.201 C 55.169 70.402,55.018 70.743,53.007 74.776 C 50.767 79.269,50.438 81.847,51.453 86.957 C 51.868 89.044,52.036 89.591,52.844 91.475 C 53.025 91.897,53.474 93.163,53.841 94.288 C 54.209 95.413,54.880 96.718,55.333 97.187 C 56.998 98.912,59.676 103.598,59.676 104.787 C 59.676 105.033,59.821 105.380,59.997 105.558 C 60.417 105.981,60.982 108.247,61.567 111.850 C 62.868 119.858,62.853 119.788,64.100 123.877 L 64.804 126.185 63.398 128.310 C 62.625 129.479,61.855 130.486,61.687 130.548 C 61.519 130.611,61.381 130.815,61.381 131.003 C 61.381 131.795,55.550 136.967,53.294 138.176 C 50.504 139.671,50.298 142.035,52.743 144.498 C 54.605 146.375,56.864 150.575,58.292 154.817 C 59.037 157.027,59.512 158.249,60.028 159.285 C 60.303 159.836,61.123 163.098,61.775 166.240 C 62.603 170.224,62.919 171.059,64.091 172.344 C 65.952 174.387,66.585 174.936,67.076 174.936 C 71.648 174.936,77.374 181.540,78.755 188.406 C 79.133 190.281,79.921 193.657,80.507 195.908 C 81.708 200.516,81.677 200.107,81.188 204.945 C 80.037 216.328,79.860 215.505,83.887 217.474 C 84.919 217.979,85.966 218.588,86.214 218.829 C 86.461 219.070,86.768 219.269,86.896 219.272 C 88.045 219.299,92.703 225.697,93.473 228.306 C 94.007 230.114,95.899 232.078,97.434 232.416 C 100.606 233.116,110.309 237.753,110.770 238.789 C 110.833 238.930,111.187 239.045,111.558 239.045 C 112.752 239.045,119.791 242.428,121.393 243.770 C 122.720 244.884,123.038 246.894,123.127 254.747 C 123.196 260.897,122.850 261.830,119.182 265.383 C 117.577 266.937,111.370 269.384,109.017 269.391 C 108.303 269.393,107.075 269.537,106.289 269.711 C 105.503 269.885,103.248 270.203,101.279 270.418 C 95.708 271.026,89.033 273.287,86.762 275.335 C 86.025 276.000,85.153 276.634,84.825 276.743 C 84.497 276.853,84.228 277.060,84.228 277.203 C 84.228 277.345,83.500 277.782,82.609 278.173 C 81.076 278.846,80.020 279.052,73.487 279.955 C 71.986 280.162,69.685 280.507,68.372 280.722 L 65.985 281.112 62.575 284.566 C 57.589 289.616,57.658 289.060,61.768 290.985 C 66.016 292.974,66.584 293.174,69.224 293.604 C 72.684 294.169,76.136 294.871,78.602 295.512 C 79.727 295.804,81.262 296.181,82.012 296.350 C 87.655 297.620,91.136 298.776,95.403 300.796 C 96.954 301.530,98.412 302.130,98.643 302.129 C 98.873 302.128,100.213 302.573,101.620 303.118 C 103.026 303.663,105.558 304.294,107.246 304.521 C 108.934 304.747,111.390 305.234,112.702 305.602 C 115.490 306.384,116.621 306.672,119.864 307.422 C 121.176 307.726,122.806 308.118,123.484 308.292 C 125.125 308.716,157.010 308.707,160.273 308.282 C 165.220 307.638,171.050 306.929,174.425 306.561 C 183.324 305.590,188.269 304.516,189.498 303.287 C 189.946 302.839,190.448 302.472,190.613 302.472 C 190.779 302.472,191.148 302.239,191.432 301.955 C 192.022 301.365,195.840 299.591,198.124 298.845 C 198.968 298.570,200.273 298.052,201.023 297.695 C 202.593 296.948,206.535 295.652,207.239 295.652 C 207.501 295.652,208.434 295.436,209.314 295.172 C 210.193 294.908,212.063 294.515,213.470 294.300 C 214.876 294.085,216.499 293.764,217.075 293.587 C 217.650 293.410,218.407 293.265,218.755 293.265 C 219.104 293.265,219.860 293.122,220.436 292.947 C 221.381 292.660,222.403 292.380,225.575 291.537 C 230.095 290.336,229.898 290.470,232.288 286.979 C 234.505 283.740,237.370 281.671,241.477 280.341 C 248.683 278.009,250.214 277.442,253.201 275.999 C 255.587 274.846,256.963 273.921,258.162 272.666 C 262.418 268.210,263.499 267.137,264.286 266.586 C 266.728 264.879,268.005 264.113,269.395 263.523 C 271.815 262.496,272.223 262.329,273.398 261.887 C 274.614 261.430,276.897 259.108,276.897 258.328 C 276.897 257.685,278.558 254.690,279.540 253.562 C 279.962 253.077,280.310 252.566,280.314 252.427 C 280.337 251.632,286.196 247.685,287.860 247.343 C 289.202 247.068,291.014 244.943,291.883 242.626 C 292.961 239.751,294.661 236.448,295.567 235.470 C 295.989 235.015,296.334 234.550,296.334 234.438 C 296.334 234.325,297.293 233.310,298.465 232.181 C 303.432 227.398,304.178 226.603,304.641 225.604 C 306.595 221.388,307.833 218.283,308.993 214.684 C 310.717 209.338,315.613 203.581,318.436 203.581 C 318.704 203.581,320.016 202.236,321.174 200.773 C 321.695 200.115,322.500 195.173,323.438 186.871 C 323.921 182.591,326.797 174.258,327.792 174.255 C 327.933 174.254,328.048 174.072,328.048 173.850 C 328.048 173.443,330.705 170.090,331.196 169.878 C 331.340 169.815,331.458 169.603,331.458 169.407 C 331.458 169.211,331.964 168.341,332.584 167.475 C 333.668 165.957,334.342 164.121,335.415 159.761 C 335.692 158.636,336.058 157.178,336.228 156.522 C 336.399 155.865,336.636 154.331,336.757 153.112 C 336.877 151.893,337.106 149.821,337.266 148.508 C 337.796 144.152,338.306 133.656,338.590 121.228 C 338.856 109.600,339.142 106.426,340.003 105.558 C 340.179 105.380,340.324 105.033,340.324 104.787 C 340.324 103.239,343.154 98.696,345.609 96.301 C 346.589 95.345,348.206 93.504,349.202 92.209 C 351.494 89.229,355.929 84.793,358.511 82.897 C 360.235 81.632,360.473 81.323,360.290 80.593 C 360.031 79.563,359.551 75.988,359.064 71.462 C 358.864 69.599,358.628 67.958,358.540 67.816 C 358.394 67.579,357.954 62.177,357.483 54.834 C 357.112 49.047,351.117 45.898,344.384 47.954 C 340.153 49.245,336.381 50.558,336.078 50.845 C 335.900 51.013,335.489 51.151,335.165 51.151 C 334.841 51.151,334.342 51.385,334.056 51.670 C 333.597 52.130,333.289 52.134,331.389 51.704 C 328.485 51.047,325.747 50.573,322.080 50.095 C 315.496 49.236,309.335 46.132,305.435 41.709 C 303.664 39.701,303.398 39.442,301.748 38.118 C 300.880 37.422,299.729 36.672,299.190 36.451 C 298.651 36.231,297.559 35.765,296.764 35.416 C 295.969 35.068,295.136 34.783,294.913 34.783 C 294.448 34.783,292.474 34.181,291.219 33.657 C 288.867 32.676,259.791 32.037,256.607 32.897 M282.864 36.108 C 290.332 36.557,290.306 36.549,290.859 38.423 C 292.066 42.511,298.562 47.741,302.432 47.741 C 302.771 47.741,303.994 48.352,305.149 49.098 C 306.304 49.845,307.978 50.694,308.868 50.986 C 310.971 51.674,311.014 51.708,312.363 53.708 C 313.556 55.478,313.822 55.756,315.950 57.460 C 318.452 59.462,320.145 59.956,330.668 61.747 C 333.296 62.194,333.713 62.116,336.895 60.579 C 339.514 59.313,342.348 55.756,343.207 52.656 C 343.350 52.137,344.049 51.729,345.788 51.148 L 348.173 50.352 349.449 51.022 C 350.192 51.413,350.750 51.971,350.786 52.359 C 350.820 52.726,351.014 57.630,351.218 63.257 C 351.422 68.883,351.662 75.279,351.750 77.470 L 351.910 81.454 349.853 83.511 C 348.417 84.947,347.440 85.634,346.614 85.789 C 345.964 85.911,345.347 86.147,345.245 86.313 C 345.142 86.479,344.760 86.616,344.396 86.616 C 344.032 86.616,343.734 86.769,343.734 86.957 C 343.734 87.144,343.519 87.298,343.256 87.298 C 341.939 87.298,338.468 91.923,337.626 94.800 C 337.379 95.644,337.054 96.641,336.903 97.016 C 335.513 100.481,335.157 105.605,334.910 125.661 C 334.781 136.164,334.556 144.950,334.409 145.185 C 334.263 145.420,334.012 146.878,333.851 148.425 L 333.558 151.236 329.945 154.987 C 326.095 158.983,324.409 161.706,323.491 165.414 C 321.743 172.472,320.851 177.163,320.381 181.756 C 320.084 184.663,319.698 187.962,319.523 189.088 C 319.349 190.213,319.037 192.225,318.830 193.559 C 318.370 196.526,315.633 199.791,312.960 200.559 C 310.680 201.215,308.542 202.820,307.597 204.585 C 306.754 206.161,305.541 211.138,305.541 213.024 C 305.541 215.758,303.942 218.746,302.203 219.259 C 299.154 220.159,294.634 223.573,294.630 224.979 C 294.630 225.213,294.476 225.405,294.288 225.405 C 294.101 225.405,293.947 225.703,293.947 226.067 C 293.947 226.431,293.814 226.811,293.650 226.912 C 293.487 227.013,293.253 227.595,293.131 228.206 C 293.009 228.816,292.524 229.898,292.053 230.610 C 290.616 232.781,289.994 234.028,289.492 235.743 C 289.113 237.037,288.776 237.496,287.903 237.911 C 286.204 238.717,282.735 242.267,281.939 244.013 C 281.732 244.469,281.354 244.842,281.100 244.842 C 279.578 244.842,275.808 248.226,274.805 250.492 C 274.379 251.457,273.592 252.412,272.697 253.052 C 269.900 255.052,268.870 256.050,267.864 257.727 C 267.130 258.953,266.512 259.544,265.648 259.845 C 263.923 260.448,260.534 262.180,259.963 262.751 C 259.694 263.019,258.830 263.410,258.041 263.620 C 253.549 264.816,249.595 268.926,248.467 273.572 C 248.342 274.088,248.087 274.510,247.901 274.510 C 247.715 274.510,246.912 274.802,246.117 275.160 C 245.322 275.517,243.828 275.900,242.796 276.011 C 238.140 276.509,236.018 276.834,234.767 277.239 C 232.572 277.948,230.457 279.053,230.052 279.702 C 229.844 280.035,229.495 280.307,229.277 280.307 C 227.445 280.307,223.291 283.975,221.640 287.050 C 220.626 288.940,220.333 289.228,219.113 289.543 C 218.353 289.739,217.262 290.042,216.688 290.217 C 216.113 290.392,212.660 290.776,209.015 291.070 C 199.967 291.800,199.340 291.860,196.419 292.261 C 192.484 292.803,190.434 293.249,186.360 294.449 C 184.297 295.057,181.765 295.744,180.733 295.976 C 174.977 297.268,170.913 299.206,168.235 301.935 C 166.212 303.998,166.062 304.082,163.973 304.324 C 162.782 304.462,160.810 304.732,159.591 304.924 C 156.604 305.394,127.039 305.686,125.490 305.261 C 124.834 305.081,123.363 304.738,122.223 304.498 L 120.149 304.062 119.213 302.079 C 117.501 298.455,113.365 295.264,109.489 294.579 C 106.991 294.138,103.532 293.673,99.744 293.271 C 98.056 293.092,95.754 292.790,94.629 292.600 C 93.504 292.410,90.742 292.104,88.491 291.920 C 84.717 291.611,82.212 291.346,75.362 290.532 C 73.956 290.365,71.500 290.132,69.906 290.015 C 62.177 289.446,65.131 288.036,77.408 286.434 C 87.378 285.134,92.377 283.309,94.970 280.023 C 95.345 279.547,96.770 278.028,98.137 276.646 L 100.622 274.133 103.082 273.839 C 106.112 273.478,112.906 272.562,116.113 272.083 C 120.593 271.414,125.062 269.224,125.642 267.413 C 125.743 267.096,126.480 266.424,127.278 265.920 C 131.319 263.366,133.097 260.587,133.670 255.925 C 133.878 254.237,134.194 251.829,134.373 250.574 C 135.188 244.842,134.682 242.682,131.758 239.419 C 130.374 237.873,125.291 234.953,123.985 234.953 C 123.669 234.953,122.996 234.750,122.489 234.501 C 121.523 234.027,119.080 233.549,114.237 232.886 C 112.643 232.668,110.188 232.055,108.781 231.523 C 107.374 230.992,105.610 230.375,104.859 230.153 C 103.745 229.824,103.245 229.367,102.131 227.663 C 101.153 226.165,100.121 225.142,98.477 224.041 C 97.218 223.197,96.182 222.352,96.176 222.163 C 96.153 221.501,94.365 218.448,93.395 217.413 C 92.856 216.838,92.415 216.253,92.414 216.113 C 92.413 215.972,92.182 215.857,91.901 215.857 C 91.620 215.857,91.390 215.703,91.390 215.516 C 91.390 215.328,91.176 215.175,90.914 215.175 C 90.533 215.175,90.504 214.919,90.766 213.896 C 90.946 213.193,91.221 212.080,91.376 211.424 C 91.531 210.767,91.983 209.233,92.381 208.014 C 94.190 202.471,94.583 200.415,94.117 198.926 C 93.542 197.085,91.272 192.339,90.963 192.333 C 90.823 192.330,90.706 192.136,90.704 191.901 C 90.698 191.175,87.797 187.563,84.436 184.095 C 82.153 181.739,81.158 180.454,80.996 179.649 C 80.013 174.774,75.816 171.969,68.386 171.219 C 66.000 170.979,66.106 171.216,65.479 164.693 C 65.273 162.543,64.957 159.940,64.776 158.909 C 64.596 157.877,64.368 156.343,64.268 155.499 C 63.563 149.498,62.414 143.935,61.507 142.136 C 60.920 140.973,61.113 140.508,62.571 139.561 C 63.217 139.141,64.384 137.990,65.163 137.003 C 66.105 135.812,67.283 134.837,68.670 134.101 C 71.141 132.790,73.639 130.268,74.867 127.845 L 75.750 126.102 74.863 124.229 C 73.792 121.967,70.774 118.946,68.390 117.748 C 67.442 117.272,66.627 116.849,66.578 116.807 C 66.198 116.481,64.802 109.930,64.795 108.440 C 64.780 105.376,63.774 98.662,63.084 97.016 C 62.927 96.641,62.707 95.260,62.596 93.947 C 62.351 91.048,61.889 87.254,61.395 84.092 C 61.042 81.827,61.121 80.447,61.731 78.261 C 62.050 77.116,62.512 74.310,63.134 69.736 C 63.502 67.030,63.728 66.399,65.045 64.408 L 66.539 62.149 69.087 64.749 C 70.488 66.179,71.730 67.722,71.846 68.178 C 72.672 71.418,78.082 76.610,80.736 76.710 C 80.972 76.719,81.652 77.191,82.246 77.759 C 83.461 78.920,86.171 80.524,88.002 81.166 C 88.807 81.448,89.372 81.941,89.675 82.626 C 90.178 83.762,92.695 86.426,94.262 87.479 C 94.811 87.848,95.578 88.493,95.967 88.913 C 98.959 92.135,99.130 92.262,101.466 92.999 C 104.079 93.823,108.942 94.800,110.429 94.800 C 110.952 94.800,112.016 95.107,112.792 95.482 C 113.569 95.857,114.362 96.164,114.555 96.164 C 114.748 96.164,115.008 96.586,115.134 97.101 C 116.993 104.758,123.345 108.232,137.766 109.477 C 140.111 109.680,142.566 109.979,143.223 110.142 C 143.879 110.305,145.272 110.620,146.317 110.843 C 148.042 111.211,148.325 111.405,149.374 112.942 C 150.661 114.828,153.342 117.335,154.955 118.159 C 155.535 118.456,156.475 118.977,157.043 119.318 C 164.305 123.667,192.188 125.066,202.046 121.576 C 204.936 120.553,209.037 117.333,209.037 116.087 C 209.037 115.820,209.190 115.601,209.378 115.601 C 209.565 115.601,209.719 115.325,209.719 114.987 C 209.719 114.650,209.849 114.228,210.009 114.049 C 210.918 113.037,211.631 105.432,212.628 86.104 C 212.735 84.041,212.977 81.509,213.166 80.477 C 213.682 77.659,214.082 75.429,214.500 73.042 C 214.882 70.853,218.302 66.506,219.653 66.491 C 221.127 66.475,224.400 64.731,225.647 63.297 C 227.265 61.436,227.861 59.753,228.659 54.795 C 229.249 51.128,229.235 51.151,230.819 51.151 C 234.861 51.151,244.160 48.509,244.160 47.360 C 244.160 47.194,244.509 47.059,244.935 47.059 C 248.050 47.059,254.390 40.566,254.390 37.377 C 254.390 37.075,254.659 36.824,254.987 36.819 C 255.315 36.814,256.428 36.508,257.460 36.139 C 259.529 35.400,270.847 35.386,282.864 36.108 " stroke="none" fill="#d1edf5" fill-rule="evenodd"></path></g></svg>