<svg id="svg" version="1.1" width="400" height="77.59562841530054" xmlns="http://www.w3.org/2000/svg" xmlns:xlink="http://www.w3.org/1999/xlink" style="display: block;"><g id="svgg"><path id="path0" d="" stroke="none" fill="#000000" fill-rule="evenodd"></path><path id="path1" d="" stroke="none" fill="#0000ff" fill-rule="evenodd"></path><path id="path2" d="M393.200 6.367 C 392.929 6.637,392.948 6.778,393.274 6.903 C 393.488 6.985,393.507 6.959,393.361 6.783 C 393.223 6.617,393.226 6.508,393.371 6.363 C 393.478 6.255,393.529 6.167,393.483 6.167 C 393.438 6.167,393.310 6.257,393.200 6.367 M24.928 10.648 C 24.878 10.729,24.933 10.875,25.050 10.973 C 25.211 11.106,25.270 11.069,25.288 10.825 C 25.313 10.492,25.092 10.383,24.928 10.648 M119.944 11.778 C 119.735 11.987,119.834 12.146,120.158 12.121 C 120.404 12.103,120.439 12.045,120.304 11.882 C 120.097 11.632,120.091 11.631,119.944 11.778 M22.381 14.750 C 22.382 15.208,22.415 15.376,22.453 15.123 C 22.491 14.869,22.490 14.494,22.451 14.289 C 22.411 14.084,22.380 14.292,22.381 14.750 M390.741 21.333 C 390.741 24.404,390.764 25.660,390.791 24.125 C 390.819 22.590,390.819 20.077,390.791 18.542 C 390.764 17.006,390.741 18.262,390.741 21.333 M276.275 16.245 C 276.223 16.379,276.255 16.535,276.345 16.590 C 276.435 16.646,276.488 16.592,276.462 16.471 C 276.437 16.349,276.516 16.271,276.637 16.296 C 276.759 16.321,276.811 16.265,276.753 16.171 C 276.602 15.926,276.384 15.960,276.275 16.245 M85.931 17.274 C 85.848 17.488,85.874 17.507,86.050 17.361 C 86.217 17.223,86.334 17.227,86.504 17.379 C 86.698 17.552,86.700 17.538,86.513 17.292 C 86.237 16.927,86.066 16.922,85.931 17.274 M267.871 17.363 C 267.896 17.484,267.817 17.563,267.696 17.538 C 267.575 17.512,267.521 17.565,267.576 17.655 C 267.690 17.839,268.167 17.707,268.167 17.492 C 268.167 17.416,268.090 17.306,267.996 17.247 C 267.902 17.189,267.846 17.241,267.871 17.363 M187.381 18.417 C 187.382 18.875,187.415 19.043,187.453 18.789 C 187.491 18.536,187.490 18.161,187.451 17.956 C 187.411 17.751,187.380 17.958,187.381 18.417 M0.208 19.115 C 0.369 19.157,0.631 19.157,0.792 19.115 C 0.952 19.073,0.821 19.039,0.500 19.039 C 0.179 19.039,0.048 19.073,0.208 19.115 M142.214 20.934 C 142.011 21.154,141.912 21.333,141.994 21.333 C 142.190 21.333,142.667 20.852,142.667 20.655 C 142.667 20.453,142.649 20.464,142.214 20.934 M271.811 21.316 C 272.002 21.437,272.002 21.473,271.811 21.543 C 271.635 21.608,271.656 21.697,271.908 21.938 C 272.122 22.145,272.162 22.157,272.024 21.973 C 271.881 21.782,271.872 21.662,271.995 21.587 C 272.208 21.455,272.061 21.166,271.782 21.169 C 271.650 21.171,271.659 21.220,271.811 21.316 M288.987 21.292 C 288.980 21.360,288.949 21.548,288.919 21.708 C 288.888 21.869,288.931 22.000,289.015 22.000 C 289.098 22.000,289.167 21.813,289.167 21.583 C 289.167 21.213,289.020 20.974,288.987 21.292 M327.610 25.946 C 327.549 26.006,327.500 26.110,327.500 26.177 C 327.500 26.364,327.978 26.503,328.076 26.345 C 328.186 26.166,327.757 25.799,327.610 25.946 M201.204 27.196 C 201.229 27.317,201.151 27.396,201.029 27.371 C 200.908 27.346,200.854 27.399,200.910 27.489 C 201.023 27.672,201.500 27.540,201.500 27.325 C 201.500 27.249,201.423 27.139,201.329 27.081 C 201.235 27.023,201.179 27.075,201.204 27.196 M106.867 28.200 C 106.596 28.471,106.615 28.611,106.940 28.736 C 107.155 28.818,107.174 28.793,107.028 28.617 C 106.890 28.451,106.892 28.341,107.037 28.196 C 107.145 28.088,107.196 28.000,107.150 28.000 C 107.104 28.000,106.977 28.090,106.867 28.200 M18.278 29.278 C 18.068 29.487,18.167 29.646,18.492 29.621 C 18.737 29.603,18.773 29.545,18.638 29.382 C 18.431 29.132,18.425 29.131,18.278 29.278 M65.278 29.278 C 65.099 29.457,65.149 29.624,65.411 29.725 C 65.546 29.777,65.701 29.745,65.757 29.655 C 65.813 29.565,65.759 29.512,65.637 29.538 C 65.516 29.563,65.435 29.490,65.458 29.375 C 65.505 29.143,65.445 29.111,65.278 29.278 M64.262 30.314 C 64.154 30.489,64.569 30.875,64.712 30.732 C 64.841 30.604,64.671 30.167,64.492 30.167 C 64.416 30.167,64.312 30.233,64.262 30.314 M373.533 30.367 C 373.263 30.637,373.282 30.778,373.607 30.903 C 373.821 30.985,373.840 30.959,373.694 30.783 C 373.556 30.617,373.559 30.508,373.704 30.363 C 373.812 30.255,373.863 30.167,373.817 30.167 C 373.771 30.167,373.643 30.257,373.533 30.367 M320.734 33.500 C 320.734 34.921,320.759 35.502,320.791 34.792 C 320.822 34.081,320.822 32.919,320.791 32.208 C 320.759 31.498,320.734 32.079,320.734 33.500 M173.694 31.550 C 173.561 31.711,173.598 31.770,173.842 31.788 C 174.175 31.813,174.284 31.592,174.019 31.428 C 173.938 31.378,173.791 31.433,173.694 31.550 M234.814 31.458 C 234.803 31.527,234.803 31.640,234.814 31.708 C 234.824 31.777,234.758 31.833,234.667 31.833 C 234.575 31.833,234.500 31.896,234.500 31.972 C 234.500 32.049,234.597 32.111,234.717 32.111 C 234.836 32.111,234.933 31.936,234.933 31.722 C 234.933 31.355,234.857 31.186,234.814 31.458 M393.424 31.655 C 393.310 31.839,393.573 32.038,393.727 31.884 C 393.885 31.726,393.856 31.500,393.677 31.500 C 393.590 31.500,393.477 31.570,393.424 31.655 M267.431 32.607 C 267.345 32.830,267.370 32.843,267.566 32.681 C 267.758 32.522,267.842 32.542,267.981 32.782 C 268.078 32.948,268.159 33.005,268.162 32.908 C 268.175 32.437,267.589 32.195,267.431 32.607 M51.111 33.611 C 50.932 33.790,50.982 33.957,51.245 34.058 C 51.379 34.110,51.535 34.079,51.590 33.989 C 51.646 33.899,51.592 33.846,51.471 33.871 C 51.349 33.896,51.269 33.823,51.292 33.708 C 51.338 33.476,51.278 33.444,51.111 33.611 M73.705 34.000 C 73.705 34.321,73.740 34.452,73.782 34.292 C 73.823 34.131,73.823 33.869,73.782 33.708 C 73.740 33.548,73.705 33.679,73.705 34.000 M290.493 33.671 C 290.321 33.778,290.304 33.870,290.433 34.000 C 290.563 34.130,290.671 34.113,290.815 33.939 C 291.056 33.648,290.832 33.461,290.493 33.671 M347.278 33.611 C 347.068 33.821,347.167 33.979,347.492 33.955 C 347.737 33.936,347.773 33.878,347.638 33.715 C 347.431 33.466,347.425 33.464,347.278 33.611 M201.411 34.008 C 201.253 34.265,201.470 34.430,201.684 34.216 C 201.804 34.096,201.807 34.003,201.693 33.933 C 201.599 33.875,201.473 33.909,201.411 34.008 M301.045 34.500 C 301.045 34.912,301.078 35.081,301.118 34.875 C 301.157 34.669,301.157 34.331,301.118 34.125 C 301.078 33.919,301.045 34.087,301.045 34.500 M344.622 33.934 C 344.401 34.155,344.495 34.333,344.833 34.333 C 345.017 34.333,345.167 34.254,345.167 34.157 C 345.167 34.060,345.098 34.023,345.014 34.075 C 344.930 34.126,344.835 34.089,344.802 33.991 C 344.770 33.893,344.688 33.867,344.622 33.934 M66.771 34.535 C 66.886 34.719,67.333 34.700,67.333 34.510 C 67.333 34.424,67.189 34.365,67.012 34.378 C 66.835 34.392,66.726 34.462,66.771 34.535 M183.245 34.674 C 183.134 34.854,183.442 35.333,183.669 35.333 C 183.740 35.333,183.845 35.210,183.903 35.060 C 183.986 34.844,183.960 34.826,183.780 34.975 C 183.487 35.219,183.279 35.017,183.522 34.724 C 183.649 34.571,183.651 34.500,183.530 34.500 C 183.433 34.500,183.305 34.578,183.245 34.674 M255.431 34.774 C 255.348 34.990,255.373 35.008,255.553 34.858 C 255.849 34.613,256.054 34.818,255.808 35.113 C 255.659 35.293,255.677 35.319,255.893 35.236 C 256.218 35.111,256.237 34.971,255.967 34.700 C 255.696 34.429,255.555 34.448,255.431 34.774 M289.264 34.774 C 289.182 34.988,289.207 35.007,289.383 34.861 C 289.550 34.723,289.667 34.727,289.838 34.879 C 290.032 35.052,290.033 35.038,289.847 34.792 C 289.571 34.427,289.399 34.422,289.264 34.774 M369.489 34.737 C 369.644 34.923,369.622 35.010,369.384 35.148 C 369.219 35.244,369.168 35.325,369.271 35.328 C 369.543 35.336,369.881 34.878,369.755 34.674 C 369.695 34.578,369.567 34.500,369.470 34.500 C 369.354 34.500,369.360 34.581,369.489 34.737 M182.599 35.474 C 182.542 35.567,182.576 35.694,182.675 35.755 C 182.931 35.914,183.097 35.697,182.883 35.483 C 182.763 35.363,182.670 35.360,182.599 35.474 M106.924 35.822 C 106.814 36.000,107.243 36.368,107.390 36.221 C 107.451 36.160,107.500 36.057,107.500 35.990 C 107.500 35.803,107.022 35.663,106.924 35.822 M146.289 35.876 C 146.237 36.011,146.331 36.108,146.529 36.123 C 146.708 36.137,146.826 36.063,146.792 35.959 C 146.697 35.675,146.386 35.623,146.289 35.876 M236.727 36.111 C 236.786 36.218,236.741 36.339,236.626 36.380 C 236.511 36.421,236.456 36.498,236.505 36.551 C 236.553 36.605,236.703 36.581,236.837 36.498 C 237.044 36.370,237.046 36.315,236.849 36.132 C 236.713 36.005,236.662 35.996,236.727 36.111 M53.621 36.853 C 53.782 37.015,53.782 37.114,53.621 37.321 C 53.441 37.552,53.451 37.556,53.708 37.355 C 53.869 37.229,54.000 37.068,54.000 36.997 C 54.000 36.927,53.869 36.819,53.708 36.758 C 53.477 36.670,53.459 36.690,53.621 36.853 M312.621 36.853 C 312.782 37.015,312.782 37.114,312.621 37.321 C 312.441 37.552,312.451 37.556,312.708 37.355 C 312.869 37.229,313.000 37.068,313.000 36.997 C 313.000 36.927,312.869 36.819,312.708 36.758 C 312.477 36.670,312.459 36.690,312.621 36.853 M349.788 36.853 C 349.949 37.015,349.949 37.114,349.788 37.321 C 349.607 37.552,349.618 37.556,349.875 37.355 C 350.035 37.229,350.167 37.068,350.167 36.997 C 350.167 36.927,350.035 36.819,349.875 36.758 C 349.644 36.670,349.626 36.690,349.788 36.853 M56.687 37.059 C 56.510 37.272,56.591 37.500,56.843 37.500 C 57.030 37.500,57.170 37.022,57.012 36.924 C 56.934 36.876,56.788 36.937,56.687 37.059 M84.204 37.029 C 84.229 37.151,84.151 37.229,84.029 37.204 C 83.908 37.179,83.856 37.235,83.914 37.329 C 83.972 37.423,84.082 37.500,84.159 37.500 C 84.374 37.500,84.506 37.023,84.322 36.910 C 84.232 36.854,84.179 36.908,84.204 37.029 M121.243 37.178 C 121.183 37.276,121.173 37.396,121.222 37.444 C 121.342 37.564,121.667 37.353,121.667 37.157 C 121.667 36.944,121.379 36.958,121.243 37.178 M197.743 37.178 C 197.683 37.276,197.673 37.396,197.722 37.444 C 197.842 37.564,198.167 37.353,198.167 37.157 C 198.167 36.944,197.879 36.958,197.743 37.178 M106.146 37.550 C 106.134 37.614,106.114 37.723,106.102 37.792 C 106.089 37.860,106.026 37.998,105.963 38.097 C 105.900 38.197,105.954 38.278,106.083 38.278 C 106.213 38.278,106.284 38.222,106.242 38.153 C 106.199 38.085,106.259 37.994,106.374 37.952 C 106.541 37.890,106.542 37.831,106.375 37.654 C 106.260 37.533,106.157 37.486,106.146 37.550 M280.583 38.000 C 280.406 38.287,280.663 38.516,280.908 38.290 C 281.137 38.079,281.097 37.833,280.833 37.833 C 280.752 37.833,280.640 37.908,280.583 38.000 M283.946 38.067 C 283.897 38.196,283.900 38.345,283.954 38.399 C 284.097 38.542,284.513 38.156,284.405 37.981 C 284.269 37.761,284.048 37.802,283.946 38.067 M284.257 38.655 C 284.134 38.855,284.447 39.052,284.669 38.915 C 284.856 38.800,284.733 38.500,284.500 38.500 C 284.419 38.500,284.310 38.570,284.257 38.655 M206.567 39.261 C 206.567 39.563,206.616 39.611,206.783 39.472 C 206.902 39.373,207.000 39.235,207.000 39.164 C 207.000 39.093,206.902 38.998,206.783 38.953 C 206.643 38.899,206.567 39.008,206.567 39.261 M64.276 39.125 C 64.120 39.378,64.465 39.768,64.667 39.567 C 64.797 39.437,64.779 39.329,64.605 39.185 C 64.472 39.074,64.324 39.047,64.276 39.125 M68.687 39.226 C 68.510 39.439,68.591 39.667,68.843 39.667 C 69.030 39.667,69.170 39.188,69.012 39.091 C 68.934 39.043,68.788 39.103,68.687 39.226 M283.943 39.125 C 283.786 39.378,284.132 39.768,284.333 39.567 C 284.463 39.437,284.446 39.329,284.272 39.185 C 284.139 39.074,283.990 39.047,283.943 39.125 M334.104 40.133 C 334.036 40.243,334.064 40.333,334.167 40.333 C 334.269 40.333,334.299 40.420,334.234 40.526 C 334.164 40.639,334.188 40.673,334.293 40.608 C 334.391 40.547,334.508 40.592,334.552 40.707 C 334.596 40.822,334.625 40.753,334.615 40.553 C 334.605 40.353,334.544 40.223,334.480 40.263 C 334.415 40.303,334.332 40.245,334.295 40.134 C 334.243 39.978,334.200 39.978,334.104 40.133 M374.677 41.404 C 374.563 41.542,374.548 41.676,374.640 41.733 C 374.725 41.786,374.883 41.725,374.989 41.596 C 375.104 41.458,375.119 41.324,375.027 41.267 C 374.941 41.214,374.784 41.275,374.677 41.404 M260.076 41.511 C 260.016 41.609,260.007 41.729,260.056 41.778 C 260.175 41.897,260.500 41.687,260.500 41.490 C 260.500 41.277,260.212 41.291,260.076 41.511 M354.269 42.595 C 354.183 42.819,354.116 42.832,353.915 42.665 C 353.757 42.534,353.667 42.524,353.667 42.636 C 353.667 42.963,354.029 43.042,354.298 42.774 C 354.444 42.628,354.521 42.465,354.469 42.413 C 354.417 42.361,354.327 42.443,354.269 42.595 M89.258 42.708 C 89.319 42.869,89.427 43.000,89.497 43.000 C 89.568 43.000,89.729 42.869,89.855 42.708 C 90.056 42.451,90.052 42.441,89.821 42.621 C 89.614 42.782,89.515 42.782,89.353 42.621 C 89.190 42.459,89.170 42.477,89.258 42.708 M113.292 43.118 C 113.498 43.157,113.835 43.157,114.042 43.118 C 114.248 43.078,114.079 43.045,113.667 43.045 C 113.254 43.045,113.085 43.078,113.292 43.118 M146.125 43.118 C 146.331 43.157,146.669 43.157,146.875 43.118 C 147.081 43.078,146.912 43.045,146.500 43.045 C 146.087 43.045,145.919 43.078,146.125 43.118 M189.792 43.118 C 189.998 43.157,190.335 43.157,190.542 43.118 C 190.748 43.078,190.579 43.045,190.167 43.045 C 189.754 43.045,189.585 43.078,189.792 43.118 M255.460 43.118 C 255.668 43.158,255.968 43.156,256.127 43.115 C 256.286 43.073,256.117 43.040,255.750 43.042 C 255.383 43.044,255.253 43.078,255.460 43.118 M267.796 43.122 C 268.188 43.157,268.788 43.157,269.129 43.121 C 269.471 43.085,269.150 43.057,268.417 43.057 C 267.683 43.058,267.404 43.087,267.796 43.122 M320.958 43.118 C 321.165 43.157,321.502 43.157,321.708 43.118 C 321.915 43.078,321.746 43.045,321.333 43.045 C 320.921 43.045,320.752 43.078,320.958 43.118 M338.458 43.118 C 338.665 43.157,339.002 43.157,339.208 43.118 C 339.415 43.078,339.246 43.045,338.833 43.045 C 338.421 43.045,338.252 43.078,338.458 43.118 M347.167 43.667 C 347.167 43.930,347.458 44.001,347.639 43.783 C 347.772 43.623,347.736 43.564,347.492 43.545 C 347.313 43.532,347.167 43.587,347.167 43.667 M347.833 43.990 C 347.833 44.076,347.978 44.135,348.155 44.122 C 348.332 44.108,348.440 44.038,348.395 43.965 C 348.281 43.781,347.833 43.800,347.833 43.990 M22.597 46.774 C 22.515 46.988,22.541 47.007,22.717 46.861 C 22.883 46.723,23.001 46.727,23.171 46.879 C 23.365 47.052,23.366 47.038,23.180 46.792 C 22.904 46.427,22.732 46.422,22.597 46.774 " stroke="none" fill="#007f7f" fill-rule="evenodd"></path><path id="path3" d="M394.500 6.166 C 394.500 6.241,394.358 6.265,394.184 6.219 C 393.674 6.086,393.098 6.467,393.351 6.771 C 393.464 6.907,393.487 7.003,393.403 6.983 C 393.319 6.963,393.137 6.993,393.000 7.049 C 392.863 7.105,392.563 7.173,392.333 7.200 C 392.023 7.237,391.904 7.362,391.866 7.689 C 391.827 8.020,391.699 8.152,391.344 8.223 C 390.974 8.297,390.858 8.426,390.798 8.830 C 390.690 9.568,390.774 31.829,390.885 31.941 C 391.241 32.297,393.106 32.154,392.899 31.787 C 392.812 31.632,392.834 31.630,392.992 31.775 C 393.209 31.975,393.833 31.525,393.833 31.170 C 393.833 31.080,394.023 30.959,394.254 30.901 C 394.594 30.815,394.638 30.749,394.481 30.560 C 394.326 30.374,394.338 30.346,394.538 30.422 C 394.843 30.539,394.926 30.261,394.984 28.920 C 395.034 27.768,395.076 27.667,395.500 27.667 C 396.098 27.667,396.148 27.307,396.159 22.875 C 396.165 20.484,396.207 20.000,396.407 20.000 C 397.116 20.000,397.167 19.554,397.167 13.365 L 397.167 7.471 396.672 7.284 C 396.338 7.158,396.145 6.947,396.076 6.632 C 396.020 6.376,395.886 6.156,395.778 6.143 C 394.945 6.042,394.500 6.049,394.500 6.166 M123.230 7.461 C 123.103 7.587,123.000 7.793,123.000 7.918 C 123.000 8.042,122.794 8.168,122.542 8.197 C 122.190 8.238,122.047 8.374,121.926 8.784 C 121.809 9.180,121.659 9.330,121.343 9.367 C 120.940 9.414,120.912 9.482,120.833 10.583 C 120.771 11.455,120.692 11.738,120.521 11.702 C 120.368 11.669,120.328 11.746,120.400 11.933 C 120.494 12.179,120.472 12.185,120.222 11.982 C 120.065 11.854,119.988 11.837,120.052 11.944 C 120.116 12.051,120.075 12.170,119.959 12.208 C 119.736 12.282,119.542 28.160,119.750 29.298 C 119.831 29.737,119.948 29.865,120.342 29.943 C 120.612 29.997,120.833 30.105,120.833 30.182 C 120.833 30.260,120.733 30.284,120.610 30.237 C 120.356 30.140,120.001 30.505,119.916 30.950 C 119.885 31.115,119.844 31.269,119.825 31.292 C 119.745 31.391,119.707 31.720,119.688 32.489 C 119.670 33.186,119.610 33.329,119.292 33.428 C 118.773 33.590,118.672 33.796,118.669 34.705 C 118.667 35.412,118.622 35.505,118.238 35.601 C 117.758 35.722,117.500 36.239,117.500 37.083 C 117.500 37.572,117.441 37.651,117.042 37.697 C 116.660 37.741,116.575 37.840,116.531 38.292 L 116.479 38.833 115.323 38.833 L 114.167 38.833 114.167 37.512 C 114.167 36.253,114.144 36.172,113.682 35.804 C 113.229 35.441,113.193 35.323,113.110 33.934 C 113.059 33.063,112.941 32.400,112.826 32.329 C 112.675 32.235,112.675 32.192,112.825 32.142 C 112.955 32.098,112.904 31.941,112.678 31.679 C 112.488 31.461,112.333 31.346,112.333 31.424 C 112.333 31.991,112.017 31.076,111.985 30.417 C 111.933 29.338,111.770 29.034,111.208 28.969 C 110.853 28.929,110.761 28.839,110.797 28.571 C 110.866 28.065,110.241 27.852,108.899 27.922 C 106.987 28.023,106.648 28.153,107.040 28.637 C 107.182 28.813,107.186 28.859,107.053 28.779 C 106.945 28.714,106.809 28.737,106.752 28.831 C 106.694 28.924,106.473 29.000,106.261 29.000 C 105.806 29.000,105.463 29.356,105.507 29.782 C 105.613 30.801,105.503 31.167,105.089 31.167 C 104.512 31.167,104.333 31.519,104.333 32.656 C 104.333 33.247,104.288 33.316,103.875 33.364 C 103.438 33.414,103.413 33.466,103.333 34.500 C 103.257 35.498,103.221 35.579,102.886 35.533 C 102.404 35.466,102.167 35.935,102.167 36.953 C 102.167 37.697,102.127 37.775,101.667 37.949 C 101.187 38.130,101.167 38.179,101.167 39.147 C 101.167 39.912,101.114 40.136,100.948 40.072 C 100.650 39.958,100.103 40.593,100.225 40.910 C 100.279 41.051,100.248 41.167,100.158 41.167 C 99.971 41.167,99.961 44.668,100.147 44.969 C 100.396 45.371,102.586 45.299,102.431 44.893 C 102.348 44.677,102.373 44.659,102.553 44.808 C 102.847 45.052,103.055 44.850,102.811 44.557 C 102.669 44.386,102.689 44.333,102.896 44.333 C 103.045 44.333,103.176 44.221,103.188 44.083 C 103.199 43.946,103.227 43.758,103.250 43.667 C 103.273 43.575,103.301 43.387,103.313 43.250 C 103.325 43.103,103.498 43.000,103.732 43.000 C 103.952 43.000,104.176 42.884,104.230 42.741 C 104.298 42.566,104.263 42.522,104.123 42.607 C 103.969 42.699,103.971 42.663,104.131 42.466 C 104.249 42.321,104.334 42.138,104.319 42.059 C 104.204 41.418,104.360 40.833,104.646 40.833 C 105.118 40.833,105.312 40.492,105.435 39.447 C 105.503 38.865,105.625 38.500,105.753 38.500 C 106.090 38.500,106.354 38.087,106.148 37.882 C 106.023 37.756,106.032 37.667,106.178 37.576 C 106.320 37.489,106.343 37.517,106.250 37.667 C 106.161 37.811,106.180 37.845,106.308 37.766 C 106.413 37.701,106.500 37.351,106.500 36.990 C 106.500 36.451,106.558 36.333,106.823 36.333 C 107.216 36.333,107.413 36.069,107.144 35.902 C 107.014 35.822,106.993 35.855,107.083 36.000 C 107.173 36.145,107.153 36.178,107.023 36.098 C 106.741 35.923,106.960 35.662,107.284 35.786 C 107.492 35.866,107.531 35.822,107.448 35.604 C 107.387 35.445,107.401 35.356,107.480 35.404 C 107.558 35.453,107.658 36.054,107.702 36.740 C 107.787 38.052,108.050 38.638,108.418 38.332 C 108.676 38.118,108.828 38.599,108.831 39.635 C 108.832 40.030,108.900 40.312,108.981 40.262 C 109.062 40.211,109.119 40.299,109.106 40.456 C 109.094 40.613,109.177 40.753,109.292 40.767 C 109.406 40.780,109.575 40.801,109.667 40.813 C 109.758 40.824,109.833 41.018,109.833 41.244 C 109.833 41.692,110.227 42.000,110.797 42.000 C 110.868 42.000,111.012 42.225,111.116 42.500 C 111.320 43.043,111.257 43.029,113.667 43.029 C 116.076 43.029,116.013 43.043,116.218 42.500 C 116.388 42.050,116.627 41.906,117.068 41.989 C 117.284 42.030,117.494 41.647,117.497 41.208 C 117.499 41.002,117.556 40.842,117.625 40.853 C 118.254 40.952,118.500 40.809,118.500 40.344 C 118.500 39.914,118.565 39.848,119.042 39.802 C 119.516 39.757,119.590 39.683,119.635 39.218 C 119.677 38.787,119.768 38.677,120.119 38.635 C 120.434 38.598,120.569 38.470,120.614 38.170 C 120.648 37.943,120.893 37.558,121.159 37.316 C 121.467 37.035,121.584 36.817,121.482 36.715 C 121.380 36.613,121.409 36.556,121.562 36.556 C 121.695 36.556,121.846 36.770,121.898 37.031 C 121.971 37.395,122.111 37.531,122.497 37.608 C 122.979 37.704,123.000 37.745,123.000 38.571 C 123.000 39.475,123.199 39.833,123.700 39.833 C 123.885 39.833,124.000 39.956,124.000 40.155 C 124.000 40.332,124.112 40.588,124.249 40.725 C 124.405 40.881,124.431 40.995,124.317 41.033 C 123.867 41.183,124.783 41.869,125.548 41.955 C 126.273 42.037,126.333 42.079,126.333 42.503 C 126.333 43.098,126.680 43.159,129.777 43.106 C 132.241 43.064,132.667 42.947,132.667 42.313 C 132.667 42.076,132.789 42.000,133.171 42.000 C 133.593 42.000,133.691 41.922,133.771 41.519 C 133.843 41.159,133.999 41.001,134.392 40.889 C 134.788 40.776,134.929 40.631,134.968 40.296 C 135.008 39.956,135.124 39.842,135.468 39.802 C 135.715 39.773,135.926 39.656,135.938 39.542 C 135.949 39.427,135.968 39.188,135.979 39.011 C 135.993 38.790,136.144 38.672,136.458 38.636 C 136.809 38.596,136.953 38.460,137.073 38.054 C 137.160 37.758,137.402 37.446,137.624 37.345 C 137.841 37.246,137.980 37.102,137.932 37.025 C 137.815 36.835,138.481 36.135,138.668 36.251 C 138.750 36.301,138.898 36.191,138.998 36.005 C 139.097 35.819,139.123 35.667,139.056 35.667 C 138.988 35.667,139.023 35.577,139.133 35.467 C 139.243 35.357,139.333 35.057,139.333 34.800 C 139.333 34.543,139.408 34.333,139.500 34.333 C 139.592 34.333,139.658 34.390,139.647 34.458 C 139.589 34.824,139.707 35.026,140.076 35.194 C 140.436 35.358,140.491 35.502,140.534 36.398 C 140.574 37.228,140.636 37.417,140.869 37.419 C 141.360 37.422,141.477 37.710,141.547 39.099 C 141.625 40.644,141.702 40.833,142.249 40.833 C 142.575 40.833,142.655 40.930,142.698 41.375 C 142.744 41.851,142.815 41.923,143.292 41.969 C 143.640 42.003,143.833 42.111,143.833 42.272 C 143.833 42.902,144.283 43.041,146.316 43.040 C 148.598 43.039,148.931 42.964,149.067 42.422 C 149.138 42.141,149.304 42.006,149.625 41.969 C 149.983 41.928,150.095 41.818,150.136 41.464 C 150.178 41.095,150.294 40.991,150.761 40.904 C 151.252 40.811,151.333 40.730,151.333 40.326 C 151.333 39.937,151.412 39.846,151.792 39.803 C 152.144 39.762,152.286 39.626,152.407 39.216 C 152.524 38.820,152.674 38.670,152.991 38.633 C 153.279 38.599,153.424 38.475,153.441 38.250 C 153.454 38.067,153.473 37.781,153.482 37.615 C 153.492 37.449,153.572 37.358,153.661 37.413 C 153.939 37.585,154.491 36.864,154.600 36.186 C 154.688 35.635,154.778 35.519,155.185 35.438 C 155.589 35.357,155.667 35.260,155.667 34.837 C 155.667 34.372,155.712 34.333,156.250 34.333 L 156.833 34.333 156.833 35.273 C 156.833 35.966,156.910 36.276,157.125 36.452 C 157.285 36.584,157.323 36.644,157.208 36.586 C 156.890 36.425,156.960 36.805,157.321 37.191 C 157.497 37.381,157.722 37.486,157.821 37.425 C 157.979 37.327,158.109 38.717,158.012 39.461 C 157.997 39.577,158.213 39.718,158.492 39.773 C 158.858 39.847,159.005 39.974,159.018 40.229 C 159.027 40.424,159.052 40.696,159.073 40.833 C 159.093 40.971,159.122 41.260,159.138 41.476 C 159.158 41.751,159.242 41.840,159.417 41.773 C 159.554 41.720,159.667 41.750,159.667 41.839 C 159.667 42.014,162.632 42.067,163.070 41.899 C 163.226 41.839,163.333 41.601,163.333 41.316 C 163.333 40.891,163.393 40.833,163.831 40.833 C 164.283 40.833,164.339 40.772,164.436 40.170 C 164.494 39.805,164.596 39.540,164.663 39.581 C 165.077 39.837,165.389 39.166,165.464 37.858 C 165.543 36.505,165.544 36.500,166.004 36.500 C 166.471 36.500,166.667 36.251,166.667 35.653 C 166.667 35.477,166.750 35.333,166.851 35.333 C 166.954 35.333,166.989 35.212,166.931 35.060 C 166.843 34.831,166.867 34.821,167.080 34.997 C 167.219 35.113,167.343 35.161,167.354 35.104 C 167.366 35.047,167.386 34.944,167.398 34.875 C 167.494 34.365,167.750 34.290,167.831 34.748 C 167.889 35.074,168.034 35.267,168.251 35.306 C 168.789 35.403,168.833 35.530,168.849 37.039 C 168.866 38.593,169.200 39.599,169.688 39.564 C 169.897 39.549,169.980 39.756,170.054 40.477 C 170.146 41.363,170.512 41.948,170.846 41.742 C 170.918 41.698,171.024 41.737,171.082 41.831 C 171.139 41.924,171.407 42.000,171.677 42.000 C 172.085 42.000,172.167 42.068,172.167 42.407 C 172.167 42.954,172.328 43.025,173.721 43.099 C 175.104 43.172,176.371 43.029,176.238 42.815 C 176.188 42.733,176.226 42.667,176.323 42.667 C 176.421 42.667,176.500 42.517,176.500 42.333 C 176.500 42.045,176.611 42.000,177.321 42.000 C 178.200 42.000,178.667 41.711,178.667 41.166 C 178.667 40.951,178.808 40.839,179.125 40.803 C 179.552 40.754,179.594 40.678,179.732 39.708 C 179.863 38.783,179.922 38.667,180.255 38.667 C 180.657 38.667,180.833 38.383,180.833 37.736 C 180.833 37.515,180.890 37.342,180.958 37.353 C 181.329 37.412,181.519 37.281,181.780 36.792 C 181.939 36.494,182.049 36.181,182.025 36.097 C 182.001 36.013,182.088 36.032,182.218 36.141 C 182.528 36.397,182.931 35.998,182.648 35.715 C 182.523 35.590,182.532 35.500,182.678 35.410 C 182.820 35.322,182.843 35.350,182.750 35.500 C 182.661 35.644,182.680 35.678,182.808 35.599 C 182.913 35.534,183.000 35.229,183.000 34.922 C 183.000 34.445,183.048 34.377,183.337 34.453 C 183.580 34.516,183.627 34.597,183.505 34.744 C 183.274 35.022,183.498 35.209,183.780 34.975 C 183.960 34.826,183.986 34.844,183.903 35.060 C 183.844 35.212,183.880 35.333,183.982 35.333 C 184.093 35.333,184.168 35.681,184.169 36.208 C 184.172 37.238,184.263 37.411,184.875 37.561 C 185.314 37.668,185.534 39.022,185.345 40.461 C 185.330 40.577,185.546 40.718,185.825 40.773 C 186.218 40.852,186.333 40.964,186.333 41.265 C 186.333 41.581,186.933 42.158,187.125 42.028 C 187.292 41.915,187.454 42.071,187.616 42.500 C 187.820 43.043,187.757 43.029,190.167 43.029 C 192.576 43.029,192.513 43.043,192.718 42.500 C 192.863 42.116,193.010 42.000,193.352 42.000 C 193.804 42.000,194.000 41.744,194.000 41.153 C 194.000 40.977,194.056 40.842,194.125 40.853 C 194.759 40.953,195.000 40.810,195.000 40.333 C 195.000 39.958,195.077 39.833,195.308 39.833 C 195.679 39.833,196.167 39.329,196.167 38.945 C 196.167 38.687,196.365 38.586,196.735 38.656 C 196.951 38.696,197.161 38.314,197.164 37.875 C 197.166 37.669,197.242 37.500,197.333 37.500 C 197.685 37.500,198.143 36.876,197.942 36.671 C 197.797 36.524,197.811 36.489,198.000 36.530 C 198.180 36.568,198.273 36.396,198.333 35.917 C 198.398 35.403,198.489 35.250,198.732 35.250 C 199.131 35.250,199.291 34.951,199.418 33.964 C 199.536 33.047,200.245 32.970,200.931 33.801 C 201.172 34.091,201.317 34.161,201.401 34.025 C 201.468 33.917,201.594 33.872,201.681 33.925 C 201.768 33.979,201.796 34.093,201.743 34.178 C 201.686 34.269,202.354 34.344,203.365 34.360 C 204.310 34.375,204.837 34.417,204.535 34.454 C 204.088 34.510,203.970 34.610,203.891 35.002 C 203.819 35.365,203.689 35.494,203.357 35.532 C 203.016 35.572,202.899 35.695,202.833 36.082 C 202.765 36.479,202.645 36.598,202.249 36.666 C 201.858 36.733,201.739 36.849,201.698 37.199 C 201.658 37.545,201.544 37.658,201.198 37.698 C 200.857 37.738,200.712 37.878,200.593 38.284 C 200.476 38.680,200.326 38.830,200.009 38.867 C 199.584 38.917,199.583 38.918,199.536 40.805 C 199.505 42.060,199.546 42.658,199.659 42.588 C 199.760 42.526,199.789 42.588,199.730 42.741 C 199.655 42.938,199.746 43.000,200.107 43.001 C 200.465 43.002,200.657 43.131,200.878 43.519 C 201.113 43.932,201.219 43.998,201.405 43.843 C 201.581 43.697,201.667 43.699,201.761 43.851 C 201.846 43.988,201.811 44.010,201.651 43.918 C 201.478 43.820,201.464 43.836,201.595 43.979 C 201.723 44.118,202.805 44.161,205.428 44.128 L 209.083 44.083 209.136 43.625 C 209.181 43.236,209.269 43.165,209.719 43.153 C 211.224 43.114,211.397 43.014,211.487 42.125 C 211.494 42.056,211.758 42.000,212.072 42.000 C 212.914 42.000,213.500 41.731,213.500 41.343 C 213.500 41.048,213.747 40.817,214.250 40.641 C 214.342 40.609,214.406 40.490,214.394 40.377 C 214.381 40.263,214.438 40.211,214.519 40.262 C 214.601 40.312,214.667 39.640,214.667 38.750 C 214.667 37.860,214.601 37.188,214.519 37.238 C 214.438 37.289,214.381 37.200,214.394 37.041 C 214.423 36.670,213.110 36.584,212.816 36.937 C 212.673 37.110,212.675 37.167,212.825 37.167 C 212.956 37.167,212.939 37.251,212.774 37.417 C 212.636 37.554,212.443 37.667,212.345 37.667 C 212.247 37.667,212.167 37.739,212.167 37.828 C 212.167 37.917,212.054 37.946,211.916 37.893 C 211.737 37.825,211.636 37.943,211.564 38.306 C 211.485 38.699,211.362 38.826,211.023 38.866 C 210.683 38.905,210.571 39.021,210.531 39.375 L 210.478 39.833 208.239 39.833 C 206.644 39.833,206.000 39.777,206.000 39.639 C 206.000 39.532,206.047 39.492,206.105 39.550 C 206.343 39.788,206.864 39.321,206.649 39.062 C 206.484 38.863,206.489 38.824,206.675 38.866 C 206.826 38.899,206.937 38.715,206.995 38.335 C 207.057 37.925,207.182 37.736,207.417 37.692 C 207.912 37.601,208.167 37.338,208.167 36.917 C 208.167 36.633,208.289 36.517,208.670 36.441 C 209.063 36.362,209.196 36.230,209.274 35.840 C 209.329 35.564,209.421 35.366,209.479 35.400 C 209.958 35.679,210.333 35.139,210.333 34.172 C 210.333 33.147,210.395 33.065,211.106 33.150 C 211.210 33.162,211.345 32.905,211.407 32.578 C 211.539 31.872,211.362 30.500,211.138 30.500 C 211.051 30.500,211.021 30.434,211.072 30.352 C 211.187 30.165,210.602 30.005,209.792 30.002 C 209.282 30.000,209.167 29.939,209.167 29.673 C 209.167 28.847,207.383 28.788,207.264 29.610 C 207.229 29.850,207.047 29.928,206.427 29.968 C 205.992 29.996,205.675 29.955,205.723 29.877 C 206.008 29.415,205.469 29.180,203.833 29.052 C 202.591 28.956,202.679 28.995,202.582 28.493 C 202.493 28.031,202.190 27.803,201.792 27.899 C 201.612 27.942,201.500 27.872,201.500 27.717 C 201.500 27.563,201.404 27.501,201.255 27.558 C 201.121 27.610,200.959 27.569,200.896 27.467 C 200.830 27.359,200.857 27.328,200.963 27.394 C 201.062 27.455,201.191 27.429,201.249 27.336 C 201.436 27.032,200.511 26.833,198.906 26.833 L 197.333 26.833 197.333 27.333 C 197.333 27.608,197.277 27.839,197.208 27.846 C 196.182 27.951,196.185 27.938,196.170 32.375 C 196.167 33.186,196.120 33.333,195.867 33.333 C 195.363 33.333,195.167 33.693,195.167 34.617 C 195.167 35.389,195.125 35.500,194.833 35.500 C 194.650 35.500,194.500 35.579,194.500 35.677 C 194.500 35.774,194.433 35.812,194.351 35.761 C 194.137 35.629,194.000 36.081,194.000 36.919 C 194.000 37.587,193.963 37.649,193.542 37.697 C 193.160 37.741,193.075 37.840,193.031 38.292 L 192.979 38.833 191.844 38.833 L 190.709 38.833 190.631 37.475 C 190.554 36.144,190.243 35.497,189.809 35.765 C 189.731 35.813,189.662 35.380,189.657 34.802 C 189.640 32.892,189.411 31.433,189.153 31.592 C 189.069 31.644,189.000 31.609,189.000 31.515 C 189.000 31.421,188.887 31.387,188.750 31.440 C 188.560 31.513,188.500 31.408,188.500 31.006 C 188.500 30.396,188.176 30.000,187.679 30.000 C 187.405 30.000,187.333 29.895,187.333 29.495 L 187.333 28.990 185.292 29.037 L 183.250 29.083 183.197 29.542 C 183.154 29.921,183.063 30.000,182.673 30.000 C 182.195 30.000,182.000 30.245,182.000 30.847 C 182.000 31.039,181.884 31.168,181.708 31.169 C 181.162 31.174,180.954 31.416,180.846 32.173 C 180.839 32.222,180.671 32.275,180.473 32.290 C 179.962 32.328,179.676 32.964,179.823 33.737 C 179.839 33.821,179.721 33.783,179.562 33.653 C 179.301 33.441,179.283 33.450,179.389 33.732 C 179.494 34.012,179.475 34.022,179.212 33.821 C 179.050 33.696,178.972 33.660,179.040 33.740 C 179.108 33.820,179.091 33.974,179.002 34.081 C 178.913 34.188,178.782 34.555,178.711 34.897 C 178.640 35.238,178.507 35.521,178.416 35.525 C 177.860 35.551,177.667 35.867,177.667 36.745 C 177.667 37.639,177.663 37.646,177.125 37.698 C 176.649 37.744,176.577 37.815,176.531 38.292 C 176.483 38.786,176.429 38.833,175.914 38.833 L 175.349 38.833 175.300 37.808 C 175.254 36.865,175.217 36.777,174.843 36.721 C 174.297 36.638,174.336 36.802,174.322 34.528 C 174.315 33.413,174.246 32.500,174.170 32.500 C 174.094 32.500,174.070 32.350,174.118 32.167 C 174.169 31.973,174.123 31.833,174.010 31.833 C 173.897 31.833,173.867 31.745,173.939 31.625 C 174.022 31.487,173.968 31.495,173.778 31.649 C 173.528 31.851,173.506 31.846,173.597 31.607 C 173.668 31.423,173.614 31.333,173.434 31.333 C 173.239 31.333,173.167 31.174,173.167 30.746 C 173.167 30.231,173.107 30.146,172.684 30.062 C 172.323 29.990,172.178 29.848,172.108 29.498 L 172.014 29.031 169.408 29.009 C 167.640 28.994,166.725 29.049,166.567 29.180 C 166.438 29.287,166.333 29.322,166.333 29.259 C 166.333 29.075,165.909 29.554,165.788 29.875 C 165.727 30.035,165.571 30.167,165.442 30.167 C 165.183 30.167,164.796 30.571,164.709 30.932 C 164.678 31.060,164.610 31.390,164.558 31.666 C 164.505 31.941,164.373 32.167,164.263 32.167 C 163.843 32.167,163.492 32.609,163.411 33.239 C 163.323 33.931,163.167 34.262,163.167 33.758 C 163.167 33.543,163.075 33.485,162.833 33.548 C 162.650 33.596,162.538 33.574,162.584 33.499 C 162.631 33.423,162.604 33.337,162.524 33.306 C 162.444 33.275,162.336 32.747,162.283 32.133 C 162.157 30.663,161.913 30.215,161.292 30.314 C 161.223 30.324,161.167 30.123,161.167 29.867 C 161.167 29.046,160.993 29.000,157.889 29.000 C 154.779 29.000,154.667 29.034,154.667 29.963 C 154.667 30.035,154.450 30.175,154.185 30.275 C 153.769 30.433,153.688 30.571,153.588 31.302 C 153.485 32.049,153.419 32.158,153.011 32.248 C 152.635 32.330,152.544 32.447,152.516 32.883 C 152.455 33.850,152.453 33.853,152.278 33.678 C 152.025 33.425,151.544 34.079,151.413 34.854 C 151.330 35.348,151.197 35.560,150.900 35.673 C 150.680 35.757,150.491 35.902,150.479 35.996 C 150.468 36.090,150.440 36.242,150.417 36.333 C 150.394 36.425,150.366 36.762,150.354 37.083 C 150.335 37.616,150.290 37.667,149.833 37.667 C 149.558 37.667,149.322 37.760,149.308 37.875 C 149.294 37.990,149.265 38.158,149.244 38.250 C 149.223 38.342,149.196 38.510,149.186 38.625 C 149.173 38.768,148.829 38.833,148.083 38.833 L 147.000 38.833 146.988 38.208 C 146.968 37.131,146.823 36.252,146.658 36.194 C 146.570 36.163,146.550 36.051,146.614 35.944 C 146.678 35.837,146.602 35.854,146.445 35.982 C 146.191 36.188,146.172 36.179,146.277 35.899 C 146.379 35.628,146.358 35.614,146.134 35.796 C 145.899 35.987,145.869 35.816,145.844 34.142 C 145.815 32.175,145.765 31.921,145.447 32.113 C 145.314 32.193,145.318 32.147,145.460 31.971 C 145.715 31.656,145.347 31.220,145.065 31.502 C 144.961 31.605,144.890 31.478,144.865 31.146 C 144.807 30.391,144.542 30.000,144.089 30.000 C 143.776 30.000,143.677 29.900,143.636 29.542 L 143.583 29.083 141.529 29.036 C 140.148 29.005,139.509 29.046,139.580 29.161 C 139.639 29.256,139.607 29.333,139.510 29.333 C 139.413 29.333,139.333 29.478,139.333 29.656 C 139.333 29.883,139.199 29.993,138.875 30.031 C 138.495 30.074,138.408 30.174,138.365 30.615 C 138.320 31.078,138.245 31.154,137.782 31.199 C 137.339 31.241,137.241 31.328,137.197 31.715 C 137.155 32.077,137.036 32.201,136.655 32.277 C 136.250 32.358,136.167 32.457,136.167 32.858 C 136.167 33.220,136.062 33.381,135.750 33.500 C 135.521 33.587,135.324 33.735,135.313 33.829 C 135.301 33.923,135.282 34.069,135.271 34.153 C 135.259 34.237,135.194 34.362,135.125 34.431 C 135.056 34.499,135.000 34.752,135.000 34.991 C 135.000 35.326,134.880 35.472,134.480 35.623 C 134.148 35.749,133.991 35.903,134.047 36.050 C 134.159 36.341,134.034 36.516,133.447 36.890 C 133.059 37.137,133.013 37.232,133.184 37.437 C 133.350 37.638,133.344 37.676,133.153 37.634 C 132.988 37.599,132.901 37.773,132.865 38.208 L 132.813 38.833 131.927 38.833 C 130.993 38.833,130.546 39.112,130.726 39.581 C 130.779 39.720,130.750 39.833,130.661 39.833 C 130.573 39.833,130.491 39.721,130.479 39.583 C 130.468 39.446,130.449 39.240,130.438 39.125 C 130.426 39.010,130.210 38.893,129.958 38.864 C 129.696 38.834,129.500 38.709,129.500 38.572 C 129.500 38.441,129.427 38.333,129.339 38.333 C 129.250 38.333,129.225 38.208,129.284 38.054 C 129.365 37.843,129.324 37.801,129.112 37.883 C 128.959 37.941,128.833 37.917,128.833 37.828 C 128.833 37.739,128.721 37.667,128.583 37.667 C 128.397 37.667,128.333 37.466,128.331 36.875 C 128.328 35.961,128.143 35.576,127.775 35.717 C 127.440 35.846,127.321 35.459,127.320 34.225 C 127.319 32.679,127.219 32.385,126.658 32.273 L 126.167 32.175 126.167 29.349 C 126.167 26.545,126.170 26.523,126.542 26.470 C 127.068 26.395,127.313 25.559,127.324 23.792 C 127.332 22.479,127.365 22.333,127.646 22.333 C 128.232 22.333,128.323 21.954,128.370 19.322 C 128.415 16.828,128.427 16.751,128.762 16.797 C 129.313 16.872,129.463 16.256,129.484 13.823 C 129.509 11.117,129.399 10.604,128.781 10.531 C 128.360 10.481,128.143 9.510,128.315 8.454 C 128.326 8.384,128.110 8.280,127.835 8.225 C 127.559 8.170,127.333 8.027,127.333 7.908 C 127.333 7.169,123.896 6.794,123.230 7.461 M288.238 9.631 C 288.169 9.788,288.106 9.990,288.098 10.079 C 288.090 10.168,287.642 10.318,287.102 10.412 C 286.278 10.556,285.300 11.333,285.942 11.333 C 285.997 11.333,285.957 11.434,285.855 11.557 C 285.753 11.680,285.706 11.831,285.750 11.892 C 285.794 11.953,285.746 11.932,285.643 11.845 C 285.269 11.532,284.667 12.556,284.667 13.506 C 284.667 13.842,284.598 13.963,284.443 13.904 C 284.026 13.744,283.778 14.339,283.700 15.688 C 283.631 16.882,283.583 17.040,283.251 17.166 C 283.046 17.244,282.814 17.445,282.734 17.612 C 282.531 18.038,282.460 33.122,282.661 33.246 C 282.748 33.300,282.775 33.458,282.722 33.597 C 282.624 33.851,283.143 34.367,283.362 34.233 C 283.575 34.101,283.647 34.431,283.681 35.691 C 283.714 36.963,283.960 37.598,284.364 37.461 C 284.521 37.408,284.631 37.700,284.750 38.478 C 284.897 39.443,284.965 39.581,285.333 39.667 C 285.631 39.737,285.773 39.904,285.834 40.256 C 285.902 40.644,286.024 40.765,286.417 40.833 C 286.812 40.902,286.931 41.022,286.999 41.418 C 287.071 41.837,287.171 41.925,287.626 41.969 C 287.956 42.001,288.167 42.113,288.167 42.257 C 288.167 42.937,288.919 43.083,292.409 43.083 C 296.227 43.083,296.667 43.014,296.667 42.413 C 296.667 42.069,296.747 42.000,297.149 42.000 C 297.636 42.000,297.833 41.759,297.833 41.164 C 297.833 40.951,297.976 40.839,298.292 40.803 C 298.652 40.761,298.761 40.652,298.803 40.292 C 298.843 39.944,298.946 39.833,299.228 39.833 C 299.706 39.833,300.000 39.535,300.000 39.050 C 300.000 38.670,300.018 38.667,302.137 38.667 L 304.275 38.667 304.429 39.708 C 304.578 40.716,304.600 40.752,305.107 40.801 C 305.517 40.841,305.614 40.917,305.552 41.151 C 305.415 41.676,305.940 42.000,306.929 42.000 C 307.615 42.000,307.833 42.059,307.833 42.246 C 307.833 43.120,310.703 43.325,310.803 42.458 C 310.855 42.003,310.865 42.000,312.178 41.979 C 312.905 41.968,313.586 41.949,313.690 41.938 C 313.887 41.916,314.076 41.632,314.233 41.125 C 314.295 40.923,314.495 40.833,314.880 40.833 C 315.477 40.833,316.083 40.491,316.083 40.152 C 316.083 40.038,316.177 39.913,316.292 39.875 C 316.428 39.829,316.500 39.982,316.500 40.319 C 316.500 40.777,316.554 40.833,316.989 40.833 C 317.420 40.833,317.485 40.899,317.531 41.375 C 317.577 41.851,317.649 41.923,318.125 41.969 C 318.570 42.012,318.667 42.092,318.667 42.417 C 318.667 42.997,318.825 43.037,321.055 43.024 C 323.668 43.009,324.284 42.814,323.886 42.125 C 323.846 42.056,324.081 42.000,324.407 42.000 C 324.733 42.000,325.009 41.925,325.021 41.833 C 325.032 41.742,325.060 41.592,325.083 41.500 C 325.106 41.408,325.134 41.221,325.146 41.083 C 325.157 40.946,325.223 40.842,325.292 40.853 C 325.926 40.953,326.167 40.810,326.167 40.333 C 326.167 39.923,326.235 39.833,326.550 39.833 C 327.035 39.833,327.333 39.539,327.333 39.061 C 327.333 38.779,327.444 38.676,327.792 38.636 C 328.190 38.590,328.257 38.501,328.302 37.955 C 328.333 37.582,328.423 37.369,328.523 37.431 C 328.802 37.603,329.287 36.935,329.409 36.211 C 329.533 35.481,329.756 35.340,330.797 35.336 C 331.323 35.333,331.767 34.820,331.554 34.458 C 331.513 34.390,332.010 34.333,332.657 34.333 L 333.833 34.333 333.849 35.958 C 333.876 38.737,333.964 39.875,334.161 39.996 C 334.265 40.061,334.328 40.216,334.300 40.341 C 334.273 40.466,334.325 40.573,334.417 40.578 C 334.761 40.599,335.000 40.865,335.000 41.227 C 335.000 41.706,335.298 42.000,335.783 42.000 C 336.079 42.000,336.167 42.093,336.167 42.407 C 336.167 42.987,336.304 43.026,338.296 43.016 C 340.964 43.003,341.193 42.968,341.352 42.538 C 341.427 42.334,341.435 42.157,341.370 42.145 C 341.304 42.133,341.510 42.076,341.828 42.020 C 342.300 41.935,342.433 41.818,342.560 41.375 C 342.688 40.927,342.797 40.833,343.191 40.833 C 343.613 40.833,343.669 40.772,343.686 40.292 L 343.706 39.750 343.812 40.250 C 343.893 40.631,344.022 40.762,344.355 40.801 C 344.740 40.845,344.802 40.942,344.877 41.610 C 344.924 42.027,345.069 42.474,345.199 42.604 C 345.418 42.823,345.580 42.878,346.644 43.098 C 347.120 43.197,347.528 43.574,347.367 43.766 C 347.303 43.843,347.383 43.804,347.545 43.679 C 347.801 43.484,347.827 43.488,347.741 43.714 C 347.662 43.918,347.722 43.954,348.013 43.878 C 348.245 43.818,348.346 43.845,348.280 43.951 C 348.212 44.061,348.664 44.132,349.553 44.152 C 351.037 44.185,351.561 44.077,351.391 43.774 C 351.322 43.650,351.361 43.654,351.503 43.786 C 351.677 43.947,351.795 43.902,352.084 43.567 C 352.440 43.152,352.722 43.038,353.453 43.013 C 353.734 43.003,353.797 42.930,353.714 42.708 C 353.618 42.453,353.639 42.445,353.885 42.645 C 354.136 42.849,354.195 42.807,354.422 42.264 C 354.562 41.928,354.753 41.700,354.846 41.758 C 355.146 41.943,355.534 41.491,355.307 41.218 C 355.152 41.031,355.160 40.992,355.347 41.032 C 355.516 41.069,355.598 40.882,355.635 40.375 C 355.670 39.879,355.761 39.667,355.936 39.667 C 356.074 39.667,356.145 39.600,356.095 39.519 C 356.045 39.438,356.142 39.335,356.312 39.291 C 356.735 39.180,356.801 38.685,356.820 35.500 C 356.837 32.539,356.816 32.442,356.125 32.272 C 355.714 32.172,355.664 32.083,355.646 31.413 C 355.614 30.289,355.603 30.250,355.314 30.247 C 354.926 30.244,354.528 29.866,354.468 29.446 C 354.413 29.061,354.392 29.053,353.284 29.021 C 352.628 29.002,352.556 28.955,352.409 28.458 L 352.250 27.917 349.417 27.867 C 345.724 27.801,345.192 27.878,344.974 28.502 C 344.856 28.841,344.679 28.995,344.366 29.032 C 343.984 29.076,343.907 29.186,343.795 29.833 C 343.441 31.896,343.947 34.528,344.594 33.991 C 344.742 33.868,344.833 33.858,344.833 33.965 C 344.833 34.157,345.137 34.145,345.466 33.939 C 345.644 33.828,345.644 33.756,345.466 33.537 C 345.328 33.366,345.321 33.312,345.447 33.387 C 345.555 33.452,345.691 33.428,345.750 33.333 C 345.809 33.239,345.920 33.200,345.998 33.248 C 346.315 33.445,347.000 33.008,347.000 32.608 C 347.000 32.297,347.111 32.186,347.500 32.108 C 347.893 32.030,348.000 31.921,348.000 31.598 C 348.000 31.294,348.084 31.194,348.325 31.212 C 348.551 31.229,348.601 31.295,348.489 31.429 C 348.278 31.684,348.737 32.073,349.090 31.937 C 349.240 31.880,349.307 31.907,349.249 32.002 C 349.189 32.099,349.392 32.167,349.740 32.167 C 350.307 32.167,350.333 32.193,350.333 32.750 L 350.333 33.333 349.343 33.333 C 348.799 33.333,348.303 33.413,348.243 33.511 C 348.182 33.609,348.020 33.646,347.881 33.593 C 347.699 33.523,347.659 33.573,347.735 33.772 C 347.827 34.012,347.803 34.018,347.545 33.821 C 347.383 33.696,347.305 33.659,347.372 33.739 C 347.552 33.951,346.845 34.500,346.391 34.500 C 346.068 34.500,346.000 34.586,346.000 35.000 C 346.000 35.411,345.931 35.500,345.617 35.500 C 345.128 35.500,344.833 35.795,344.833 36.283 C 344.833 36.616,344.750 36.667,344.204 36.667 C 343.450 36.667,342.734 37.096,342.985 37.398 C 343.109 37.548,342.997 37.610,342.542 37.641 C 341.796 37.691,341.500 37.917,341.500 38.437 C 341.500 39.105,340.411 39.012,340.275 38.333 C 340.196 37.936,340.088 37.833,339.754 37.833 L 339.333 37.833 339.315 34.708 C 339.305 32.990,339.311 31.406,339.329 31.190 C 339.347 30.973,339.294 30.838,339.210 30.890 C 339.127 30.941,339.064 30.820,339.071 30.621 C 339.088 30.131,338.612 30.044,335.781 30.020 C 333.287 29.998,332.833 30.112,332.833 30.756 C 332.833 31.114,332.759 31.167,332.255 31.167 L 331.677 31.167 331.630 29.042 L 331.583 26.917 331.042 26.864 C 330.570 26.819,330.500 26.751,330.500 26.341 C 330.500 25.816,330.260 25.667,329.417 25.667 C 328.689 25.667,328.307 25.822,328.450 26.059 C 328.513 26.164,328.430 26.142,328.267 26.009 C 328.001 25.792,327.976 25.801,328.027 26.092 C 328.067 26.324,328.000 26.403,327.792 26.368 C 327.619 26.339,327.500 26.423,327.500 26.576 C 327.500 26.718,327.350 26.843,327.167 26.854 C 326.256 26.911,326.319 26.573,326.279 31.611 C 326.250 35.301,326.227 35.495,325.807 35.559 C 325.297 35.636,325.167 35.879,325.167 36.749 C 325.167 37.602,325.145 37.647,324.708 37.697 C 324.355 37.738,324.214 37.874,324.091 38.292 C 323.932 38.829,323.922 38.833,322.882 38.833 L 321.833 38.833 321.833 38.333 C 321.833 38.058,321.740 37.822,321.625 37.808 C 321.510 37.794,321.342 37.765,321.250 37.744 C 321.158 37.723,321.008 37.696,320.917 37.686 C 320.813 37.674,320.728 36.263,320.691 33.958 C 320.630 30.087,320.613 30.008,319.875 30.003 C 319.669 30.001,319.515 29.944,319.533 29.875 C 319.669 29.360,319.280 29.000,318.590 29.000 C 317.896 29.000,317.646 29.188,317.598 29.749 C 317.590 29.841,317.138 29.971,316.595 30.039 C 316.051 30.107,315.546 30.257,315.472 30.373 C 315.389 30.504,315.337 30.385,315.336 30.055 C 315.332 29.234,315.180 29.000,314.649 29.000 C 314.228 29.000,314.167 28.939,314.167 28.518 C 314.167 27.877,314.124 27.868,311.117 27.842 C 307.487 27.811,306.843 27.911,306.720 28.523 C 306.651 28.872,306.528 29.000,306.262 29.000 C 305.794 29.000,305.500 29.302,305.500 29.783 C 305.500 30.078,305.407 30.167,305.095 30.167 C 304.643 30.167,304.501 30.454,304.420 31.536 C 304.382 32.050,304.272 32.273,303.976 32.437 C 303.760 32.557,303.658 32.659,303.750 32.663 C 303.842 32.668,303.806 32.742,303.670 32.828 C 303.499 32.936,303.405 33.367,303.360 34.242 L 303.297 35.500 302.148 35.500 L 301.000 35.500 301.000 33.595 C 301.000 31.635,300.853 31.167,300.238 31.167 C 300.084 31.167,300.000 30.988,300.000 30.661 C 300.000 29.862,299.572 29.000,299.175 29.000 C 298.942 29.000,298.833 28.892,298.833 28.658 C 298.833 28.004,297.930 27.817,294.880 27.842 C 291.791 27.867,291.333 27.976,291.333 28.693 C 291.333 29.053,291.254 29.167,291.006 29.167 C 290.640 29.167,290.352 29.598,290.424 30.042 C 290.449 30.202,290.397 30.333,290.306 30.333 C 290.205 30.333,290.174 30.890,290.225 31.792 C 290.328 33.630,290.343 33.699,290.606 33.598 C 290.889 33.489,291.064 33.774,290.810 33.931 C 290.680 34.011,290.660 33.979,290.750 33.833 C 290.840 33.688,290.820 33.655,290.690 33.736 C 290.421 33.902,290.617 34.167,291.010 34.167 C 291.269 34.167,291.333 34.284,291.333 34.754 C 291.333 35.271,291.392 35.353,291.824 35.440 C 292.199 35.515,292.327 35.642,292.366 35.977 C 292.407 36.336,292.514 36.426,292.948 36.468 C 293.386 36.510,293.489 36.599,293.532 36.968 C 293.560 37.215,293.671 37.417,293.778 37.417 C 293.885 37.417,294.028 37.473,294.097 37.542 C 294.166 37.610,294.528 37.674,294.903 37.683 C 295.459 37.697,295.507 37.721,295.167 37.815 C 294.874 37.896,294.734 38.065,294.697 38.382 C 294.646 38.823,294.620 38.833,293.510 38.833 L 292.375 38.833 292.271 38.315 C 292.197 37.944,292.097 37.825,291.917 37.893 C 291.779 37.946,291.667 37.917,291.667 37.828 C 291.667 37.739,291.554 37.667,291.417 37.667 C 291.279 37.667,291.167 37.550,291.167 37.407 C 291.167 37.264,291.100 37.188,291.019 37.238 C 290.938 37.289,290.881 37.201,290.894 37.044 C 290.906 36.887,290.823 36.747,290.708 36.733 C 290.594 36.720,290.425 36.699,290.333 36.688 C 290.242 36.676,290.167 36.446,290.167 36.177 C 290.167 35.907,290.090 35.639,289.997 35.582 C 289.904 35.524,289.873 35.404,289.928 35.315 C 290.108 35.023,289.655 34.636,289.391 34.855 C 289.206 35.008,289.180 34.992,289.264 34.774 C 289.322 34.623,289.289 34.500,289.191 34.500 C 289.079 34.500,288.994 33.889,288.964 32.875 L 288.917 31.250 288.458 31.197 C 287.736 31.114,287.779 30.075,288.512 29.914 C 288.798 29.851,288.991 29.717,288.950 29.609 C 288.801 29.216,289.133 28.689,289.474 28.778 C 289.710 28.840,289.838 28.756,289.934 28.474 C 290.118 27.934,290.122 27.907,290.146 27.250 C 290.165 26.718,290.210 26.667,290.667 26.667 C 291.127 26.667,291.167 26.620,291.167 26.083 C 291.167 25.571,291.218 25.500,291.587 25.500 C 292.083 25.500,292.333 24.993,292.333 23.989 C 292.333 23.586,292.414 23.326,292.542 23.314 C 292.656 23.304,292.862 23.285,293.000 23.272 C 293.272 23.248,293.466 22.324,293.488 20.958 C 293.498 20.299,293.552 20.167,293.813 20.167 C 294.441 20.167,294.484 19.860,294.450 15.660 L 294.417 11.583 293.969 11.532 C 293.626 11.492,293.497 11.364,293.413 10.983 C 293.329 10.601,293.188 10.463,292.805 10.386 C 292.501 10.325,292.252 10.142,292.166 9.916 C 291.923 9.276,288.505 9.028,288.238 9.631 M361.147 9.458 C 361.136 9.527,361.141 9.658,361.159 9.750 C 361.176 9.842,361.097 9.825,360.983 9.712 C 360.674 9.409,360.250 9.782,360.526 10.115 C 360.681 10.302,360.673 10.341,360.487 10.301 C 360.322 10.265,360.234 10.440,360.198 10.875 C 360.155 11.403,360.086 11.500,359.760 11.500 C 359.178 11.500,359.063 11.785,359.016 13.332 C 358.976 14.638,358.814 15.110,358.475 14.901 C 358.073 14.653,358.011 15.855,358.046 23.189 L 358.083 30.917 358.542 30.969 L 359.000 31.022 359.000 33.834 C 359.000 36.916,359.097 37.404,359.738 37.565 C 360.151 37.669,360.167 37.719,360.167 38.931 C 360.167 40.295,360.347 40.833,360.805 40.833 C 360.991 40.833,361.156 41.030,361.257 41.375 C 361.387 41.814,361.520 41.932,361.965 42.000 C 362.266 42.046,362.502 42.142,362.488 42.213 C 362.392 42.719,362.656 42.937,363.413 42.976 C 364.585 43.037,365.235 42.867,364.984 42.565 C 364.824 42.371,364.838 42.346,365.060 42.431 C 365.243 42.501,365.333 42.448,365.333 42.268 C 365.333 42.053,365.683 41.898,365.875 42.028 C 366.076 42.164,366.667 41.579,366.667 41.244 C 366.667 41.018,366.742 40.824,366.833 40.813 C 366.925 40.801,367.094 40.780,367.208 40.767 C 367.323 40.753,367.406 40.613,367.394 40.456 C 367.381 40.299,367.438 40.211,367.519 40.262 C 367.644 40.339,367.707 39.652,367.736 37.908 C 367.740 37.667,367.863 37.556,368.153 37.532 C 368.701 37.487,368.828 37.245,368.831 36.235 C 368.833 35.484,368.883 35.364,369.267 35.189 C 369.624 35.026,369.665 34.949,369.497 34.746 C 369.332 34.548,369.341 34.500,369.542 34.500 C 369.702 34.500,369.827 34.271,369.893 33.858 C 369.958 33.452,370.147 33.103,370.407 32.908 C 370.741 32.657,370.781 32.553,370.617 32.351 C 370.481 32.182,370.478 32.139,370.608 32.217 C 370.814 32.341,371.000 31.996,371.000 31.490 C 371.000 31.287,371.157 31.134,371.435 31.064 C 371.721 30.992,371.951 30.758,372.111 30.376 C 372.244 30.058,372.399 29.843,372.455 29.899 C 372.618 30.062,373.167 29.478,373.167 29.141 C 373.167 28.852,374.114 28.670,374.356 28.912 C 374.600 29.156,374.269 30.142,373.884 30.318 C 373.520 30.484,373.495 30.544,373.691 30.786 C 373.824 30.950,373.836 31.015,373.720 30.946 C 373.612 30.881,373.476 30.904,373.418 30.997 C 373.361 31.090,373.140 31.167,372.927 31.167 C 372.464 31.167,372.092 31.564,372.226 31.915 C 372.279 32.053,372.231 32.172,372.120 32.179 C 371.094 32.244,371.024 32.378,371.028 34.280 C 371.031 36.311,371.087 36.500,371.686 36.500 C 372.130 36.500,372.167 36.548,372.169 37.125 C 372.173 38.122,372.329 38.466,372.863 38.652 C 373.135 38.747,373.324 38.883,373.282 38.954 C 373.097 39.267,373.502 39.833,373.911 39.833 C 374.267 39.833,374.333 39.910,374.333 40.323 C 374.333 40.593,374.410 40.861,374.503 40.918 C 374.596 40.976,374.626 41.098,374.569 41.189 C 374.512 41.282,374.602 41.332,374.775 41.303 C 375.001 41.264,375.068 41.336,375.027 41.574 C 374.976 41.866,375.001 41.874,375.267 41.658 C 375.430 41.525,375.513 41.503,375.450 41.608 C 375.326 41.814,375.670 42.000,376.176 42.000 C 376.358 42.000,376.601 42.212,376.750 42.500 C 377.027 43.036,376.865 42.999,379.417 43.099 C 381.204 43.168,381.802 43.022,381.920 42.486 C 382.018 42.039,382.085 42.000,382.763 42.000 C 383.168 42.000,383.500 41.927,383.500 41.839 C 383.500 41.750,383.596 41.714,383.714 41.759 C 383.847 41.810,383.990 41.633,384.089 41.297 C 384.215 40.871,384.340 40.752,384.667 40.751 L 385.083 40.750 385.083 39.035 C 385.083 37.693,385.029 37.287,384.833 37.163 C 384.696 37.076,384.658 36.999,384.750 36.992 C 384.842 36.985,384.747 36.911,384.540 36.828 C 384.043 36.628,383.404 36.880,383.288 37.321 C 383.239 37.511,383.078 37.667,382.932 37.667 C 382.786 37.667,382.667 37.739,382.667 37.828 C 382.667 37.917,382.554 37.946,382.416 37.893 C 382.237 37.825,382.136 37.944,382.062 38.315 L 381.958 38.833 380.803 38.833 C 380.145 38.833,379.688 38.768,379.741 38.681 C 379.950 38.343,379.514 37.667,379.087 37.667 C 378.737 37.667,378.667 37.588,378.667 37.194 C 378.667 36.935,378.610 36.666,378.542 36.597 C 378.423 36.479,378.405 36.418,378.354 35.990 C 378.343 35.893,378.257 35.861,378.164 35.918 C 378.071 35.976,378.045 36.104,378.106 36.204 C 378.172 36.309,378.141 36.337,378.033 36.270 C 377.931 36.207,377.895 36.034,377.952 35.884 C 378.017 35.714,377.990 35.653,377.879 35.722 C 377.662 35.856,377.500 35.471,377.500 34.820 C 377.500 34.415,377.568 34.333,377.907 34.333 C 378.396 34.333,378.587 34.098,378.646 33.428 C 378.657 33.296,378.873 33.165,379.124 33.136 C 379.476 33.096,379.601 32.976,379.666 32.619 C 379.715 32.345,379.919 32.070,380.159 31.951 C 380.385 31.839,380.621 31.560,380.685 31.332 C 380.871 30.663,380.854 27.032,380.664 26.915 C 380.571 26.857,380.534 26.747,380.581 26.670 C 380.710 26.462,380.489 25.987,380.313 26.096 C 380.230 26.147,380.212 26.271,380.273 26.371 C 380.338 26.476,380.308 26.504,380.200 26.437 C 380.098 26.374,380.062 26.200,380.119 26.051 C 380.184 25.882,380.156 25.820,380.047 25.888 C 379.948 25.949,379.748 25.740,379.592 25.411 C 379.439 25.089,379.242 24.870,379.154 24.924 C 379.066 24.979,379.045 25.112,379.107 25.220 C 379.172 25.333,379.156 25.358,379.068 25.278 C 378.985 25.201,378.917 25.051,378.917 24.944 C 378.917 24.643,377.194 24.508,374.280 24.580 C 371.573 24.647,371.167 24.747,371.167 25.343 C 371.167 25.562,371.018 25.660,370.625 25.698 C 370.147 25.744,370.074 25.818,370.000 26.331 C 369.931 26.812,369.847 26.912,369.508 26.914 C 369.055 26.917,368.879 27.307,368.850 28.364 C 368.835 28.905,368.779 28.984,368.375 29.031 C 367.978 29.076,367.910 29.166,367.865 29.699 C 367.831 30.111,367.745 30.289,367.605 30.235 C 367.368 30.144,366.893 30.623,366.847 31.000 C 366.830 31.137,366.775 31.719,366.726 32.292 C 366.645 33.242,366.603 33.333,366.253 33.333 C 365.807 33.333,365.667 33.612,365.667 34.500 C 365.667 35.452,365.559 35.618,364.994 35.535 L 364.500 35.462 364.497 32.314 C 364.495 30.583,364.494 27.217,364.494 24.833 C 364.494 22.450,364.495 18.443,364.497 15.928 L 364.500 11.357 364.875 11.303 C 365.111 11.270,365.242 11.143,365.227 10.960 C 365.215 10.801,365.278 10.716,365.368 10.772 C 365.470 10.835,365.501 10.636,365.448 10.248 C 365.402 9.903,365.263 9.558,365.140 9.480 C 364.864 9.305,361.174 9.285,361.147 9.458 M5.917 10.462 C 5.296 10.546,5.000 10.780,5.000 11.187 C 5.000 11.424,4.878 11.500,4.500 11.500 C 4.225 11.500,3.989 11.594,3.975 11.708 C 3.961 11.823,3.942 12.024,3.932 12.155 C 3.917 12.368,3.529 12.543,2.608 12.751 C 2.185 12.847,1.833 13.160,1.833 13.441 C 1.833 13.570,1.650 13.744,1.427 13.829 C 0.955 14.009,0.519 14.665,0.869 14.669 C 1.040 14.671,1.039 14.700,0.864 14.811 C 0.662 14.939,0.545 15.266,0.513 15.792 C 0.506 15.906,0.388 16.000,0.250 16.000 C 0.046 16.000,0.000 16.279,0.000 17.507 L 0.000 19.014 1.292 18.965 C 2.549 18.918,2.585 18.905,2.634 18.477 C 2.672 18.147,2.801 18.015,3.153 17.944 C 3.506 17.874,3.646 17.730,3.719 17.362 C 3.788 17.019,3.943 16.842,4.239 16.768 C 4.503 16.701,4.701 16.506,4.766 16.247 C 4.864 15.857,4.934 15.833,6.018 15.833 L 7.167 15.833 7.167 16.717 C 7.167 17.641,7.363 18.000,7.867 18.000 C 8.112 18.000,8.169 18.146,8.181 18.792 C 8.194 19.583,8.239 19.957,8.393 20.583 C 8.438 20.767,8.480 20.973,8.487 21.042 C 8.494 21.110,8.688 21.167,8.917 21.167 C 9.330 21.167,9.333 21.180,9.351 22.708 C 9.367 24.072,9.410 24.984,9.478 25.375 C 9.490 25.444,9.646 25.500,9.823 25.500 C 10.287 25.500,10.339 25.655,10.421 27.287 C 10.487 28.580,10.557 29.347,10.641 29.690 C 10.655 29.749,10.851 29.843,11.075 29.900 C 11.447 29.993,11.489 30.096,11.534 31.043 C 11.581 32.037,11.604 32.086,12.036 32.136 C 12.504 32.189,12.586 32.389,12.706 33.750 C 12.740 34.140,12.834 34.254,13.130 34.269 C 13.593 34.292,13.657 34.351,13.750 34.833 C 13.862 35.416,13.858 35.415,16.722 35.446 C 19.717 35.479,20.167 35.389,20.167 34.755 C 20.167 34.350,20.361 34.243,20.958 34.321 C 21.073 34.336,21.176 34.270,21.188 34.174 C 21.199 34.078,21.227 33.925,21.250 33.833 C 21.273 33.742,21.301 33.559,21.313 33.428 C 21.324 33.297,21.502 33.166,21.708 33.137 C 21.945 33.103,22.075 32.976,22.060 32.793 C 22.048 32.634,22.110 32.548,22.199 32.603 C 22.288 32.658,22.346 32.564,22.328 32.393 C 22.227 31.439,22.336 31.000,22.675 31.000 C 23.161 31.000,23.500 30.078,23.500 28.755 C 23.500 28.157,23.556 27.682,23.625 27.700 C 23.939 27.783,24.514 27.446,24.489 27.195 C 24.474 27.042,24.470 26.098,24.481 25.097 C 24.499 23.374,24.585 22.975,24.751 23.840 C 24.828 24.241,25.100 24.493,25.458 24.497 C 25.618 24.499,25.667 25.294,25.667 27.906 C 25.667 31.635,25.760 32.167,26.413 32.167 L 26.833 32.167 26.833 39.333 L 26.833 46.500 26.353 46.500 C 25.761 46.500,25.672 46.766,25.669 48.542 L 25.667 49.833 25.083 49.833 C 24.646 49.833,24.495 49.760,24.481 49.542 C 24.470 49.381,24.451 49.137,24.439 49.000 C 24.427 48.862,24.221 48.727,23.978 48.699 C 23.606 48.656,23.523 48.545,23.431 47.970 C 23.271 46.965,23.038 46.594,22.729 46.851 C 22.529 47.017,22.491 47.011,22.532 46.820 C 22.572 46.638,22.326 46.572,21.458 46.534 C 20.361 46.486,20.333 46.495,20.333 46.895 C 20.333 47.477,20.162 47.850,19.954 47.722 C 19.844 47.653,19.816 47.714,19.881 47.884 C 19.938 48.034,19.902 48.207,19.800 48.270 C 19.692 48.337,19.662 48.309,19.727 48.204 C 19.788 48.104,19.770 47.980,19.686 47.928 C 19.601 47.876,19.453 48.061,19.356 48.339 C 19.221 48.727,19.227 48.818,19.382 48.731 C 19.529 48.649,19.527 48.679,19.375 48.842 C 18.742 49.525,19.241 51.833,20.022 51.833 C 20.204 51.833,20.308 51.906,20.253 51.995 C 20.076 52.282,20.362 53.809,20.612 53.905 C 20.754 53.959,20.806 53.924,20.741 53.819 C 20.681 53.722,20.788 53.740,20.980 53.859 C 21.171 53.979,21.397 54.276,21.482 54.520 C 21.816 55.479,28.526 55.454,28.861 54.492 C 28.978 54.157,29.155 54.005,29.471 53.968 C 29.839 53.926,29.926 53.822,29.969 53.375 C 30.009 52.963,30.100 52.833,30.352 52.833 C 30.719 52.833,31.206 51.890,31.158 51.274 C 31.055 49.963,31.159 49.576,31.667 49.384 L 32.167 49.196 32.164 38.223 C 32.162 27.280,32.132 26.402,31.773 26.617 C 31.659 26.685,31.668 26.627,31.794 26.471 C 32.034 26.174,31.661 25.714,31.341 25.912 C 31.173 26.015,31.073 23.045,31.162 20.625 C 31.184 20.022,31.130 19.667,31.015 19.667 C 30.915 19.667,30.852 19.573,30.875 19.458 C 30.898 19.341,30.716 19.227,30.458 19.197 L 30.000 19.145 29.979 16.906 C 29.968 15.674,29.940 14.592,29.917 14.500 C 29.894 14.408,29.866 14.256,29.854 14.163 C 29.843 14.069,29.646 13.920,29.417 13.833 C 29.069 13.701,29.000 13.566,29.000 13.015 C 29.000 12.007,28.750 11.500,28.254 11.500 C 28.023 11.500,27.824 11.425,27.813 11.333 C 27.801 11.242,27.773 11.092,27.750 11.000 C 27.727 10.908,27.699 10.758,27.688 10.667 C 27.676 10.573,27.153 10.500,26.500 10.500 C 25.376 10.500,25.233 10.567,25.318 11.054 C 25.331 11.130,25.264 11.143,25.168 11.084 C 25.073 11.025,25.045 10.896,25.106 10.796 C 25.173 10.688,25.141 10.663,25.026 10.734 C 24.920 10.799,24.833 10.999,24.833 11.177 C 24.833 11.433,24.716 11.500,24.268 11.500 C 23.690 11.500,23.500 11.710,23.500 12.347 C 23.500 12.575,23.383 12.667,23.093 12.667 C 22.869 12.667,22.650 12.726,22.605 12.798 C 22.543 12.899,22.363 16.975,22.337 18.875 C 22.335 19.048,22.206 19.167,22.020 19.167 C 21.631 19.167,21.299 19.549,21.340 19.948 C 21.535 21.820,21.321 23.472,20.864 23.631 C 20.504 23.757,20.390 23.907,20.375 24.272 C 20.365 24.535,20.319 24.975,20.273 25.250 C 20.227 25.525,20.184 25.986,20.178 26.274 C 20.169 26.681,20.079 26.819,19.770 26.897 C 19.326 27.008,19.172 27.408,19.169 28.458 C 19.167 29.048,19.112 29.167,18.843 29.167 C 18.665 29.167,18.466 29.253,18.401 29.359 C 18.330 29.474,18.355 29.506,18.463 29.440 C 18.562 29.378,18.692 29.406,18.751 29.501 C 18.810 29.597,18.796 29.664,18.721 29.651 C 18.378 29.591,18.185 29.689,18.115 29.958 C 18.064 30.152,18.032 30.107,18.019 29.825 C 17.997 29.330,17.717 29.000,17.321 29.000 C 16.986 29.000,16.833 28.368,16.833 26.985 C 16.833 26.182,16.775 25.980,16.500 25.833 C 16.317 25.735,16.167 25.710,16.167 25.777 C 16.167 25.845,16.097 25.829,16.011 25.742 C 15.926 25.655,15.840 24.721,15.819 23.667 C 15.780 21.625,15.686 21.333,15.068 21.333 C 14.680 21.333,14.676 21.314,14.630 19.208 L 14.583 17.083 14.125 17.031 L 13.667 16.978 13.667 15.584 C 13.667 14.103,13.474 13.667,12.821 13.667 C 12.543 13.667,12.500 13.544,12.500 12.756 C 12.500 11.799,12.271 11.500,11.539 11.500 C 11.320 11.500,11.228 11.387,11.237 11.128 C 11.260 10.474,8.448 10.123,5.917 10.462 M138.864 15.140 C 138.664 15.314,138.500 15.539,138.500 15.640 C 138.500 15.741,138.261 15.886,137.968 15.962 C 136.968 16.221,136.865 18.748,137.846 18.944 C 138.276 19.030,138.334 19.112,138.336 19.646 C 138.339 20.389,138.547 20.759,138.856 20.573 C 139.030 20.468,139.026 20.512,138.839 20.760 C 138.704 20.938,138.660 21.028,138.740 20.960 C 138.820 20.892,138.973 20.909,139.080 20.997 C 139.828 21.618,142.338 21.272,142.579 20.515 C 142.641 20.317,142.861 20.167,143.133 20.135 L 143.583 20.083 143.625 18.250 C 143.678 15.947,143.637 15.883,142.063 15.846 C 141.627 15.835,141.526 15.755,141.447 15.358 C 141.322 14.736,139.507 14.582,138.864 15.140 M182.833 15.002 C 182.833 15.103,182.767 15.145,182.686 15.095 C 182.515 14.990,182.182 15.338,182.223 15.579 C 182.238 15.669,182.025 15.818,181.750 15.910 C 180.681 16.271,180.628 19.000,181.690 19.000 C 181.905 19.000,181.993 19.162,182.032 19.625 C 182.068 20.060,182.155 20.235,182.320 20.199 C 182.511 20.158,182.517 20.195,182.350 20.396 C 182.018 20.796,182.755 21.149,184.112 21.238 C 185.685 21.341,186.235 21.187,186.302 20.624 C 186.341 20.290,186.459 20.175,186.802 20.135 L 187.250 20.083 187.297 18.145 C 187.349 15.962,187.387 16.028,186.000 15.878 C 185.119 15.782,185.127 15.787,185.102 15.297 C 185.081 14.875,182.833 14.583,182.833 15.002 M81.646 15.917 C 81.634 15.963,81.606 16.075,81.583 16.167 C 81.560 16.258,81.532 16.479,81.521 16.656 C 81.506 16.893,81.356 16.993,80.958 17.031 L 80.417 17.083 80.365 18.333 C 80.280 20.366,80.427 20.994,81.015 21.111 C 81.285 21.165,81.548 21.276,81.598 21.358 C 81.649 21.439,81.778 21.452,81.887 21.387 C 82.020 21.307,82.015 21.353,81.873 21.529 C 81.540 21.941,82.015 22.201,83.231 22.272 C 84.353 22.338,84.739 22.146,84.635 21.574 C 84.595 21.354,84.724 21.280,85.212 21.245 C 86.068 21.184,86.760 20.730,86.491 20.406 C 86.333 20.216,86.345 20.167,86.546 20.167 C 86.845 20.167,86.914 18.231,86.627 17.875 C 86.535 17.760,86.515 17.667,86.583 17.667 C 86.652 17.667,86.613 17.553,86.498 17.415 C 86.328 17.209,86.241 17.201,86.029 17.373 C 85.853 17.515,85.807 17.520,85.887 17.387 C 85.952 17.278,85.939 17.149,85.858 17.098 C 85.776 17.048,85.666 16.791,85.614 16.526 C 85.538 16.150,85.402 16.022,84.988 15.939 C 84.363 15.814,81.676 15.796,81.646 15.917 M273.667 15.957 C 273.667 16.041,273.498 16.104,273.292 16.097 C 273.002 16.086,272.905 16.188,272.864 16.542 C 272.818 16.942,272.739 17.000,272.239 17.000 L 271.667 17.000 271.667 19.066 C 271.667 20.812,271.708 21.147,271.935 21.234 C 272.141 21.313,272.160 21.391,272.017 21.563 C 271.611 22.052,272.279 22.248,274.484 22.289 C 277.139 22.338,277.005 22.491,276.983 19.426 C 276.966 17.007,276.871 16.276,276.583 16.365 C 276.492 16.393,276.437 16.478,276.462 16.554 C 276.488 16.630,276.435 16.646,276.345 16.590 C 276.255 16.535,276.219 16.392,276.264 16.272 C 276.360 16.024,276.310 16.011,274.792 15.892 C 274.159 15.843,273.667 15.872,273.667 15.957 M290.154 18.003 C 290.132 19.314,290.081 19.636,289.918 19.501 C 289.649 19.278,289.255 19.722,289.396 20.090 C 289.454 20.240,289.426 20.307,289.331 20.249 C 289.230 20.186,289.167 20.537,289.167 21.166 C 289.167 22.073,289.114 22.235,288.688 22.634 C 288.425 22.881,288.168 23.196,288.118 23.333 C 288.067 23.471,288.020 23.304,288.013 22.962 C 288.002 22.432,288.062 22.324,288.417 22.235 C 288.646 22.178,288.843 22.064,288.854 21.982 C 288.866 21.900,288.894 21.758,288.917 21.667 C 288.940 21.575,288.968 20.450,288.979 19.167 L 289.000 16.833 289.422 16.833 C 289.654 16.833,289.887 16.721,289.940 16.583 C 290.136 16.071,290.182 16.376,290.154 18.003 M106.667 17.460 C 106.667 17.848,106.571 17.959,106.125 18.091 C 105.589 18.248,105.583 18.261,105.562 19.333 C 105.542 20.367,105.788 21.470,105.946 21.052 C 106.063 20.742,106.667 21.343,106.667 21.769 C 106.667 22.547,111.055 22.657,111.655 21.894 C 112.358 21.000,112.117 18.233,111.326 18.113 C 111.026 18.067,110.894 17.922,110.832 17.567 L 110.747 17.083 108.707 17.037 L 106.667 16.990 106.667 17.460 M262.871 17.536 C 262.774 17.909,262.607 18.102,262.324 18.169 C 261.925 18.264,261.917 18.300,261.917 19.960 C 261.917 21.937,262.040 22.156,263.233 22.290 C 263.713 22.344,264.008 22.462,264.021 22.605 C 264.032 22.731,264.051 22.927,264.063 23.042 C 264.077 23.187,264.527 23.265,265.545 23.298 L 267.006 23.346 267.107 22.840 C 267.185 22.449,267.297 22.333,267.598 22.333 C 268.150 22.333,268.287 21.951,268.322 20.305 C 268.361 18.523,268.212 17.614,267.902 17.733 C 267.778 17.780,267.626 17.735,267.563 17.634 C 267.496 17.526,267.524 17.495,267.629 17.560 C 267.729 17.622,267.857 17.596,267.915 17.502 C 268.117 17.175,267.127 17.000,265.077 17.000 L 263.010 17.000 262.871 17.536 M40.060 27.327 C 39.962 27.813,39.520 27.989,38.761 27.843 C 38.290 27.752,37.869 28.032,37.775 28.498 C 37.708 28.836,37.576 29.000,37.371 29.000 C 36.863 29.000,36.667 29.357,36.667 30.283 C 36.667 31.163,36.558 31.296,35.932 31.178 C 35.581 31.111,35.506 31.746,35.519 34.667 C 35.535 38.196,35.598 38.582,36.157 38.587 C 36.528 38.591,37.126 39.985,36.868 40.243 C 36.824 40.287,37.019 40.456,37.302 40.618 C 37.585 40.780,37.894 41.084,37.989 41.293 C 38.185 41.722,38.784 42.000,39.511 42.000 C 39.939 42.000,40.000 42.060,40.000 42.481 C 40.000 43.105,40.438 43.173,44.250 43.144 C 48.206 43.113,48.443 43.078,48.557 42.507 C 48.627 42.156,48.772 42.021,49.158 41.943 C 49.561 41.863,49.667 41.756,49.667 41.428 C 49.667 41.088,49.770 40.996,50.250 40.906 C 50.753 40.811,50.833 40.731,50.833 40.326 C 50.833 39.937,50.912 39.846,51.292 39.803 C 51.671 39.759,51.759 39.659,51.801 39.218 C 51.844 38.781,51.932 38.678,52.301 38.635 C 52.642 38.596,52.788 38.456,52.906 38.054 C 52.994 37.754,53.236 37.446,53.465 37.342 C 53.803 37.188,53.833 37.117,53.655 36.903 C 53.482 36.695,53.485 36.657,53.673 36.699 C 53.905 36.751,53.942 36.657,53.979 35.917 C 53.994 35.624,54.095 35.500,54.320 35.500 C 54.926 35.500,55.167 35.306,55.167 34.816 C 55.167 34.378,55.219 34.333,55.736 34.333 L 56.305 34.333 56.392 35.458 C 56.511 36.982,56.519 37.008,56.819 36.959 C 56.972 36.935,57.062 37.015,57.033 37.151 C 57.005 37.280,57.058 37.433,57.150 37.490 C 57.242 37.547,57.361 38.038,57.414 38.581 C 57.510 39.575,57.670 39.826,58.208 39.831 C 58.446 39.833,58.500 39.985,58.500 40.655 C 58.500 41.884,58.692 42.000,60.729 42.000 C 62.541 42.000,62.833 41.891,62.833 41.217 C 62.833 40.902,62.923 40.833,63.333 40.833 C 63.779 40.833,63.833 40.778,63.833 40.328 C 63.833 40.030,63.937 39.783,64.086 39.726 C 64.225 39.672,64.319 39.506,64.295 39.356 C 64.264 39.167,64.350 39.101,64.574 39.140 C 64.866 39.191,64.874 39.166,64.658 38.899 C 64.525 38.736,64.503 38.654,64.608 38.717 C 64.875 38.877,65.000 38.457,65.000 37.403 C 65.000 36.511,65.006 36.500,65.500 36.500 C 65.914 36.500,66.000 36.432,66.000 36.109 C 66.000 35.655,66.549 34.948,66.761 35.128 C 66.841 35.195,66.804 35.117,66.679 34.955 C 66.478 34.692,66.488 34.672,66.768 34.777 C 67.031 34.876,67.050 34.855,66.883 34.649 C 66.721 34.448,66.744 34.398,67.008 34.379 C 67.310 34.356,67.413 34.575,67.351 35.104 C 67.338 35.207,67.552 35.335,67.825 35.390 L 68.321 35.489 68.369 37.120 C 68.407 38.424,68.464 38.740,68.653 38.699 C 68.854 38.656,68.855 38.689,68.662 38.922 C 68.463 39.162,68.475 39.189,68.759 39.140 C 68.999 39.098,69.069 39.165,69.029 39.398 C 68.993 39.610,69.050 39.683,69.207 39.623 C 69.382 39.556,69.449 39.723,69.479 40.295 C 69.544 41.548,69.994 42.000,71.178 42.000 C 71.585 42.000,71.667 42.068,71.667 42.407 C 71.667 43.369,75.755 43.484,75.866 42.524 C 75.912 42.125,75.992 42.079,76.708 42.033 C 77.144 42.005,77.500 41.913,77.500 41.829 C 77.500 41.746,77.612 41.720,77.750 41.773 C 77.932 41.843,78.000 41.753,78.000 41.444 C 78.000 40.978,78.265 40.733,78.695 40.804 C 78.948 40.846,79.216 40.411,79.153 40.059 C 79.006 39.238,79.189 38.686,79.625 38.636 C 79.976 38.596,80.120 38.460,80.239 38.054 C 80.328 37.754,80.569 37.446,80.798 37.342 C 81.136 37.188,81.167 37.117,80.989 36.903 C 80.815 36.694,80.819 36.657,81.013 36.699 C 81.177 36.734,81.266 36.563,81.301 36.144 C 81.344 35.622,81.419 35.524,81.846 35.439 C 82.148 35.379,82.395 35.197,82.477 34.974 L 82.612 34.608 82.707 34.971 C 82.774 35.226,82.931 35.333,83.234 35.333 C 83.608 35.333,83.669 35.407,83.683 35.875 C 83.706 36.621,83.884 37.192,84.083 37.160 C 84.175 37.145,84.229 37.060,84.204 36.971 C 84.179 36.882,84.232 36.854,84.322 36.910 C 84.412 36.965,84.443 37.121,84.392 37.255 C 84.340 37.390,84.371 37.500,84.461 37.500 C 84.550 37.500,84.675 37.958,84.739 38.518 C 84.844 39.448,84.897 39.553,85.344 39.722 C 85.792 39.891,85.835 39.977,85.850 40.745 C 85.894 43.007,85.906 43.020,87.833 43.049 C 89.082 43.067,89.370 43.002,89.264 42.726 C 89.180 42.508,89.206 42.492,89.391 42.645 C 89.655 42.864,90.108 42.477,89.928 42.185 C 89.873 42.096,89.908 41.974,90.005 41.913 C 90.184 41.803,90.214 35.992,90.041 35.083 C 89.981 34.769,89.827 34.624,89.479 34.554 C 89.007 34.460,89.000 34.442,88.987 33.271 C 88.968 31.506,88.846 31.177,88.208 31.169 C 88.094 31.168,87.999 30.998,87.998 30.792 C 87.993 30.079,87.802 29.643,87.538 29.744 C 87.330 29.824,87.323 29.797,87.495 29.589 C 87.843 29.170,87.299 29.083,84.333 29.083 L 81.583 29.083 81.530 29.548 C 81.489 29.907,81.369 30.035,81.003 30.108 C 80.489 30.211,80.339 30.527,80.336 31.521 C 80.334 32.058,80.278 32.136,79.833 32.225 C 79.360 32.320,79.202 32.710,79.308 33.525 C 79.316 33.584,79.181 33.596,79.009 33.551 C 78.805 33.497,78.630 33.591,78.508 33.818 C 78.406 34.010,78.377 34.167,78.444 34.167 C 78.512 34.167,78.477 34.257,78.367 34.367 C 78.257 34.477,78.167 34.769,78.167 35.017 C 78.167 35.359,78.056 35.506,77.705 35.628 C 77.245 35.789,77.166 35.989,77.105 37.167 C 77.088 37.493,76.975 37.601,76.583 37.667 C 76.162 37.737,76.075 37.835,76.031 38.292 C 75.983 38.788,75.930 38.833,75.406 38.833 L 74.833 38.833 74.833 37.829 C 74.833 36.847,74.822 36.823,74.333 36.725 C 74.058 36.670,73.830 36.616,73.825 36.604 C 73.820 36.593,73.777 35.571,73.729 34.333 C 73.643 32.144,73.401 31.169,73.004 31.414 C 72.804 31.538,72.672 31.293,72.631 30.723 C 72.593 30.182,72.408 30.006,71.875 30.003 C 71.570 30.000,71.500 29.907,71.500 29.500 L 71.500 29.000 68.875 29.017 C 66.197 29.034,65.460 29.121,65.507 29.417 C 65.521 29.508,65.606 29.563,65.696 29.538 C 65.785 29.512,65.813 29.565,65.757 29.655 C 65.701 29.745,65.546 29.777,65.411 29.725 C 65.245 29.661,65.167 29.741,65.167 29.977 C 65.167 30.223,65.091 30.294,64.904 30.222 C 64.714 30.149,64.657 30.208,64.696 30.436 C 64.733 30.650,64.663 30.736,64.478 30.706 C 64.198 30.660,64.006 31.098,64.002 31.792 C 64.001 32.050,63.900 32.167,63.679 32.167 C 63.125 32.167,62.835 32.630,62.811 33.554 C 62.798 34.028,62.756 34.252,62.717 34.051 C 62.677 33.847,62.429 33.589,62.156 33.469 C 61.691 33.263,61.667 33.201,61.667 32.220 C 61.667 30.894,61.432 30.211,61.077 30.505 C 60.868 30.679,60.843 30.668,60.931 30.440 C 60.988 30.290,60.955 30.167,60.856 30.167 C 60.757 30.167,60.613 29.923,60.536 29.625 L 60.396 29.083 57.511 29.038 C 54.439 28.989,54.167 29.049,54.167 29.770 C 54.167 30.079,54.077 30.167,53.760 30.167 C 53.252 30.167,53.176 30.291,53.055 31.313 C 52.967 32.052,52.910 32.143,52.479 32.229 C 52.046 32.316,52.000 32.390,52.000 33.003 C 52.000 33.449,51.929 33.672,51.792 33.654 C 51.366 33.599,51.150 33.672,51.252 33.836 C 51.309 33.929,51.438 33.955,51.537 33.894 C 51.643 33.828,51.670 33.859,51.604 33.967 C 51.541 34.069,51.384 34.112,51.255 34.062 C 51.088 33.998,50.989 34.156,50.912 34.611 C 50.730 35.688,50.667 35.823,50.391 35.717 C 50.051 35.587,49.840 35.946,49.833 36.667 C 49.827 37.405,49.688 37.618,49.167 37.692 C 48.938 37.724,48.741 37.844,48.729 37.958 C 48.718 38.073,48.699 38.313,48.688 38.492 C 48.670 38.772,48.522 38.824,47.625 38.867 C 46.639 38.914,46.583 38.939,46.581 39.333 C 46.579 39.704,46.500 39.756,45.873 39.801 C 45.364 39.838,45.167 39.789,45.167 39.626 C 45.167 39.239,44.805 38.983,44.554 39.191 C 44.386 39.330,44.333 39.309,44.333 39.104 C 44.333 38.901,44.173 38.833,43.695 38.833 C 43.133 38.833,43.060 38.788,43.088 38.458 C 43.106 38.252,43.050 37.993,42.963 37.882 C 42.849 37.738,42.938 37.648,43.277 37.567 C 43.903 37.417,44.167 37.194,44.167 36.813 C 44.167 36.522,44.422 36.418,44.961 36.488 C 45.077 36.503,45.218 36.283,45.275 35.999 C 45.354 35.606,45.488 35.461,45.835 35.391 C 46.381 35.282,46.362 35.408,46.393 31.833 C 46.427 27.847,46.447 27.892,44.708 27.847 C 44.282 27.836,44.167 27.762,44.167 27.500 C 44.167 27.317,44.087 27.167,43.990 27.167 C 43.893 27.167,43.855 27.100,43.906 27.018 C 43.957 26.935,43.155 26.858,42.079 26.845 L 40.161 26.820 40.060 27.327 M227.008 27.992 C 226.875 28.076,226.701 28.105,226.622 28.056 C 226.408 27.923,225.809 28.529,225.906 28.781 C 225.952 28.902,225.898 29.006,225.786 29.013 C 225.419 29.036,224.971 29.140,224.889 29.222 C 224.560 29.551,224.763 31.034,225.130 30.979 C 225.580 30.911,225.667 31.055,225.669 31.875 C 225.672 32.904,225.763 33.078,226.375 33.228 C 226.829 33.339,226.833 33.353,226.833 34.720 C 226.833 36.144,226.973 36.500,227.533 36.500 C 227.780 36.500,227.834 36.642,227.837 37.292 C 227.852 40.104,228.027 40.833,228.687 40.833 C 228.958 40.833,229.000 40.966,229.000 41.823 C 229.000 43.035,229.006 43.039,230.940 43.106 C 232.780 43.170,233.333 43.014,233.333 42.432 C 233.333 42.109,233.430 42.011,233.792 41.969 C 234.165 41.926,234.259 41.823,234.299 41.415 C 234.333 41.071,234.495 40.830,234.816 40.646 C 235.275 40.382,235.500 39.808,235.500 38.896 C 235.500 38.615,235.594 38.500,235.823 38.500 C 236.283 38.500,236.533 37.870,236.535 36.708 C 236.535 36.502,236.607 36.333,236.694 36.333 C 236.782 36.333,236.797 36.240,236.728 36.125 C 236.629 35.960,236.655 35.959,236.855 36.121 C 237.161 36.369,237.500 36.107,237.500 35.623 C 237.500 35.453,237.575 35.360,237.667 35.417 C 237.758 35.473,237.833 35.697,237.833 35.913 C 237.833 36.215,237.950 36.332,238.333 36.417 L 238.833 36.526 238.836 37.888 C 238.838 39.184,239.010 39.878,239.266 39.623 C 239.629 39.260,240.142 40.636,240.012 41.628 C 239.997 41.744,240.209 41.883,240.483 41.938 C 240.864 42.014,240.994 42.141,241.032 42.471 C 241.095 43.006,241.802 43.203,243.167 43.068 C 243.671 43.018,244.293 42.984,244.549 42.992 C 244.916 43.003,245.050 42.907,245.178 42.538 C 245.279 42.250,245.536 41.997,245.847 41.879 C 246.125 41.774,246.338 41.590,246.319 41.469 C 246.201 40.711,246.549 39.865,247.019 39.771 C 247.485 39.678,247.500 39.645,247.500 38.671 C 247.500 37.790,247.540 37.667,247.821 37.667 C 248.311 37.667,248.692 37.184,248.661 36.602 C 248.600 35.472,248.631 35.405,249.208 35.411 L 249.750 35.417 249.799 36.447 C 249.847 37.437,249.868 37.481,250.341 37.585 C 250.817 37.690,250.833 37.725,250.833 38.652 C 250.833 39.180,250.890 39.667,250.958 39.736 C 251.027 39.805,251.093 39.930,251.104 40.014 C 251.116 40.098,251.134 40.244,251.146 40.337 C 251.157 40.431,251.354 40.580,251.583 40.667 C 251.901 40.787,252.000 40.945,252.000 41.329 C 252.000 41.606,252.056 41.825,252.125 41.815 C 252.498 41.762,253.044 42.101,253.261 42.521 C 253.538 43.057,253.556 43.060,256.385 43.027 C 258.074 43.007,258.359 42.946,258.318 42.612 C 258.260 42.144,258.358 42.000,258.736 42.000 C 259.320 42.000,259.681 41.827,259.558 41.608 C 259.478 41.466,259.504 41.466,259.659 41.608 C 259.875 41.808,260.500 41.358,260.500 41.003 C 260.500 40.913,260.687 40.793,260.916 40.735 C 261.144 40.678,261.294 40.571,261.248 40.496 C 261.202 40.422,261.247 40.334,261.349 40.300 C 261.450 40.267,261.573 39.885,261.621 39.453 C 261.763 38.195,262.737 38.244,262.888 39.518 C 263.000 40.468,263.222 40.833,263.687 40.833 C 263.906 40.833,264.000 40.953,264.000 41.232 C 264.000 41.577,264.211 41.783,264.708 41.923 C 264.777 41.942,265.133 41.968,265.500 41.979 C 266.055 41.997,266.167 42.057,266.167 42.343 C 266.167 42.532,266.241 42.641,266.331 42.585 C 266.426 42.526,266.454 42.593,266.397 42.741 C 266.311 42.966,266.559 43.000,268.302 43.000 L 270.307 43.000 270.417 42.500 C 270.522 42.022,270.565 42.000,271.397 42.000 C 272.348 42.000,272.667 41.804,272.667 41.217 C 272.667 40.886,272.793 40.781,273.167 40.798 C 273.273 40.802,273.675 40.368,273.670 40.253 C 273.630 39.265,273.738 38.903,273.820 39.750 C 273.909 40.669,273.951 40.754,274.343 40.800 C 274.659 40.837,274.809 40.986,274.926 41.383 C 275.043 41.778,275.193 41.929,275.506 41.966 C 275.739 41.993,276.026 42.170,276.144 42.358 C 276.262 42.547,276.278 42.652,276.181 42.592 C 276.073 42.525,276.042 42.583,276.103 42.741 C 276.165 42.903,276.431 43.009,276.809 43.023 C 278.043 43.070,279.598 43.038,280.083 42.956 C 280.358 42.909,280.679 42.863,280.796 42.852 C 280.913 42.842,281.080 42.646,281.167 42.417 C 281.273 42.137,281.453 42.000,281.713 42.000 C 282.205 42.000,282.500 41.706,282.500 41.217 C 282.500 40.902,282.589 40.833,283.000 40.833 C 283.446 40.833,283.500 40.778,283.500 40.328 C 283.500 40.030,283.604 39.783,283.753 39.726 C 283.892 39.672,283.986 39.506,283.961 39.356 C 283.930 39.167,284.017 39.101,284.241 39.140 C 284.504 39.186,284.528 39.151,284.370 38.961 C 284.220 38.780,284.222 38.676,284.379 38.515 C 284.542 38.348,284.515 38.317,284.250 38.361 C 284.010 38.401,283.930 38.335,283.966 38.125 C 283.999 37.926,283.906 37.833,283.674 37.833 C 283.487 37.833,283.342 37.777,283.353 37.708 C 283.423 37.266,283.281 36.972,282.935 36.840 C 282.485 36.669,281.789 36.793,281.928 37.019 C 281.979 37.100,281.940 37.167,281.843 37.167 C 281.746 37.167,281.667 37.286,281.667 37.432 C 281.667 37.578,281.518 37.737,281.335 37.785 C 281.153 37.832,281.053 37.950,281.113 38.047 C 281.180 38.156,281.118 38.184,280.952 38.120 C 280.755 38.044,280.711 38.088,280.787 38.286 C 280.856 38.465,280.825 38.514,280.695 38.434 C 280.578 38.362,280.500 38.418,280.500 38.573 C 280.500 38.765,280.327 38.833,279.841 38.833 L 279.183 38.833 279.133 37.792 C 279.085 36.793,279.064 36.748,278.625 36.697 L 278.167 36.645 278.150 33.281 C 278.127 28.696,278.334 29.083,275.909 29.083 L 273.917 29.083 273.864 29.542 C 273.824 29.889,273.721 30.000,273.439 30.000 C 272.795 30.000,272.667 30.310,272.667 31.867 C 272.667 33.168,272.633 33.333,272.367 33.333 C 271.767 33.333,271.667 33.671,271.667 35.700 C 271.667 37.455,271.635 37.669,271.375 37.686 C 271.215 37.696,270.971 37.715,270.833 37.728 C 270.696 37.740,270.573 37.862,270.561 38.000 C 270.549 38.137,270.530 38.381,270.519 38.542 C 270.485 39.056,269.333 38.946,269.333 38.428 C 269.333 38.055,268.838 37.700,268.458 37.800 C 268.390 37.818,268.332 37.402,268.331 36.875 C 268.324 33.567,268.084 32.251,267.568 32.679 C 267.370 32.844,267.345 32.830,267.431 32.607 C 267.489 32.455,267.454 32.333,267.351 32.333 C 267.229 32.333,267.167 31.774,267.167 30.667 L 267.167 29.000 265.073 29.000 C 263.720 29.000,263.017 29.059,263.083 29.167 C 263.140 29.258,263.107 29.333,263.010 29.333 C 262.913 29.333,262.833 29.467,262.833 29.630 C 262.833 29.807,262.631 30.003,262.333 30.116 L 261.833 30.304 261.833 31.819 C 261.833 33.204,261.806 33.333,261.512 33.333 C 260.983 33.333,260.694 33.771,260.694 34.575 C 260.694 35.368,260.567 35.728,260.335 35.585 C 260.060 35.414,259.667 36.031,259.664 36.637 C 259.661 37.404,259.527 37.618,259.000 37.692 C 258.667 37.738,258.573 37.858,258.531 38.292 C 258.456 39.069,257.532 39.097,257.193 38.333 C 257.059 38.029,256.847 37.833,256.653 37.833 C 256.407 37.833,256.329 37.708,256.314 37.292 C 256.304 36.994,256.277 36.675,256.256 36.583 C 256.235 36.492,256.206 36.127,256.192 35.774 C 256.171 35.252,256.115 35.151,255.893 35.236 C 255.677 35.319,255.659 35.293,255.808 35.113 C 256.065 34.804,255.843 34.619,255.525 34.876 C 255.317 35.045,255.295 35.041,255.406 34.856 C 255.483 34.729,255.470 34.583,255.375 34.523 C 255.283 34.465,255.174 33.796,255.133 33.037 C 255.055 31.620,254.940 31.344,254.397 31.265 C 254.159 31.230,254.062 31.038,253.995 30.468 C 253.844 29.184,253.627 29.083,251.012 29.083 L 248.750 29.083 248.698 29.532 C 248.658 29.876,248.544 29.992,248.204 30.032 C 247.867 30.071,247.724 30.212,247.609 30.616 C 247.494 31.018,247.350 31.161,247.020 31.199 C 246.607 31.247,246.581 31.307,246.534 32.292 C 246.487 33.265,246.458 33.333,246.085 33.333 C 245.491 33.333,245.410 33.520,245.351 35.042 C 245.337 35.406,245.253 35.500,244.942 35.500 C 244.701 35.500,244.481 35.644,244.370 35.875 C 244.221 36.183,244.187 36.035,244.178 35.042 C 244.172 34.355,244.095 33.833,244.000 33.833 C 243.908 33.833,243.852 33.741,243.875 33.629 C 243.898 33.517,243.754 33.400,243.556 33.369 C 243.243 33.321,243.184 33.178,243.107 32.282 C 243.058 31.714,243.004 31.137,242.987 31.000 C 242.939 30.616,242.464 30.145,242.219 30.239 C 242.071 30.296,242.000 30.174,242.000 29.861 C 242.000 29.070,241.784 29.000,239.333 29.000 C 236.996 29.000,236.667 29.086,236.667 29.697 C 236.667 29.877,236.498 30.036,236.238 30.101 C 235.812 30.208,235.408 30.883,235.592 31.181 C 235.644 31.265,235.602 31.333,235.500 31.333 C 235.395 31.333,235.368 31.425,235.439 31.542 C 235.537 31.706,235.509 31.705,235.304 31.540 C 234.950 31.253,234.561 31.659,234.879 31.983 C 235.041 32.147,235.031 32.179,234.833 32.137 C 234.653 32.098,234.569 32.256,234.532 32.708 C 234.488 33.236,234.420 33.333,234.094 33.333 C 233.881 33.333,233.598 33.498,233.465 33.699 C 233.204 34.091,233.177 34.039,233.155 33.112 C 233.151 32.944,232.928 32.682,232.658 32.529 C 232.205 32.270,232.169 32.179,232.168 31.277 C 232.167 30.350,232.143 30.296,231.667 30.116 C 231.318 29.984,231.167 29.815,231.167 29.557 C 231.167 29.353,231.090 29.139,230.997 29.082 C 230.904 29.024,230.874 28.902,230.930 28.811 C 231.072 28.583,230.487 27.969,230.224 28.070 C 230.107 28.115,229.966 28.080,229.912 27.993 C 229.786 27.789,227.329 27.788,227.008 27.992 M296.315 32.095 C 296.571 31.937,296.728 32.341,296.494 32.556 C 296.335 32.704,296.311 32.703,296.395 32.554 C 296.462 32.434,296.363 32.336,296.141 32.304 C 295.940 32.274,295.739 32.137,295.694 32.000 C 295.625 31.788,295.654 31.784,295.882 31.973 C 296.031 32.095,296.225 32.150,296.315 32.095 M42.167 32.927 C 42.167 33.344,42.098 33.644,42.015 33.593 C 41.798 33.458,41.317 33.672,41.429 33.854 C 41.481 33.937,41.604 33.955,41.704 33.894 C 41.809 33.828,41.837 33.859,41.770 33.967 C 41.707 34.069,41.534 34.105,41.384 34.048 C 41.202 33.978,41.152 34.008,41.232 34.138 C 41.299 34.246,41.274 34.333,41.177 34.333 C 40.722 34.333,40.992 33.190,41.458 33.136 C 41.818 33.095,41.928 32.985,41.969 32.625 C 42.052 31.910,42.167 32.086,42.167 32.927 M312.000 32.750 C 312.000 33.201,311.932 33.333,311.700 33.333 C 311.316 33.333,311.000 33.649,311.000 34.033 C 311.000 34.198,310.981 34.336,310.958 34.340 C 309.578 34.548,309.614 34.554,309.724 34.142 C 309.782 33.926,309.830 33.624,309.831 33.469 C 309.833 33.288,309.995 33.170,310.292 33.136 C 310.652 33.095,310.761 32.985,310.803 32.625 C 310.894 31.831,312.000 31.947,312.000 32.750 M391.042 35.610 C 390.927 35.657,390.833 35.866,390.833 36.076 C 390.833 36.486,390.348 36.667,389.244 36.667 C 388.734 36.667,388.688 36.714,388.583 37.334 C 388.521 37.701,388.413 37.966,388.343 37.923 C 387.939 37.673,387.636 38.315,387.547 39.615 C 387.422 41.437,387.522 41.769,388.232 41.902 C 388.672 41.985,388.782 42.076,388.722 42.308 C 388.596 42.786,389.021 42.985,390.345 43.068 C 392.289 43.190,392.833 43.061,392.833 42.479 C 392.833 42.106,392.909 42.000,393.179 42.000 C 393.932 42.000,394.023 41.672,393.968 39.129 L 393.917 36.753 393.419 36.667 C 393.093 36.610,392.899 36.466,392.859 36.249 C 392.734 35.574,391.877 35.273,391.042 35.610 M314.167 36.406 C 314.167 36.542,313.971 36.667,313.708 36.697 C 313.351 36.738,313.239 36.849,313.198 37.198 C 313.158 37.545,313.045 37.658,312.698 37.698 C 312.356 37.738,312.212 37.878,312.091 38.292 C 311.932 38.829,311.922 38.833,310.882 38.833 L 309.833 38.833 309.833 38.250 C 309.833 37.706,309.869 37.666,310.375 37.654 C 312.156 37.614,313.011 37.332,312.654 36.901 C 312.490 36.703,312.503 36.678,312.726 36.764 C 312.879 36.822,313.000 36.787,313.000 36.684 C 313.000 36.583,313.225 36.500,313.500 36.500 C 313.775 36.500,314.000 36.425,314.000 36.333 C 314.000 36.242,314.037 36.167,314.083 36.167 C 314.129 36.167,314.167 36.274,314.167 36.406 M351.333 36.963 C 351.333 37.511,351.267 37.618,350.833 37.782 C 350.455 37.925,350.333 38.076,350.333 38.402 C 350.333 38.639,350.258 38.843,350.167 38.854 C 349.835 38.896,349.747 38.924,349.542 39.054 C 349.427 39.127,349.324 39.351,349.314 39.552 C 349.299 39.821,349.266 39.785,349.188 39.417 C 349.099 38.999,348.991 38.908,348.530 38.864 C 348.075 38.820,348.012 38.769,348.175 38.574 C 348.283 38.444,348.434 38.376,348.511 38.423 C 348.587 38.471,348.731 38.357,348.831 38.171 C 348.930 37.985,348.953 37.830,348.881 37.826 C 348.809 37.822,349.037 37.667,349.387 37.482 C 349.922 37.200,349.991 37.106,349.817 36.897 C 349.703 36.760,349.679 36.664,349.763 36.684 C 349.848 36.703,350.029 36.674,350.167 36.618 C 350.304 36.562,350.604 36.485,350.833 36.448 C 351.063 36.410,351.269 36.369,351.292 36.356 C 351.315 36.344,351.333 36.617,351.333 36.963 " stroke="none" fill="#0eacca" fill-rule="evenodd"></path><path id="path4" d="M397.241 13.583 C 397.240 16.333,397.263 17.482,397.291 16.135 C 397.319 14.789,397.319 12.539,397.291 11.135 C 397.263 9.732,397.241 10.833,397.241 13.583 M10.796 10.507 C 11.004 10.590,11.243 10.829,11.327 11.038 C 11.435 11.306,11.482 11.335,11.489 11.137 C 11.503 10.777,11.057 10.330,10.696 10.344 C 10.498 10.351,10.527 10.399,10.796 10.507 M138.410 15.011 C 138.349 15.109,138.340 15.229,138.389 15.278 C 138.508 15.397,138.833 15.187,138.833 14.990 C 138.833 14.777,138.546 14.791,138.410 15.011 M182.079 15.179 C 181.922 15.676,182.053 15.715,182.278 15.238 C 182.383 15.015,182.406 14.833,182.329 14.833 C 182.252 14.833,182.140 14.989,182.079 15.179 M180.883 17.500 C 180.883 18.004,180.915 18.210,180.953 17.958 C 180.991 17.706,180.991 17.294,180.953 17.042 C 180.915 16.790,180.883 16.996,180.883 17.500 M1.208 19.115 C 1.369 19.157,1.631 19.157,1.792 19.115 C 1.952 19.073,1.821 19.039,1.500 19.039 C 1.179 19.039,1.048 19.073,1.208 19.115 M81.505 21.771 C 81.498 22.046,81.954 22.379,82.203 22.279 C 82.341 22.224,82.316 22.188,82.133 22.180 C 81.977 22.173,81.773 22.035,81.680 21.875 C 81.587 21.715,81.508 21.668,81.505 21.771 M288.079 22.846 C 288.019 23.036,288.014 23.236,288.068 23.290 C 288.122 23.345,288.167 23.264,288.167 23.111 C 288.167 22.958,288.242 22.833,288.333 22.833 C 288.425 22.833,288.500 22.758,288.500 22.667 C 288.500 22.363,288.191 22.494,288.079 22.846 M265.294 23.451 C 265.501 23.491,265.801 23.490,265.960 23.448 C 266.120 23.406,265.950 23.374,265.583 23.375 C 265.217 23.377,265.086 23.411,265.294 23.451 M166.000 29.177 C 166.000 29.274,165.925 29.307,165.833 29.250 C 165.742 29.193,165.667 29.226,165.667 29.323 C 165.667 29.578,165.926 29.540,166.167 29.250 C 166.310 29.077,166.316 29.000,166.187 29.000 C 166.084 29.000,166.000 29.079,166.000 29.177 M253.500 29.250 C 253.741 29.540,254.000 29.578,254.000 29.323 C 254.000 29.226,253.925 29.193,253.833 29.250 C 253.742 29.307,253.667 29.274,253.667 29.177 C 253.667 29.079,253.582 29.000,253.480 29.000 C 253.350 29.000,253.357 29.077,253.500 29.250 M348.172 31.605 C 348.164 31.880,348.621 32.212,348.869 32.112 C 349.007 32.057,348.982 32.022,348.800 32.013 C 348.644 32.006,348.440 31.869,348.347 31.708 C 348.253 31.548,348.175 31.501,348.172 31.605 M301.042 33.250 C 301.044 33.617,301.078 33.747,301.118 33.540 C 301.158 33.332,301.156 33.032,301.115 32.873 C 301.073 32.714,301.040 32.883,301.042 33.250 M41.688 33.150 C 41.562 33.230,41.493 33.397,41.535 33.522 C 41.588 33.680,41.672 33.635,41.811 33.375 C 42.033 32.960,42.021 32.939,41.688 33.150 M66.927 34.816 C 66.877 34.898,66.947 35.008,67.084 35.061 C 67.236 35.119,67.333 35.060,67.333 34.911 C 67.333 34.642,67.073 34.581,66.927 34.816 M82.306 35.299 C 82.111 35.548,82.116 35.558,82.346 35.379 C 82.545 35.224,82.655 35.221,82.801 35.368 C 82.907 35.474,83.030 35.526,83.073 35.483 C 83.116 35.439,83.011 35.316,82.840 35.209 C 82.588 35.052,82.486 35.070,82.306 35.299 M198.833 35.276 C 198.604 35.397,198.529 35.495,198.667 35.495 C 198.954 35.495,199.446 35.217,199.329 35.120 C 199.285 35.085,199.063 35.155,198.833 35.276 M237.500 35.875 C 237.500 36.026,237.369 36.227,237.208 36.320 C 237.048 36.413,236.992 36.490,237.083 36.490 C 237.470 36.489,237.903 36.003,237.699 35.799 C 237.545 35.645,237.500 35.662,237.500 35.875 M132.934 36.930 C 132.778 37.338,132.812 37.378,133.083 37.107 C 133.367 36.824,133.403 36.667,133.184 36.667 C 133.103 36.667,132.990 36.785,132.934 36.930 M281.611 36.778 C 281.433 36.956,281.483 37.363,281.669 37.248 C 281.763 37.191,281.800 37.080,281.752 37.003 C 281.704 36.925,281.759 36.824,281.874 36.777 C 281.990 36.731,282.003 36.687,281.903 36.680 C 281.803 36.673,281.672 36.717,281.611 36.778 M342.746 37.013 C 342.686 37.203,342.681 37.403,342.735 37.457 C 342.789 37.511,342.833 37.431,342.833 37.278 C 342.833 37.125,342.908 37.000,343.000 37.000 C 343.092 37.000,343.167 36.925,343.167 36.833 C 343.167 36.529,342.858 36.661,342.746 37.013 M349.373 37.444 C 349.084 37.561,348.766 38.167,348.994 38.167 C 349.089 38.167,349.167 38.081,349.167 37.977 C 349.167 37.872,349.298 37.687,349.458 37.565 C 349.761 37.336,349.734 37.299,349.373 37.444 M284.500 39.083 C 284.330 39.288,284.341 39.333,284.563 39.333 C 284.712 39.333,284.833 39.221,284.833 39.083 C 284.833 38.946,284.805 38.833,284.770 38.833 C 284.736 38.833,284.614 38.946,284.500 39.083 M283.562 39.911 C 283.511 40.046,283.507 40.252,283.554 40.370 C 283.602 40.487,283.646 40.421,283.654 40.222 C 283.661 40.024,283.760 39.823,283.875 39.777 C 284.038 39.711,284.037 39.690,283.870 39.680 C 283.752 39.673,283.614 39.777,283.562 39.911 M105.353 40.028 C 105.342 40.181,105.290 40.443,105.237 40.611 C 105.147 40.901,105.151 40.901,105.332 40.620 C 105.437 40.456,105.489 40.194,105.447 40.036 C 105.379 39.778,105.370 39.778,105.353 40.028 M227.836 40.097 C 227.837 40.273,227.915 40.529,228.008 40.667 C 228.131 40.849,228.147 40.782,228.065 40.417 C 227.928 39.804,227.832 39.671,227.836 40.097 M37.833 41.655 C 37.833 41.843,38.485 42.071,38.624 41.932 C 38.678 41.878,38.597 41.833,38.444 41.833 C 38.292 41.833,38.167 41.758,38.167 41.667 C 38.167 41.575,38.092 41.500,38.000 41.500 C 37.908 41.500,37.833 41.570,37.833 41.655 M124.167 41.655 C 124.167 41.843,124.818 42.071,124.957 41.932 C 125.011 41.878,124.931 41.833,124.778 41.833 C 124.625 41.833,124.500 41.758,124.500 41.667 C 124.500 41.575,124.425 41.500,124.333 41.500 C 124.242 41.500,124.167 41.570,124.167 41.655 M388.505 42.333 C 388.505 42.621,388.783 43.112,388.880 42.995 C 388.915 42.952,388.845 42.729,388.724 42.500 C 388.603 42.270,388.505 42.196,388.505 42.333 M363.208 43.115 C 363.369 43.157,363.631 43.157,363.792 43.115 C 363.952 43.073,363.821 43.039,363.500 43.039 C 363.179 43.039,363.048 43.073,363.208 43.115 M24.794 49.785 C 25.001 49.824,25.301 49.823,25.460 49.781 C 25.620 49.739,25.450 49.707,25.083 49.709 C 24.717 49.711,24.586 49.745,24.794 49.785 " stroke="none" fill="#00ffff" fill-rule="evenodd"></path></g></svg>